g FX_Rain_Trail_3
v -0.019693894 -0.09875038 -3.5017553E-07
v -0.004436941 0.00220253 -3.5057928E-07
v 0.0011921764 0.002425003 -3.5058818E-07
v 0.030265912 -0.096206665 -3.5067234E-07
v -0.02182432 -0.20554206 -3.497808E-07
v 0.028228035 -0.20694931 -3.508012E-07
v -0.021636052 -0.33295652 -3.489422E-07
v 0.028448347 -0.33296797 -3.514811E-07
v -0.015413399 -0.481922 -3.4827687E-07
v 0.034491066 -0.48522994 -3.51441E-07
v -0.03760009 -0.64261657 -3.467034E-07
v 0.010926161 -0.654707 -3.4884408E-07
v -0.009177309 -0.74277335 -3.475533E-07
v -0.058335517 -0.73345137 -3.4536959E-07
v -0.023310076 -0.836042 -3.4637716E-07
v -0.07312806 -0.83107406 -3.4413696E-07
v -0.028138872 -0.9357339 -3.4552087E-07
v -0.07822723 -0.936348 -3.432316E-07
v -0.020262 -1.0435632 -3.4518533E-07
v -0.069951005 -1.0496444 -3.4288405E-07
v -0.0017816126 -1.1508135 -3.4553034E-07
v -0.050847705 -1.1605097 -3.4324563E-07
v -0.0053860378 -1.3602931 -3.4540602E-07
v 0.043522622 -1.3498647 -3.4768385E-07
v 0.06351532 -1.4526626 -3.4906031E-07
v 0.014087358 -1.460421 -3.467444E-07
v 0.076951385 -1.564761 -3.5032946E-07
v 0.02702864 -1.5683914 -3.4796687E-07
v 0.08022821 -1.6912947 -3.5125765E-07
v 0.030182395 -1.6901731 -3.4886094E-07
v 0.06989616 -1.8371732 -3.5161557E-07
v 0.020140154 -1.83196 -3.4920964E-07
v -0.016212499 -2.0593224 -3.4891585E-07
v 0.032782372 -2.069326 -3.5131467E-07
v -0.046012428 -2.2024136 -3.4829844E-07
v 0.0034545707 -2.2099814 -3.5070767E-07
v -0.0044058287 -2.2807739 -3.50423E-07
v -0.054360483 -2.2775981 -3.4799714E-07
v -0.0058972943 -2.3717647 -3.5021512E-07
v -0.055918727 -2.3726628 -3.4777648E-07
v 0.0007080197 -2.4979773 -3.501311E-07
v -0.049223643 -2.5005906 -3.4769428E-07
vt 0.9281427 0.9960201
vt 0.99949986 0.9960201
vt 0.99949986 0.00049867923
vt 0.9281427 0.00049867923
vt 0.8567856 0.9960201
vt 0.8567856 0.00049867923
vt 0.78542846 0.9960201
vt 0.78542846 0.00049867923
vt 0.71407133 0.9960201
vt 0.71407133 0.00049867923
vt 0.6427142 0.9960201
vt 0.6427142 0.00049867923
vt 0.60703564 0.00049867923
vt 0.60703564 0.9960201
vt 0.5713571 0.00049867923
vt 0.5713571 0.9960201
vt 0.5356785 0.00049867923
vt 0.5356785 0.9960201
vt 0.49999994 0.00049867923
vt 0.49999994 0.9960201
vt 0.46432137 0.00049867923
vt 0.46432137 0.9960201
vt 0.39296424 0.99602044
vt 0.39296424 0.00049867923
vt 0.35728568 0.00049867923
vt 0.35728568 0.99602044
vt 0.3216071 0.00049867923
vt 0.3216071 0.99602044
vt 0.28592855 0.00049867923
vt 0.28592855 0.99602044
vt 0.25024998 0.0004989819
vt 0.25024998 0.99602044
vt 0.17889285 0.99602044
vt 0.17889285 0.0004989819
vt 0.10753572 0.99602044
vt 0.10753572 0.0004989819
vt 0.07185715 0.0004989819
vt 0.07185715 0.99602044
vt 0.036178574 0.0004989819
vt 0.036178574 0.99602044
vt 0.0005 0.0004989819
vt 0.0005 0.99602044
vn -0 0 1
vn -0 0 1
vn -0 0 1
vn -0 0 1
vn -0 0 1
vn -0 0 1
vn -0 0 1
vn -0 0 1
vn -0 0 1
vn -0 0 1
vn -0 0 1
vn -0 0 1
vn -0 0 1
vn -0 0 1
vn -0 0 1
vn -0 0 1
vn -0 0 1
vn -0 0 1
vn -0 0 1
vn -0 0 1
vn -0 0 1
vn -0 0 1
vn -0 0 1
vn -0 0 1
vn -0 0 1
vn -0 0 1
vn -0 0 1
vn -0 0 1
vn -0 0 1
vn -0 0 1
vn -0 0 1
vn -0 0 1
vn -0 0 1
vn -0 0 1
vn -0 0 1
vn -0 0 1
vn -0 0 1
vn -0 0 1
vn -0 0 1
vn -0 0 1
vn -0 0 1
vn -0 0 1
g FX_Rain_Trail_3_0
f 3/3/3 2/2/2 1/1/1
f 4/4/4 3/3/3 1/1/1
f 4/4/4 1/1/1 5/5/5
f 6/6/6 4/4/4 5/5/5
f 6/6/6 5/5/5 7/7/7
f 8/8/8 6/6/6 7/7/7
f 8/8/8 7/7/7 9/9/9
f 10/10/10 8/8/8 9/9/9
f 10/10/10 9/9/9 11/11/11
f 12/12/12 10/10/10 11/11/11
f 13/13/13 12/12/12 11/11/11
f 14/14/14 13/13/13 11/11/11
f 15/15/15 13/13/13 14/14/14
f 16/16/16 15/15/15 14/14/14
f 17/17/17 15/15/15 16/16/16
f 18/18/18 17/17/17 16/16/16
f 19/19/19 17/17/17 18/18/18
f 20/20/20 19/19/19 18/18/18
f 21/21/21 19/19/19 20/20/20
f 22/22/22 21/21/21 20/20/20
f 21/21/21 22/22/22 23/23/23
f 24/24/24 21/21/21 23/23/23
f 25/25/25 24/24/24 23/23/23
f 26/26/26 25/25/25 23/23/23
f 27/27/27 25/25/25 26/26/26
f 28/28/28 27/27/27 26/26/26
f 29/29/29 27/27/27 28/28/28
f 30/30/30 29/29/29 28/28/28
f 31/31/31 29/29/29 30/30/30
f 32/32/32 31/31/31 30/30/30
f 31/31/31 32/32/32 33/33/33
f 34/34/34 31/31/31 33/33/33
f 34/34/34 33/33/33 35/35/35
f 36/36/36 34/34/34 35/35/35
f 37/37/37 36/36/36 35/35/35
f 38/38/38 37/37/37 35/35/35
f 39/39/39 37/37/37 38/38/38
f 40/40/40 39/39/39 38/38/38
f 41/41/41 39/39/39 40/40/40
f 42/42/42 41/41/41 40/40/40
