g FX_Rain_Trail_1
v -0.028947733 -0.13359474 1.3528995E-07
v -0.0037412976 0.0023999787 1.2983182E-07
v 0.0013084888 0.0023540496 1.2941996E-07
v 0.02039154 -0.14197692 1.3253509E-07
v -0.04262 -0.29871178 1.4005232E-07
v 0.007458534 -0.30000892 1.3741487E-07
v -0.046559528 -0.50653327 1.4582515E-07
v 0.0032014942 -0.50098133 1.4342179E-07
v 0.015397653 -0.6259017 1.4698854E-07
v -0.034307003 -0.63150877 1.4928388E-07
v 0.035653904 -0.75157195 1.4902638E-07
v -0.014354868 -0.7566499 1.51888E-07
v 0.03545558 -0.8674434 1.4903627E-07
v -0.014537563 -0.8634048 1.5190449E-07
v 0.018679418 -0.97173643 1.474773E-07
v -0.030406382 -0.9620573 1.5043737E-07
v -0.071727835 -1.1543149 1.4592317E-07
v -0.0219577 -1.1603433 1.4303444E-07
v -0.026360085 -1.2530954 1.4169018E-07
v -0.07657754 -1.2564903 1.4446273E-07
v -0.007764859 -1.3538878 1.4188558E-07
v -0.056565687 -1.3649614 1.4466269E-07
v 0.019947749 -1.456476 1.4371413E-07
v -0.028980354 -1.4670782 1.4650914E-07
v 0.035314254 -1.5499312 1.4650448E-07
v -0.01449125 -1.5551971 1.4913209E-07
v 0.03944763 -1.6364738 1.49748E-07
v -0.010627932 -1.6360846 1.5217192E-07
v 0.03415253 -1.7200693 1.529883E-07
v -0.015611481 -1.714762 1.552168E-07
v 0.021414876 -1.8047988 1.5574776E-07
v -0.027844442 -1.7961346 1.5787609E-07
v 0.0032154513 -1.8950506 1.5760513E-07
v -0.0457241 -1.884801 1.5970278E-07
v -0.08385581 -2.0886328 1.6090716E-07
v -0.033981677 -2.0933459 1.5876056E-07
v -0.0785128 -2.2628329 1.669765E-07
v -0.029092573 -2.2545767 1.6436924E-07
v -0.037226394 -2.4040475 1.7749043E-07
v 0.009200477 -2.3853753 1.7411763E-07
v 0.01892745 -2.524058 1.8971458E-07
v 0.065458566 -2.503652 1.862074E-07
vt 0.9257669 0.9971238
vt 0.997124 0.9971238
vt 0.99712396 0.002875924
vt 0.9257668 0.002875924
vt 0.85440975 0.9971238
vt 0.8544097 0.002875924
vt 0.7830526 0.9971238
vt 0.78305256 0.002875924
vt 0.747374 0.002875924
vt 0.74737406 0.9971238
vt 0.71169543 0.002875924
vt 0.7116955 0.9971238
vt 0.67601687 0.0028759837
vt 0.6760169 0.99712384
vt 0.6403383 0.0028759837
vt 0.64033836 0.99712384
vt 0.56898123 0.99712384
vt 0.5689812 0.0028759837
vt 0.5333026 0.0028759837
vt 0.53330266 0.99712384
vt 0.49762407 0.0028759837
vt 0.4976241 0.99712384
vt 0.4619455 0.0028759837
vt 0.46194553 0.99712384
vt 0.42626694 0.0028759837
vt 0.42626697 0.99712384
vt 0.39058837 0.0028759837
vt 0.3905884 0.99712384
vt 0.3549098 0.0028759837
vt 0.35490984 0.99712384
vt 0.31923124 0.0028759837
vt 0.31923127 0.99712384
vt 0.28355268 0.0028759837
vt 0.2835527 0.99712384
vt 0.21219558 0.99712384
vt 0.21219553 0.0028759837
vt 0.14083844 0.99712384
vt 0.1408384 0.0028759837
vt 0.069481306 0.99712384
vt 0.06948126 0.0028759837
vt -0.0018758411 0.99712384
vt -0.0018758846 0.0028759837
vn -0 0 1
vn -0 0 1
vn -0 0 1
vn -0 0 1
vn -0 0 1
vn -0 0 1
vn -0 0 1
vn -0 0 1
vn -0 0 1
vn -0 0 1
vn -0 0 1
vn -0 0 1
vn -0 0 1
vn -0 0 1
vn -0 0 1
vn -0 0 1
vn -0 0 1
vn -0 0 1
vn -0 0 1
vn -0 0 1
vn -0 0 1
vn -0 0 1
vn -0 0 1
vn -0 0 1
vn -0 0 1
vn -0 0 1
vn -0 0 1
vn -0 0 1
vn -0 0 1
vn -0 0 1
vn -0 0 1
vn -0 0 1
vn -0 0 1
vn -0 0 1
vn -0 0 1
vn -0 0 1
vn -0 0 1
vn -0 0 1
vn -0 1.0355614E-07 1
vn -0 1.03556204E-07 1
vn -0 1.1789607E-07 1
vn -0 1.1789607E-07 1
g FX_Rain_Trail_1_0
f 3/3/3 2/2/2 1/1/1
f 4/4/4 3/3/3 1/1/1
f 4/4/4 1/1/1 5/5/5
f 6/6/6 4/4/4 5/5/5
f 6/6/6 5/5/5 7/7/7
f 8/8/8 6/6/6 7/7/7
f 9/9/9 8/8/8 7/7/7
f 10/10/10 9/9/9 7/7/7
f 11/11/11 9/9/9 10/10/10
f 12/12/12 11/11/11 10/10/10
f 13/13/13 11/11/11 12/12/12
f 14/14/14 13/13/13 12/12/12
f 15/15/15 13/13/13 14/14/14
f 16/16/16 15/15/15 14/14/14
f 15/15/15 16/16/16 17/17/17
f 18/18/18 15/15/15 17/17/17
f 19/19/19 18/18/18 17/17/17
f 20/20/20 19/19/19 17/17/17
f 21/21/21 19/19/19 20/20/20
f 22/22/22 21/21/21 20/20/20
f 23/23/23 21/21/21 22/22/22
f 24/24/24 23/23/23 22/22/22
f 25/25/25 23/23/23 24/24/24
f 26/26/26 25/25/25 24/24/24
f 27/27/27 25/25/25 26/26/26
f 28/28/28 27/27/27 26/26/26
f 29/29/29 27/27/27 28/28/28
f 30/30/30 29/29/29 28/28/28
f 31/31/31 29/29/29 30/30/30
f 32/32/32 31/31/31 30/30/30
f 33/33/33 31/31/31 32/32/32
f 34/34/34 33/33/33 32/32/32
f 33/33/33 34/34/34 35/35/35
f 36/36/36 33/33/33 35/35/35
f 36/36/36 35/35/35 37/37/37
f 38/38/38 36/36/36 37/37/37
f 38/38/38 37/37/37 39/39/39
f 40/40/40 38/38/38 39/39/39
f 40/40/40 39/39/39 41/41/41
f 42/42/42 40/40/40 41/41/41
