g FX_Rain_Trail_2
v -0.028986491 -0.13778672 -3.47925E-07
v -0.003119738 0.002809906 -3.5151152E-07
v 0.0053211735 0.0023536682 -3.522757E-07
v 0.021060104 -0.14098282 -3.509674E-07
v -0.037387114 -0.28897452 -3.4488664E-07
v 0.012647059 -0.28691468 -3.4724644E-07
v 0.01493616 -0.3887084 -3.445079E-07
v -0.034974832 -0.3923516 -3.4241012E-07
v 0.02705336 -0.5123678 -3.4149232E-07
v -0.021978822 -0.5223877 -3.386373E-07
v 0.047609065 -0.6525595 -3.3933472E-07
v -0.0025836038 -0.6553388 -3.3660507E-07
v 0.04665902 -0.7886587 -3.400193E-07
v -0.0031331372 -0.7831506 -3.3723987E-07
v 0.023452308 -0.92221946 -3.4239227E-07
v -0.025686521 -0.91295165 -3.395418E-07
v -0.004097209 -1.0575991 -3.4532388E-07
v -0.05338587 -1.0490675 -3.4248689E-07
v -0.02437023 -1.1994127 -3.4775078E-07
v -0.0743287 -1.1955658 -3.4498487E-07
v -0.026156059 -1.3524916 -3.486429E-07
v -0.076203935 -1.3562979 -3.4591207E-07
v 0.0020885563 -1.5236808 -3.4694463E-07
v -0.04703309 -1.5331018 -3.4417045E-07
v 0.039735083 -1.6956706 -3.4350907E-07
v -0.009581604 -1.7042004 -3.4074426E-07
v 0.059230786 -1.8482653 -3.401848E-07
v 0.009334395 -1.852257 -3.3752795E-07
v 0.06369763 -1.9851608 -3.3738357E-07
v 0.013652484 -1.9845915 -3.348145E-07
v 0.0566997 -2.1115007 -3.3546573E-07
v 0.0068681287 -2.107077 -3.3294822E-07
v 0.041902937 -2.2324593 -3.3478608E-07
v -0.0076250695 -2.2255542 -3.3227914E-07
v -0.046001308 -2.4725792 -3.3598897E-07
v 0.003414414 -2.4802005 -3.385036E-07
vt 0.85678566 1.000187
vt 0.9994999 1.000187
vt 0.99949986 0.00050027436
vt 0.8567856 0.00050027436
vt 0.7616428 1.000187
vt 0.76164275 0.00050027436
vt 0.71407133 0.00050027436
vt 0.7140714 1.000187
vt 0.6664999 0.00050027436
vt 0.6665 1.000187
vt 0.6189285 0.00050027436
vt 0.61892855 1.000187
vt 0.5713571 0.00050027436
vt 0.57135713 1.000187
vt 0.52378565 0.00050027436
vt 0.5237857 1.000187
vt 0.47621423 0.00050027436
vt 0.47621426 1.000187
vt 0.4286428 0.00050027436
vt 0.42864284 1.000187
vt 0.3810714 0.00050027436
vt 0.38107142 1.000187
vt 0.33349997 0.00050027436
vt 0.3335 1.000187
vt 0.28592855 0.00050027436
vt 0.28592858 1.000187
vt 0.23835713 0.00050027436
vt 0.23835716 1.000187
vt 0.1907857 0.00050027436
vt 0.19078574 1.000187
vt 0.14321429 0.00050027436
vt 0.14321432 1.000187
vt 0.09564286 0.00050027436
vt 0.095642895 1.000187
vt 0.00050004205 1.000187
vt 0.0005 0.00050027436
vn -0 0 1
vn -0 0 1
vn -0 0 1
vn -0 0 1
vn -0 0 1
vn -0 0 1
vn -0 0 1
vn -0 0 1
vn -0 0 1
vn -0 0 1
vn -0 0 1
vn -0 0 1
vn -0 0 1
vn -0 0 1
vn -0 0 1
vn -0 0 1
vn -0 0 1
vn -0 0 1
vn -0 0 1
vn -0 0 1
vn -0 0 1
vn -0 0 1
vn -0 0 1
vn -0 0 1
vn -0 0 1
vn -0 0 1
vn -0 0 1
vn -0 0 1
vn -0 0 1
vn -0 0 1
vn -0 0 1
vn -0 0 1
vn -0 0 1
vn -0 0 1
vn -0 0 1
vn -0 0 1
g FX_Rain_Trail_2_0
f 3/3/3 2/2/2 1/1/1
f 4/4/4 3/3/3 1/1/1
f 4/4/4 1/1/1 5/5/5
f 6/6/6 4/4/4 5/5/5
f 7/7/7 6/6/6 5/5/5
f 8/8/8 7/7/7 5/5/5
f 9/9/9 7/7/7 8/8/8
f 10/10/10 9/9/9 8/8/8
f 11/11/11 9/9/9 10/10/10
f 12/12/12 11/11/11 10/10/10
f 13/13/13 11/11/11 12/12/12
f 14/14/14 13/13/13 12/12/12
f 15/15/15 13/13/13 14/14/14
f 16/16/16 15/15/15 14/14/14
f 17/17/17 15/15/15 16/16/16
f 18/18/18 17/17/17 16/16/16
f 19/19/19 17/17/17 18/18/18
f 20/20/20 19/19/19 18/18/18
f 21/21/21 19/19/19 20/20/20
f 22/22/22 21/21/21 20/20/20
f 23/23/23 21/21/21 22/22/22
f 24/24/24 23/23/23 22/22/22
f 25/25/25 23/23/23 24/24/24
f 26/26/26 25/25/25 24/24/24
f 27/27/27 25/25/25 26/26/26
f 28/28/28 27/27/27 26/26/26
f 29/29/29 27/27/27 28/28/28
f 30/30/30 29/29/29 28/28/28
f 31/31/31 29/29/29 30/30/30
f 32/32/32 31/31/31 30/30/30
f 33/33/33 31/31/31 32/32/32
f 34/34/34 33/33/33 32/32/32
f 33/33/33 34/34/34 35/35/35
f 36/36/36 33/33/33 35/35/35
