g FX_Twinkle_1
v 0.1271935 -0.046246946 0
v 0.123104826 -0.023103766 0
v 0.13534017 4.482675E-05 0
v 0.11901615 3.941761E-05 0
v 0.08833698 2.9270783E-05 0
v 0.09602116 -0.043465726 0
v 0.10370535 -0.086960725 0
v 0.0470031 1.5565127E-05 0
v 0.057355966 -0.05858504 0
v 0.06770883 -0.11718566 0
v 0.0117727965 -0.06663814 0
v 0.023545641 -0.13327628 0
v -4.970162E-08 2.8499194E-09 0
v -0.023457495 -0.13329183 0
v -0.035230342 -0.066653684 0
v -0.047003184 -1.5546391E-05 0
v -0.06763132 -0.117230415 0
v -0.07798418 -0.058629826 0
v -0.08833705 -2.923677E-05 0
v -0.1036478 -0.08702929 0
v -0.111331984 -0.04353434 0
v -0.119016156 -3.9393166E-05 0
v -0.13534017 -4.47966E-05 0
vt 0.964509 0.41030112
vt 0.94946367 0.48977277
vt 0.9938657 0.56936663
vt 0.93441826 0.5692445
vt 0.8226935 0.5690151
vt 0.8509696 0.419657
vt 0.8792457 0.27029893
vt 0.6721673 0.5687059
vt 0.71026355 0.3674764
vt 0.7483597 0.16624692
vt 0.5443167 0.33952463
vt 0.587638 0.11069496
vt 0.5009953 0.5683543
vt 0.41646603 0.110343546
vt 0.37314463 0.3391732
vt 0.32982326 0.56800276
vt 0.25548953 0.1652349
vt 0.21739332 0.36646423
vt 0.1792971 0.56769365
vt 0.1241246 0.2687483
vt 0.095848545 0.4181063
vt 0.067572534 0.5674642
vt 0.008125139 0.56734204
vn -0 0 1
vn -0 0 1
vn -0 0 1
vn -0 0 1
vn -0 0 1
vn -0 0 1
vn -0 0 1
vn -0 0 1
vn -0 0 1
vn -0 0 1
vn -0 0 1
vn -0 0 1
vn -0 0 1
vn -0 0 1
vn -0 0 1
vn -0 0 1
vn -0 0 1
vn -0 0 1
vn -0 0 1
vn -0 0 1
vn -0 0 1
vn -0 0 1
vn -0 0 1
g FX_Twinkle_1_0
f 3/3/3 2/2/2 1/1/1
f 4/4/4 2/2/2 3/3/3
f 4/4/4 5/5/5 2/2/2
f 2/2/2 6/6/6 1/1/1
f 5/5/5 6/6/6 2/2/2
f 6/6/6 7/7/7 1/1/1
f 5/5/5 8/8/8 6/6/6
f 6/6/6 9/9/9 7/7/7
f 8/8/8 9/9/9 6/6/6
f 9/9/9 10/10/10 7/7/7
f 9/9/9 8/8/8 11/11/11
f 10/10/10 9/9/9 11/11/11
f 12/12/12 10/10/10 11/11/11
f 8/8/8 13/13/13 11/11/11
f 12/12/12 11/11/11 14/14/14
f 11/11/11 13/13/13 15/15/15
f 11/11/11 15/15/15 14/14/14
f 13/13/13 16/16/16 15/15/15
f 14/14/14 15/15/15 17/17/17
f 15/15/15 16/16/16 18/18/18
f 15/15/15 18/18/18 17/17/17
f 16/16/16 19/19/19 18/18/18
f 17/17/17 18/18/18 20/20/20
f 18/18/18 19/19/19 21/21/21
f 18/18/18 21/21/21 20/20/20
f 19/19/19 22/22/22 21/21/21
f 20/20/20 21/21/21 23/23/23
f 21/21/21 22/22/22 23/23/23
