g FX_Waterfall_1
v 0.08495744 -0.22393112 0
v 0.08495744 -0.27056167 0
v 0.04247872 -0.27056167 0
v 0.04247872 -0.22393112 0
v 0.08495744 -0.17914489 0
v -0 -0.27056167 0
v 0.04247872 -0.17914489 0
v 0.08495744 -0.13435867 0
v -0 -0.22393112 0
v -0.04247872 -0.27056167 0
v 0.04247872 -0.13435867 0
v 0.08495744 -0.08957246 0
v -0 -0.17914489 0
v -0.04247872 -0.22393112 0
v -0.08495744 -0.27056167 0
v -0.08495744 -0.22393112 0
v -0.04247872 -0.17914489 0
v -0.08495744 -0.17914489 0
v 0.04247872 -0.08957246 0
v 0.08495744 -0.044786237 0
v -0 -0.13435867 0
v -0.04247872 -0.13435867 0
v -0.08495744 -0.13435867 0
v 0.04247872 -0.044786237 0
v 0.08495744 -1.9073486E-08 0
v -0 -0.08957246 0
v -0.04247872 -0.08957246 0
v -0.08495744 -0.08957246 0
v 0.04247872 -1.9073486E-08 0
v 0.08495744 0.0447862 0
v -0 -0.044786237 0
v -0.04247872 -0.044786237 0
v -0.08495744 -0.044786237 0
v 0.04247872 0.0447862 0
v 0.08495744 0.089572415 0
v -0 -1.9073486E-08 0
v -0.04247872 -1.9073486E-08 0
v -0.08495744 -1.9073486E-08 0
v -0 0.0447862 0
v -0.04247872 0.0447862 0
v -0.08495744 0.0447862 0
v 0.04247872 0.089572415 0
v -0.04247872 0.089572415 0
v -0.08495744 0.089572415 0
v -0.08495744 0.13589072 0
v -0 0.089572415 0
v 0.04247872 0.13589072 0
v 0.08495744 0.13589072 0
v 0.08495744 0.18164301 0
v -0.04247872 0.1358907 0
v -0 0.13589072 0
v 0.04247872 0.18164301 0
v 0.08495744 0.22739528 0
v 0.04247872 0.22739528 0
v -0 0.18164301 0
v -0 0.22739528 0
v -0.04247872 0.18164298 0
v -0.08495744 0.18164301 0
v -0.04247872 0.22739527 0
v -0.08495744 0.22739528 0
vt 0.97187495 1
vt 1 1
vt 1 0.75
vt 0.97187495 0.75
vt 0.9223927 1
vt 1 0.5
vt 0.9223927 0.75
vt 0.86742985 1
vt 0.97187495 0.5
vt 1 0.25
vt 0.86742985 0.75
vt 0.8024582 1
vt 0.9223927 0.5
vt 0.97187495 0.25
vt 1 0
vt 0.97187495 0
vt 0.9223927 0.25
vt 0.9223927 0
vt 0.8024582 0.75
vt 0.72156763 1
vt 0.86742985 0.5
vt 0.86742985 0.25
vt 0.86742985 0
vt 0.72156763 0.75
vt 0.6325893 1
vt 0.8024582 0.5
vt 0.8024582 0.25
vt 0.8024582 0
vt 0.6325893 0.75
vt 0.53876305 1
vt 0.72156763 0.5
vt 0.72156763 0.25
vt 0.72156763 0
vt 0.53876305 0.75
vt 0.42291534 1
vt 0.6325893 0.5
vt 0.6325893 0.25
vt 0.6325893 0
vt 0.53876305 0.5
vt 0.53876305 0.25
vt 0.53876305 0
vt 0.42291534 0.75
vt 0.42291534 0.25
vt 0.42291534 0
vt 0.28064746 0
vt 0.42291534 0.5
vt 0.28064746 0.75
vt 0.28064746 1
vt 0.13790704 1
vt 0.28064746 0.25
vt 0.28064746 0.5
vt 0.13790704 0.75
vt 4.723394E-09 1
vt 4.723394E-09 0.75
vt 0.13790704 0.5
vt 4.723394E-09 0.5
vt 0.13790704 0.25
vt 0.13790704 0
vt 4.723394E-09 0.25
vt 4.723394E-09 0
vn -0 0 1
vn -0 0 1
vn -0 0 1
vn -0 0 1
vn -0 0 1
vn -0 0 1
vn -0 0 1
vn -0 0 1
vn -0 0 1
vn -0 0 1
vn -0 0 1
vn -0 0 1
vn -0 0 1
vn -0 0 1
vn -0 0 1
vn -0 0 1
vn -0 0 1
vn -0 0 1
vn -0 0 1
vn -0 0 1
vn -0 0 1
vn -0 0 1
vn -0 0 1
vn -0 0 1
vn -0 0 1
vn -0 0 1
vn -0 0 1
vn -0 0 1
vn -0 0 1
vn -0 0 1
vn -0 0 1
vn -0 0 1
vn -0 0 1
vn -0 0 1
vn -0 0 1
vn -0 0 1
vn -0 0 1
vn -0 0 1
vn -0 0 1
vn -0 0 1
vn -0 0 1
vn -0 0 1
vn -0 0 1
vn -0 0 1
vn -0 0 1
vn -0 0 1
vn -0 0 1
vn -0 0 1
vn -0 0 1
vn -0 0 1
vn -0 0 1
vn -0 0 1
vn -0 0 1
vn -0 0 1
vn -0 0 1
vn -0 0 1
vn -0 0 1
vn -0 0 1
vn -0 0 1
vn -0 0 1
g FX_Waterfall_1_0
f 3/3/3 2/2/2 1/1/1
f 4/4/4 3/3/3 1/1/1
f 1/1/1 5/5/5 4/4/4
f 6/6/6 3/3/3 4/4/4
f 5/5/5 7/7/7 4/4/4
f 5/5/5 8/8/8 7/7/7
f 9/9/9 6/6/6 4/4/4
f 4/4/4 7/7/7 9/9/9
f 10/10/10 6/6/6 9/9/9
f 8/8/8 11/11/11 7/7/7
f 8/8/8 12/12/12 11/11/11
f 7/7/7 13/13/13 9/9/9
f 7/7/7 11/11/11 13/13/13
f 14/14/14 10/10/10 9/9/9
f 9/9/9 13/13/13 14/14/14
f 15/15/15 10/10/10 14/14/14
f 16/16/16 15/15/15 14/14/14
f 14/14/14 17/17/17 16/16/16
f 13/13/13 17/17/17 14/14/14
f 17/17/17 18/18/18 16/16/16
f 12/12/12 19/19/19 11/11/11
f 12/12/12 20/20/20 19/19/19
f 11/11/11 21/21/21 13/13/13
f 13/13/13 21/21/21 17/17/17
f 11/11/11 19/19/19 21/21/21
f 17/17/17 22/22/22 18/18/18
f 21/21/21 22/22/22 17/17/17
f 22/22/22 23/23/23 18/18/18
f 20/20/20 24/24/24 19/19/19
f 20/20/20 25/25/25 24/24/24
f 19/19/19 26/26/26 21/21/21
f 21/21/21 26/26/26 22/22/22
f 19/19/19 24/24/24 26/26/26
f 22/22/22 27/27/27 23/23/23
f 26/26/26 27/27/27 22/22/22
f 27/27/27 28/28/28 23/23/23
f 25/25/25 29/29/29 24/24/24
f 25/25/25 30/30/30 29/29/29
f 24/24/24 31/31/31 26/26/26
f 26/26/26 31/31/31 27/27/27
f 24/24/24 29/29/29 31/31/31
f 27/27/27 32/32/32 28/28/28
f 31/31/31 32/32/32 27/27/27
f 32/32/32 33/33/33 28/28/28
f 30/30/30 34/34/34 29/29/29
f 30/30/30 35/35/35 34/34/34
f 29/29/29 36/36/36 31/31/31
f 31/31/31 36/36/36 32/32/32
f 29/29/29 34/34/34 36/36/36
f 32/32/32 37/37/37 33/33/33
f 36/36/36 37/37/37 32/32/32
f 37/37/37 38/38/38 33/33/33
f 34/34/34 39/39/39 36/36/36
f 36/36/36 39/39/39 37/37/37
f 37/37/37 40/40/40 38/38/38
f 39/39/39 40/40/40 37/37/37
f 40/40/40 41/41/41 38/38/38
f 35/35/35 42/42/42 34/34/34
f 34/34/34 42/42/42 39/39/39
f 40/40/40 43/43/43 41/41/41
f 43/43/43 44/44/44 41/41/41
f 45/45/45 44/44/44 43/43/43
f 39/39/39 46/46/46 40/40/40
f 46/46/46 43/43/43 40/40/40
f 42/42/42 46/46/46 39/39/39
f 47/47/47 42/42/42 35/35/35
f 48/48/48 47/47/47 35/35/35
f 47/47/47 48/48/48 49/49/49
f 50/50/50 45/45/45 43/43/43
f 50/50/50 43/43/43 46/46/46
f 51/51/51 46/46/46 42/42/42
f 47/47/47 51/51/51 42/42/42
f 51/51/51 50/50/50 46/46/46
f 52/52/52 47/47/47 49/49/49
f 51/51/51 47/47/47 52/52/52
f 52/52/52 49/49/49 53/53/53
f 54/54/54 52/52/52 53/53/53
f 55/55/55 51/51/51 52/52/52
f 55/55/55 52/52/52 54/54/54
f 50/50/50 51/51/51 55/55/55
f 56/56/56 55/55/55 54/54/54
f 45/45/45 50/50/50 57/57/57
f 57/57/57 50/50/50 55/55/55
f 57/57/57 55/55/55 56/56/56
f 58/58/58 45/45/45 57/57/57
f 59/59/59 57/57/57 56/56/56
f 58/58/58 57/57/57 59/59/59
f 60/60/60 58/58/58 59/59/59
