g FX_Waterfall_2
v 0.0255025 -0.5 0
v -0 -0.5 0
v 0.0255025 -0.41666666 0
v -0 -0.41666666 0
v -0.0255025 -0.5 0
v 0.0255025 -0.33333334 0
v -0.0255025 -0.41666666 0
v -0 -0.33333334 0
v 0.0255025 -0.25000003 0
v -0.0255025 -0.33333334 0
v -0 -0.25000003 0
v 0.0255025 -0.16666672 0
v -0.0255025 -0.25000003 0
v -0 -0.16666672 0
v 0.0255025 -0.08333339 0
v -0.0255025 -0.16666672 0
v -0 -0.08333339 0
v 0.0255025 -5.7220458E-08 0
v -0.0255025 -0.08333339 0
v -0 -5.7220458E-08 0
v 0.0255025 0.08333327 0
v -0.0255025 -5.7220458E-08 0
v -0 0.08333327 0
v 0.0255025 0.1666666 0
v -0.0255025 0.08333327 0
v -0 0.1666666 0
v 0.0255025 0.24999993 0
v -0.0255025 0.1666666 0
v -0 0.24999993 0
v 0.0255025 0.33333322 0
v -0.0255025 0.24999993 0
v -0 0.33333322 0
v 0.0255025 0.41666657 0
v -0.0255025 0.33333322 0
v -0 0.41666657 0
v 0.0255025 0.49999988 0
v -0.0255025 0.41666657 0
v -0 0.49999988 0
v -0.0255025 0.49999988 0
vt 0.99999994 1.0000001
vt 1 0.5000001
vt 0.9166666 1.0000001
vt 0.9166666 0.5000001
vt 1 1.4901161E-07
vt 0.83333325 1.0000001
vt 0.9166667 1.45369E-07
vt 0.8333333 0.5000001
vt 0.75 1.0000001
vt 0.8333333 1.4172637E-07
vt 0.75 0.5000001
vt 0.6666666 1.0000001
vt 0.75 1.3808376E-07
vt 0.6666666 0.5000001
vt 0.58333325 1.0000001
vt 0.6666666 1.3444115E-07
vt 0.58333325 0.5000001
vt 0.49999994 1.0000001
vt 0.5833333 1.3079853E-07
vt 0.5 0.5000001
vt 0.41666663 1.0000001
vt 0.5 1.2715591E-07
vt 0.4166667 0.5000001
vt 0.3333333 1.0000001
vt 0.4166667 1.235133E-07
vt 0.33333337 0.5000001
vt 0.25 1.0000001
vt 0.33333337 1.1987069E-07
vt 0.25000006 0.5000001
vt 0.16666669 1.0000001
vt 0.25000006 1.1622807E-07
vt 0.16666675 0.5000001
vt 0.08333337 1.0000001
vt 0.16666675 1.12585454E-07
vt 0.08333343 0.5000001
vt 5.9604645E-08 1.0000001
vt 0.08333343 1.0894284E-07
vt 1.1920929E-07 0.5000001
vt 1.1920929E-07 1.0530023E-07
vn -0 0 1
vn -0 0 1
vn -0 0 1
vn -0 0 1
vn -0 0 1
vn -0 0 1
vn -0 0 1
vn -0 0 1
vn -0 0 1
vn -0 0 1
vn -0 0 1
vn -0 0 1
vn -0 0 1
vn -0 0 1
vn -0 0 1
vn -0 0 1
vn -0 0 1
vn -0 0 1
vn -0 0 1
vn -0 0 1
vn -0 0 1
vn -0 0 1
vn -0 0 1
vn -0 0 1
vn -0 0 1
vn -0 0 1
vn -0 0 1
vn -0 0 1
vn -0 0 1
vn -0 0 1
vn -0 0 1
vn -0 0 1
vn -0 0 1
vn -0 0 1
vn -0 0 1
vn -0 0 1
vn -0 0 1
vn -0 0 1
vn -0 0 1
g FX_Waterfall_2_0
f 3/3/3 2/2/2 1/1/1
f 2/2/2 3/3/3 4/4/4
f 4/4/4 5/5/5 2/2/2
f 6/6/6 4/4/4 3/3/3
f 5/5/5 4/4/4 7/7/7
f 4/4/4 6/6/6 8/8/8
f 8/8/8 7/7/7 4/4/4
f 9/9/9 8/8/8 6/6/6
f 7/7/7 8/8/8 10/10/10
f 8/8/8 9/9/9 11/11/11
f 11/11/11 10/10/10 8/8/8
f 12/12/12 11/11/11 9/9/9
f 10/10/10 11/11/11 13/13/13
f 11/11/11 12/12/12 14/14/14
f 14/14/14 13/13/13 11/11/11
f 15/15/15 14/14/14 12/12/12
f 13/13/13 14/14/14 16/16/16
f 14/14/14 15/15/15 17/17/17
f 17/17/17 16/16/16 14/14/14
f 18/18/18 17/17/17 15/15/15
f 16/16/16 17/17/17 19/19/19
f 17/17/17 18/18/18 20/20/20
f 20/20/20 19/19/19 17/17/17
f 21/21/21 20/20/20 18/18/18
f 19/19/19 20/20/20 22/22/22
f 20/20/20 21/21/21 23/23/23
f 23/23/23 22/22/22 20/20/20
f 24/24/24 23/23/23 21/21/21
f 22/22/22 23/23/23 25/25/25
f 23/23/23 24/24/24 26/26/26
f 26/26/26 25/25/25 23/23/23
f 27/27/27 26/26/26 24/24/24
f 25/25/25 26/26/26 28/28/28
f 26/26/26 27/27/27 29/29/29
f 29/29/29 28/28/28 26/26/26
f 30/30/30 29/29/29 27/27/27
f 28/28/28 29/29/29 31/31/31
f 29/29/29 30/30/30 32/32/32
f 32/32/32 31/31/31 29/29/29
f 33/33/33 32/32/32 30/30/30
f 31/31/31 32/32/32 34/34/34
f 32/32/32 33/33/33 35/35/35
f 35/35/35 34/34/34 32/32/32
f 36/36/36 35/35/35 33/33/33
f 34/34/34 35/35/35 37/37/37
f 35/35/35 36/36/36 38/38/38
f 38/38/38 37/37/37 35/35/35
f 37/37/37 38/38/38 39/39/39
