g FX_Rain_Trail_4
v -0.03216135 -0.16704041 -3.2174836E-07
v -0.0037531827 0.0023129273 -3.1907146E-07
v 0.0017121696 0.0024325561 -3.194645E-07
v 0.01781845 -0.16886574 -3.2467057E-07
v -0.035319593 -0.36903954 -3.2754753E-07
v 0.014633665 -0.37173605 -3.2953957E-07
v -0.041643754 -0.6264324 -3.372592E-07
v 0.008252096 -0.62289315 -3.3901742E-07
v 0.009422312 -0.7763888 -3.4602877E-07
v -0.04023652 -0.7822918 -3.4436954E-07
v 0.020347577 -0.93708694 -3.5001688E-07
v -0.029163117 -0.9440669 -3.4837706E-07
v 0.0115087675 -1.2438289 -3.4048523E-07
v 0.061254624 -1.2386695 -3.4207355E-07
v 0.07286676 -1.3820297 -3.3528326E-07
v 0.022878623 -1.3841978 -3.338325E-07
v 0.07368813 -1.5221176 -3.3010764E-07
v 0.02367357 -1.5197824 -3.2880664E-07
v 0.05996092 -1.6600769 -3.2921645E-07
v 0.010530868 -1.6518675 -3.2793182E-07
v 0.028294832 -1.7953268 -3.352205E-07
v -0.020279692 -1.7834631 -3.3379106E-07
v -0.0038039945 -1.9215071 -3.4259438E-07
v -0.052944344 -1.9118677 -3.412847E-07
v -0.019700527 -2.0357158 -3.4498296E-07
v -0.069609135 -2.0315964 -3.4378863E-07
v -0.022492327 -2.1413834 -3.433151E-07
v -0.07254349 -2.14266 -3.420364E-07
v -0.014805412 -2.240494 -3.3839706E-07
v -0.064488545 -2.2465155 -3.3688437E-07
v 0.0008143997 -2.3349903 -3.310101E-07
v -0.04826537 -2.3446617 -3.2921363E-07
v -0.0026429128 -2.5302234 -3.0984566E-07
v 0.04571298 -2.517507 -3.1195026E-07
vt 0.9043571 0.9953487
vt 0.9994999 0.9953487
vt 0.99949986 0.0005002804
vt 0.904357 0.0005002804
vt 0.80921423 0.9953487
vt 0.8092142 0.0005002804
vt 0.7140714 0.9953487
vt 0.71407133 0.0005002804
vt 0.6664999 0.00050063245
vt 0.6665 0.9953487
vt 0.6189285 0.00050063245
vt 0.61892855 0.9953487
vt 0.5237857 0.9953487
vt 0.52378565 0.00050063245
vt 0.47621423 0.00050063245
vt 0.47621426 0.9953487
vt 0.4286428 0.00050063245
vt 0.42864284 0.9953487
vt 0.3810714 0.00050063245
vt 0.38107142 0.9953487
vt 0.33349997 0.00050063245
vt 0.3335 0.9953487
vt 0.28592855 0.00050063245
vt 0.28592858 0.9953494
vt 0.23835713 0.00050063245
vt 0.23835716 0.9953494
vt 0.1907857 0.00050063245
vt 0.19078574 0.9953494
vt 0.14321429 0.00050063245
vt 0.14321432 0.9953494
vt 0.09564286 0.00050063245
vt 0.095642895 0.9953494
vt 0.00050003285 0.9953494
vt 0.0005 0.00050063245
vn -0 0 1
vn -0 0 1
vn -0 0 1
vn -0 0 1
vn -0 0 1
vn -0 0 1
vn -0 0 1
vn -0 0 1
vn -0 0 1
vn -0 0 1
vn -0 0 1
vn -0 0 1
vn -0 0 1
vn -0 0 1
vn -0 0 1
vn -0 0 1
vn -0 0 1
vn -0 0 1
vn -0 0 1
vn -0 0 1
vn -0 0 1
vn -0 0 1
vn -0 0 1
vn -0 0 1
vn -0 0 1
vn -0 0 1
vn -0 0 1
vn -0 0 1
vn -0 0 1
vn -0 0 1
vn -0 0 1
vn -0 0 1
vn -0 1.0813698E-07 1
vn -0 1.0813698E-07 1
g FX_Rain_Trail_4_0
f 3/3/3 2/2/2 1/1/1
f 4/4/4 3/3/3 1/1/1
f 4/4/4 1/1/1 5/5/5
f 6/6/6 4/4/4 5/5/5
f 6/6/6 5/5/5 7/7/7
f 8/8/8 6/6/6 7/7/7
f 9/9/9 8/8/8 7/7/7
f 10/10/10 9/9/9 7/7/7
f 11/11/11 9/9/9 10/10/10
f 12/12/12 11/11/11 10/10/10
f 11/11/11 12/12/12 13/13/13
f 14/14/14 11/11/11 13/13/13
f 15/15/15 14/14/14 13/13/13
f 16/16/16 15/15/15 13/13/13
f 17/17/17 15/15/15 16/16/16
f 18/18/18 17/17/17 16/16/16
f 19/19/19 17/17/17 18/18/18
f 20/20/20 19/19/19 18/18/18
f 21/21/21 19/19/19 20/20/20
f 22/22/22 21/21/21 20/20/20
f 23/23/23 21/21/21 22/22/22
f 24/24/24 23/23/23 22/22/22
f 25/25/25 23/23/23 24/24/24
f 26/26/26 25/25/25 24/24/24
f 27/27/27 25/25/25 26/26/26
f 28/28/28 27/27/27 26/26/26
f 29/29/29 27/27/27 28/28/28
f 30/30/30 29/29/29 28/28/28
f 31/31/31 29/29/29 30/30/30
f 32/32/32 31/31/31 30/30/30
f 31/31/31 32/32/32 33/33/33
f 34/34/34 31/31/31 33/33/33
