g FX_Firework_052
v 1.8803058 -0.9840689 1.0240458E-06
v -1.4522558 1.1499377 1.2764415E-06
v -2.5915942 -0.6293051 1.2412357E-06
v 0.8444659 -2.601684 1.0081696E-06
v -3.6249413 -2.6504183 1.214028E-06
v -0.032840576 -4.3176084 1.0153552E-06
v -4.508523 -4.761177 1.2037207E-06
v -0.8118042 -6.17843 1.03198E-06
v -5.259768 -6.9139805 1.2070186E-06
v -1.4914587 -8.126108 1.0566195E-06
v -5.892567 -9.060568 1.220874E-06
v -2.0743225 -10.103279 1.0876123E-06
v -6.418723 -11.151704 1.2424316E-06
v -2.5650342 -12.05355 1.1230945E-06
v -6.8487244 -13.137235 1.2689821E-06
v -2.9695494 -13.921417 1.1610562E-06
v -7.192241 -14.966204 1.297932E-06
v -3.2946239 -15.652228 1.1993751E-06
v -3.5505114 -17.21016 1.2341326E-06
v -7.455461 -16.56879 1.3284838E-06
v -1.4874622 1.7296399 1.890048E-06
v 1.4143816 -1.112608 1.7001379E-06
v 3.7719927 1.2944434 1.7358576E-06
v 1.0756482 4.3464975 2.0102154E-06
v 6.1223297 3.086438 1.7307842E-06
v 3.9044292 6.5032787 2.1473843E-06
v 8.495147 4.382921 1.732639E-06
v 6.8341236 8.104038 2.2672168E-06
v 10.820544 5.2044907 1.7496853E-06
v 9.79962 9.151747 2.3748375E-06
v 13.027705 5.5755663 1.7907157E-06
v 12.736757 9.645567 2.4748365E-06
v 15.04811 5.5274115 1.8712061E-06
v 15.579041 9.577808 2.565143E-06
v 16.82309 5.098984 1.9924596E-06
v 18.25014 8.933098 2.6578327E-06
v 18.315607 4.329908 2.1688304E-06
v 20.652103 7.695398 2.7519393E-06
v 22.454115 6.056859 2.8911838E-06
v 19.721472 3.051577 2.3699852E-06
v -1.1627905 0.18165374 9.852158E-07
v 0.8843164 0.40504393 1.1475121E-06
v 0.57302064 3.2577007 1.3570524E-06
v -1.4766589 3.0578582 1.211756E-06
v 0.35061583 5.8467307 1.4768502E-06
v -1.7033594 5.696937 1.3645436E-06
v 0.2100354 8.190296 1.5270413E-06
v -1.847329 8.096989 1.4485454E-06
v 0.14529541 10.295773 1.5200598E-06
v -1.9140502 10.266859 1.4764306E-06
v 0.15026489 12.170293 1.4684061E-06
v -1.9088843 12.215634 1.4608215E-06
v 0.21857788 13.820652 1.3847433E-06
v -1.8369775 13.952774 1.414149E-06
v 0.3435089 15.253127 1.2806634E-06
v -1.7030591 15.488237 1.3499247E-06
v 0.517633 16.4733 1.1680783E-06
v -1.5111986 16.832687 1.2813445E-06
v -1.2732251 17.955275 1.2079316E-06
v 0.74126524 17.528223 1.0725682E-06
v -0.57701415 -0.6568906 -3.2761495E-06
v 0.88587767 2.0588849 -1.561221E-06
v -1.4520166 3.318222 -1.3573483E-06
v -2.7858555 0.5329327 -3.1334587E-06
v -4.0219517 4.402105 -1.106617E-06
v -5.0748825 1.4983307 -2.9990297E-06
v -6.7186303 5.226222 -8.453772E-07
v -7.450133 2.224224 -2.8515892E-06
v -9.49977 5.7364283 -5.8278675E-07
v -9.854675 2.6653423 -2.6970333E-06
v -12.321655 5.873872 -3.3113625E-07
v -12.233006 2.7811816 -2.5381432E-06
v -15.135351 5.5745664 -1.06903606E-07
v -14.534875 2.5363183 -2.373497E-06
v -17.881027 4.7722855 6.985414E-08
v -16.720846 1.8975836 -2.1981025E-06
v -20.484505 3.4072833 1.8288584E-07
v -18.765915 0.82534605 -2.0107768E-06
v -22.742031 1.537799 2.5570057E-07
v -20.774584 -0.8380441 -1.8500925E-06
v 0.34266478 1.261709 -7.800033E-07
v -0.4638391 -0.54213226 -1.5540045E-06
v 1.3663526 -1.3604165 -1.9257336E-06
v 2.3362658 0.3703659 -1.2900159E-06
v 3.0478723 -2.5136685 -2.1153492E-06
v 4.280563 -0.96310455 -1.6939289E-06
v 4.683993 -4.0143046 -2.2161764E-06
v 6.0970206 -2.6291432 -1.934448E-06
v 6.2757535 -5.820636 -2.2344022E-06
v 7.8093457 -4.5722957 -2.041409E-06
v 7.8260117 -7.8850694 -2.1789533E-06
v 9.439429 -6.743031 -2.041915E-06
v 9.340642 -10.1578455 -2.0619527E-06
v 11.006152 -9.093969 -1.9598663E-06
v 10.827925 -12.58881 -1.897862E-06
v 12.525972 -11.57812 -1.8168297E-06
v 12.297808 -15.128093 -1.7026487E-06
v 14.0137 -14.14823 -1.6328657E-06
v 15.482971 -16.756535 -1.42703E-06
v 13.761396 -17.726313 -1.4932739E-06
v -0.91338253 1.7038293 3.177739E-06
v 0.46949217 -2.0313787 2.152154E-06
v 2.2632575 -1.3672744 1.9490528E-06
v 1.2054944 2.4882982 2.992488E-06
v 4.178049 -1.0169781 1.6971255E-06
v 3.7538488 2.9545014 2.6948164E-06
v 6.323077 -0.9485965 1.4140794E-06
v 6.4684534 3.0410395 2.315262E-06
v 8.606889 -1.1885974 1.1159619E-06
v 9.286729 2.7448657 1.8860183E-06
v 10.941905 -1.7539703 8.246378E-07
v 12.142255 2.0534582 1.4334604E-06
v 13.245265 -2.6559503 5.667309E-07
v 14.96385 0.9485461 9.792114E-07
v 15.439852 -3.9026012 3.6177386E-07
v 17.674614 -0.5913266 5.5197944E-07
v 17.455797 -5.5021296 2.341697E-07
v 20.190403 -2.5874593 1.756013E-07
v 22.303217 -4.927275 -5.203008E-08
v 19.347084 -7.596622 1.3426805E-07
v -1.4459594 -0.64430845 1.2103832E-06
v 1.4459729 0.6443103 1.9347094E-06
v 0.4340881 2.9151843 1.8433597E-06
v -2.4142566 1.528739 1.0690807E-06
v -0.83788085 5.318389 1.7760196E-06
v -3.5753942 3.7225604 8.9702047E-07
v -2.3630798 7.704438 1.7247725E-06
v -4.943292 5.862528 7.246968E-07
v -4.1580014 9.964448 1.7023854E-06
v -6.5086117 7.8334327 5.6192613E-07
v -6.244524 11.98417 1.7189611E-06
v -8.256557 9.525422 4.2117492E-07
v -8.647399 13.63686 1.778531E-06
v -10.1695 10.841143 3.209937E-07
v -11.380432 14.775168 1.8752614E-06
v -12.240757 11.703825 2.8978474E-07
v -14.422609 15.2398405 1.9978747E-06
v -14.49842 12.048667 3.6141114E-07
v -17.526226 14.915671 2.1558037E-06
v -17.197319 11.766758 5.490181E-07
v -0.13016234 -2.0460327 1.779354E-06
v 0.096837156 1.9304742 3.273072E-06
v -1.3370935 2.0123272 3.5104504E-06
v -1.1712707 -1.9865985 1.916658E-06
v -3.048845 1.7712694 3.7414359E-06
v -2.1486816 -2.1242445 2.0572018E-06
v -4.778066 1.2091968 3.9399793E-06
v -3.2444017 -2.4804034 2.2353254E-06
v -6.493396 0.33000672 4.1206654E-06
v -4.41135 -3.078526 2.4447315E-06
v -8.160471 -0.8678662 4.2941174E-06
v -5.60553 -3.9366002 2.6830874E-06
v -9.742211 -2.3879128 4.472275E-06
v -6.7856274 -5.070672 2.9467442E-06
v -11.199995 -4.233739 4.662003E-06
v -7.911853 -6.4966874 3.2371229E-06
v -12.494922 -6.4083214 4.8709876E-06
v -8.944734 -8.231221 3.5548314E-06
v -13.541584 -8.80598 5.1327584E-06
v -9.891262 -10.399492 3.874628E-06
vt 0.9975591 0.0012092683
vt 0.9975591 0.9973136
vt 0.8914502 0.9973136
vt 0.8914502 0.0012092683
vt 0.7819505 0.9973136
vt 0.7819505 0.0012092683
vt 0.66504234 0.9973136
vt 0.66504234 0.0012092683
vt 0.5465404 0.9973136
vt 0.5465404 0.0012092683
vt 0.42839456 0.9973136
vt 0.42839456 0.0012092683
vt 0.3128209 0.9973136
vt 0.3128209 0.0012092683
vt 0.2022146 0.9973136
vt 0.2022146 0.0012092683
vt 0.0990985 0.9973136
vt 0.0990985 0.0012092683
vt 0.008890331 0.0012092683
vt 0.008890331 0.9973136
vt 0.9975591 0.9973136
vt 0.9975591 0.0012092683
vt 0.86252916 0.0012092683
vt 0.86252916 0.9973136
vt 0.7313905 0.0012092683
vt 0.7313905 0.9973136
vt 0.60374963 0.0012092683
vt 0.60374963 0.9973136
vt 0.4808159 0.0012092683
vt 0.4808159 0.9973136
vt 0.36452514 0.0012092683
vt 0.36452514 0.9973136
vt 0.25868505 0.0012092683
vt 0.25868505 0.9973136
vt 0.16321725 0.0012092683
vt 0.16321725 0.9973136
vt 0.08201635 0.0012092683
vt 0.08201635 0.9973136
vt 0.008890331 0.9973136
vt 0.008890331 0.0012092683
vt 0.9975591 0.9973136
vt 0.9975591 0.0012092683
vt 0.8181366 0.0012092683
vt 0.8181366 0.9973136
vt 0.6858754 0.0012092683
vt 0.6858754 0.9973136
vt 0.57341015 0.0012092683
vt 0.57341015 0.9973136
vt 0.46949166 0.0012092683
vt 0.46949166 0.9973136
vt 0.36759818 0.0012092683
vt 0.36759818 0.9973136
vt 0.26666355 0.0012092683
vt 0.26666355 0.9973136
vt 0.16917789 0.0012092683
vt 0.16917789 0.9973136
vt 0.08374888 0.0012092683
vt 0.08374888 0.9973136
vt 0.008890331 0.9973136
vt 0.008890331 0.0012092683
vt 0.9975591 0.9973136
vt 0.9975591 0.0012092683
vt 0.89852923 0.0012092683
vt 0.89852923 0.9973136
vt 0.79033756 0.0012092683
vt 0.79033756 0.9973136
vt 0.6789539 0.0012092683
vt 0.6789539 0.9973136
vt 0.5679572 0.0012092683
vt 0.5679572 0.9973136
vt 0.45816863 0.0012092683
vt 0.45816863 0.9973136
vt 0.34978962 0.0012092683
vt 0.34978962 0.9973136
vt 0.24203432 0.0012092683
vt 0.24203432 0.9973136
vt 0.13279247 0.0012092683
vt 0.13279247 0.9973136
vt 0.008890331 0.0012092683
vt 0.008890331 0.9973136
vt 0.9975591 0.0012092683
vt 0.9975591 0.9973136
vt 0.8548009 0.9973136
vt 0.8548009 0.0012092683
vt 0.7716503 0.9973136
vt 0.7716503 0.0012092683
vt 0.70189685 0.9973136
vt 0.70189685 0.0012092683
vt 0.6246135 0.9973136
vt 0.6246135 0.0012092683
vt 0.529292 0.9973136
vt 0.529292 0.0012092683
vt 0.41539186 0.9973136
vt 0.41539186 0.0012092683
vt 0.286785 0.9973136
vt 0.286785 0.0012092683
vt 0.14896208 0.9973136
vt 0.14896208 0.0012092683
vt 0.008890331 0.0012092683
vt 0.008890331 0.9973136
vt 0.9975591 0.0012092683
vt 0.9975591 0.9973136
vt 0.8822396 0.9973136
vt 0.8822396 0.0012092683
vt 0.7828522 0.9973136
vt 0.7828522 0.0012092683
vt 0.6832367 0.9973136
vt 0.6832367 0.0012092683
vt 0.57887644 0.9973136
vt 0.57887644 0.0012092683
vt 0.46869594 0.9973136
vt 0.46869594 0.0012092683
vt 0.35415924 0.9973136
vt 0.35415924 0.0012092683
vt 0.23680383 0.9973136
vt 0.23680383 0.0012092683
vt 0.122335315 0.9973136
vt 0.122335315 0.0012092683
vt 0.008890331 0.0012092683
vt 0.008890331 0.9973136
vt 0.9975591 0.9973136
vt 0.9975591 0.0012092683
vt 0.9040671 0.0012092683
vt 0.9040671 0.9973136
vt 0.80371636 0.0012092683
vt 0.80371636 0.9973136
vt 0.70010257 0.0012092683
vt 0.70010257 0.9973136
vt 0.59508234 0.0012092683
vt 0.59508234 0.9973136
vt 0.48951268 0.0012092683
vt 0.48951268 0.9973136
vt 0.38258523 0.0012092683
vt 0.38258523 0.9973136
vt 0.2712974 0.0012092683
vt 0.2712974 0.9973136
vt 0.14454967 0.0012092683
vt 0.14454967 0.9973136
vt 0.008890331 0.0012092683
vt 0.008890331 0.9973136
vt 0.9975591 0.9973136
vt 0.9975591 0.0012092683
vt 0.915393 0.0012092683
vt 0.915393 0.9973136
vt 0.8220674 0.0012092683
vt 0.8220674 0.9973136
vt 0.7266388 0.0012092683
vt 0.7266388 0.9973136
vt 0.63029903 0.0012092683
vt 0.63029903 0.9973136
vt 0.5276307 0.0012092683
vt 0.5276307 0.9973136
vt 0.41617203 0.0012092683
vt 0.41617203 0.9973136
vt 0.29517764 0.0012092683
vt 0.29517764 0.9973136
vt 0.16400433 0.0012092683
vt 0.16400433 0.9973136
vt 0.008890331 0.0012092683
vt 0.008890331 0.9973136
vn -0 0 -1
vn -0 0 -1
vn -0 0 -1
vn -0 0 -1
vn -0 0 -1
vn -0 0 -1
vn -0 0 -1
vn -0 0 -1
vn -0 0 -1
vn -0 0 -1
vn -0 0 -1
vn -0 0 -1
vn -0 0 -1
vn -0 0 -1
vn -0 0 -1
vn -0 0 -1
vn -0 0 -1
vn -0 0 -1
vn -0 0 -1
vn -0 0 -1
vn -0 0 -1
vn -0 0 -1
vn -0 0 -1
vn -0 0 -1
vn -0 0 -1
vn -0 0 -1
vn -0 0 -1
vn -0 0 -1
vn -0 0 -1
vn -0 0 -1
vn -0 0 -1
vn -0 0 -1
vn -0 0 -1
vn -0 0 -1
vn -0 0 -1
vn -0 0 -1
vn -0 0 -1
vn -0 0 -1
vn -0 0 -1
vn -0 0 -1
vn -0 0 -1
vn -0 0 -1
vn -0 0 -1
vn -0 0 -1
vn -0 0 -1
vn -0 0 -1
vn -0 0 -1
vn -0 0 -1
vn -0 0 -1
vn -0 0 -1
vn -0 0 -1
vn -0 0 -1
vn -0 0 -1
vn -0 0 -1
vn -0 0 -1
vn -0 0 -1
vn -0 0 -1
vn -0 0 -1
vn -0 0 -1
vn -0 0 -1
vn -0 0 -1
vn -0 0 -1
vn -0 0 -1
vn -0 0 -1
vn -0 0 -1
vn -0 0 -1
vn -0 0 -1
vn -0 0 -1
vn -0 0 -1
vn -0 0 -1
vn -0 0 -1
vn -0 0 -1
vn -0 0 -1
vn -0 0 -1
vn -0 0 -1
vn -0 0 -1
vn -0 0 -1
vn -0 0 -1
vn -0 0 -1
vn -0 0 -1
vn -1.696466E-07 0 -1
vn -1.696466E-07 0 -1
vn -1.4337635E-07 0 -1
vn -1.4337692E-07 0 -1
vn -0 0 -1
vn -0 0 -1
vn -0 0 -1
vn -0 0 -1
vn -0 0 -1
vn -0 0 -1
vn -0 0 -1
vn -0 0 -1
vn -0 -1.002068E-07 -1
vn -0 -1.0020686E-07 -1
vn -0 -1.101099E-07 -1
vn -0 -1.10109916E-07 -1
vn -0 -1.1583874E-07 -1
vn -0 -1.1583873E-07 -1
vn -0 -1.17712815E-07 -1
vn -0 -1.1771282E-07 -1
vn -0 0 -1
vn -0 0 -1
vn -0 0 -1
vn -0 0 -1
vn -0 0 -1
vn -0 0 -1
vn -0 0 -1
vn -0 0 -1
vn -0 0 -1
vn -0 0 -1
vn -0 0 -1
vn -0 0 -1
vn -0 0 -1
vn -0 0 -1
vn -0 0 -1
vn -0 0 -1
vn -0 0 -1
vn -0 0 -1
vn -0 0 -1
vn -0 0 -1
vn -0 0 -1
vn -0 0 -1
vn -0 0 -1
vn -0 0 -1
vn -0 0 -1
vn -0 0 -1
vn -0 0 -1
vn -0 0 -1
vn -0 0 -1
vn -0 0 -1
vn -0 0 -1
vn -0 0 -1
vn -0 0 -1
vn -0 0 -1
vn -0 0 -1
vn -0 0 -1
vn -0 0 -1
vn -0 0 -1
vn -0 0 -1
vn -0 0 -1
vn -0 0 -1
vn -0 0 -1
vn -0 0 -1
vn -0 0 -1
vn -0 0 -1
vn -0 0 -1
vn -0 0 -1
vn -0 0 -1
vn -0 0 -1
vn -0 0 -1
vn -0 0 -1
vn -0 0 -1
vn -0 0 -1
vn -0 0 -1
vn -0 0 -1
vn -0 0 -1
vn -0 0 -1
vn -0 0 -1
vn -0 0 -1
vn -0 0 -1
g FX_Firework_052_0
f 3/3/3 2/2/2 1/1/1
f 4/4/4 3/3/3 1/1/1
f 5/5/5 3/3/3 4/4/4
f 6/6/6 5/5/5 4/4/4
f 7/7/7 5/5/5 6/6/6
f 8/8/8 7/7/7 6/6/6
f 9/9/9 7/7/7 8/8/8
f 10/10/10 9/9/9 8/8/8
f 11/11/11 9/9/9 10/10/10
f 12/12/12 11/11/11 10/10/10
f 13/13/13 11/11/11 12/12/12
f 14/14/14 13/13/13 12/12/12
f 15/15/15 13/13/13 14/14/14
f 16/16/16 15/15/15 14/14/14
f 17/17/17 15/15/15 16/16/16
f 18/18/18 17/17/17 16/16/16
f 18/18/18 19/19/19 17/17/17
f 19/19/19 20/20/20 17/17/17
f 23/23/23 22/22/22 21/21/21
f 24/24/24 23/23/23 21/21/21
f 25/25/25 23/23/23 24/24/24
f 26/26/26 25/25/25 24/24/24
f 27/27/27 25/25/25 26/26/26
f 28/28/28 27/27/27 26/26/26
f 29/29/29 27/27/27 28/28/28
f 30/30/30 29/29/29 28/28/28
f 31/31/31 29/29/29 30/30/30
f 32/32/32 31/31/31 30/30/30
f 33/33/33 31/31/31 32/32/32
f 34/34/34 33/33/33 32/32/32
f 35/35/35 33/33/33 34/34/34
f 36/36/36 35/35/35 34/34/34
f 37/37/37 35/35/35 36/36/36
f 38/38/38 37/37/37 36/36/36
f 38/38/38 39/39/39 37/37/37
f 39/39/39 40/40/40 37/37/37
f 43/43/43 42/42/42 41/41/41
f 44/44/44 43/43/43 41/41/41
f 45/45/45 43/43/43 44/44/44
f 46/46/46 45/45/45 44/44/44
f 47/47/47 45/45/45 46/46/46
f 48/48/48 47/47/47 46/46/46
f 49/49/49 47/47/47 48/48/48
f 50/50/50 49/49/49 48/48/48
f 51/51/51 49/49/49 50/50/50
f 52/52/52 51/51/51 50/50/50
f 53/53/53 51/51/51 52/52/52
f 54/54/54 53/53/53 52/52/52
f 55/55/55 53/53/53 54/54/54
f 56/56/56 55/55/55 54/54/54
f 57/57/57 55/55/55 56/56/56
f 58/58/58 57/57/57 56/56/56
f 58/58/58 59/59/59 57/57/57
f 59/59/59 60/60/60 57/57/57
f 63/63/63 62/62/62 61/61/61
f 64/64/64 63/63/63 61/61/61
f 65/65/65 63/63/63 64/64/64
f 66/66/66 65/65/65 64/64/64
f 67/67/67 65/65/65 66/66/66
f 68/68/68 67/67/67 66/66/66
f 69/69/69 67/67/67 68/68/68
f 70/70/70 69/69/69 68/68/68
f 71/71/71 69/69/69 70/70/70
f 72/72/72 71/71/71 70/70/70
f 73/73/73 71/71/71 72/72/72
f 74/74/74 73/73/73 72/72/72
f 75/75/75 73/73/73 74/74/74
f 76/76/76 75/75/75 74/74/74
f 77/77/77 75/75/75 76/76/76
f 78/78/78 77/77/77 76/76/76
f 77/77/77 78/78/78 79/79/79
f 78/78/78 80/80/80 79/79/79
f 83/83/83 82/82/82 81/81/81
f 84/84/84 83/83/83 81/81/81
f 85/85/85 83/83/83 84/84/84
f 86/86/86 85/85/85 84/84/84
f 87/87/87 85/85/85 86/86/86
f 88/88/88 87/87/87 86/86/86
f 89/89/89 87/87/87 88/88/88
f 90/90/90 89/89/89 88/88/88
f 91/91/91 89/89/89 90/90/90
f 92/92/92 91/91/91 90/90/90
f 93/93/93 91/91/91 92/92/92
f 94/94/94 93/93/93 92/92/92
f 95/95/95 93/93/93 94/94/94
f 96/96/96 95/95/95 94/94/94
f 97/97/97 95/95/95 96/96/96
f 98/98/98 97/97/97 96/96/96
f 98/98/98 99/99/99 97/97/97
f 99/99/99 100/100/100 97/97/97
f 103/103/103 102/102/102 101/101/101
f 104/104/104 103/103/103 101/101/101
f 105/105/105 103/103/103 104/104/104
f 106/106/106 105/105/105 104/104/104
f 107/107/107 105/105/105 106/106/106
f 108/108/108 107/107/107 106/106/106
f 109/109/109 107/107/107 108/108/108
f 110/110/110 109/109/109 108/108/108
f 111/111/111 109/109/109 110/110/110
f 112/112/112 111/111/111 110/110/110
f 113/113/113 111/111/111 112/112/112
f 114/114/114 113/113/113 112/112/112
f 115/115/115 113/113/113 114/114/114
f 116/116/116 115/115/115 114/114/114
f 117/117/117 115/115/115 116/116/116
f 118/118/118 117/117/117 116/116/116
f 118/118/118 119/119/119 117/117/117
f 119/119/119 120/120/120 117/117/117
f 123/123/123 122/122/122 121/121/121
f 124/124/124 123/123/123 121/121/121
f 125/125/125 123/123/123 124/124/124
f 126/126/126 125/125/125 124/124/124
f 127/127/127 125/125/125 126/126/126
f 128/128/128 127/127/127 126/126/126
f 129/129/129 127/127/127 128/128/128
f 130/130/130 129/129/129 128/128/128
f 131/131/131 129/129/129 130/130/130
f 132/132/132 131/131/131 130/130/130
f 133/133/133 131/131/131 132/132/132
f 134/134/134 133/133/133 132/132/132
f 135/135/135 133/133/133 134/134/134
f 136/136/136 135/135/135 134/134/134
f 137/137/137 135/135/135 136/136/136
f 138/138/138 137/137/137 136/136/136
f 137/137/137 138/138/138 139/139/139
f 138/138/138 140/140/140 139/139/139
f 143/143/143 142/142/142 141/141/141
f 144/144/144 143/143/143 141/141/141
f 145/145/145 143/143/143 144/144/144
f 146/146/146 145/145/145 144/144/144
f 147/147/147 145/145/145 146/146/146
f 148/148/148 147/147/147 146/146/146
f 149/149/149 147/147/147 148/148/148
f 150/150/150 149/149/149 148/148/148
f 151/151/151 149/149/149 150/150/150
f 152/152/152 151/151/151 150/150/150
f 153/153/153 151/151/151 152/152/152
f 154/154/154 153/153/153 152/152/152
f 155/155/155 153/153/153 154/154/154
f 156/156/156 155/155/155 154/154/154
f 157/157/157 155/155/155 156/156/156
f 158/158/158 157/157/157 156/156/156
f 157/157/157 158/158/158 159/159/159
f 158/158/158 160/160/160 159/159/159
