g FX_Firework_03
v -0.46670654 0.11757385 -7.339184E-07
v 0.46670288 -0.11757507 -7.654037E-07
v 1.492594 3.954638 -7.041838E-07
v 0.5661273 4.2173457 -6.5412894E-07
v 2.5951123 7.4464574 -7.4536086E-07
v 1.68862 7.772428 -6.56849E-07
v 3.7847142 10.386002 -8.5458737E-07
v 2.9114788 10.794149 -7.2073874E-07
v 5.0673814 12.79129 -1.0038716E-06
v 4.2498536 13.303904 -8.18114E-07
v 6.447013 14.682674 -1.1633118E-06
v 5.721042 15.320807 -9.2319414E-07
v 7.927325 16.086246 -1.3051132E-06
v 7.342466 16.858175 -1.0080904E-06
v 9.518491 17.035646 -1.3959483E-06
v 9.125105 17.921827 -1.0504644E-06
v 11.243648 17.564718 -1.4114463E-06
v 11.066981 18.51736 -1.0189808E-06
v 13.112785 18.658962 -8.9661637E-07
v 13.179253 17.698683 -1.3129704E-06
v -0.09877197 -0.91844666 -2.823599E-07
v 0.09877319 0.91844726 1.0897859E-06
v -1.5035254 1.0907617 8.739933E-07
v -1.5107043 -0.7666037 -4.4645245E-07
v -3.739878 0.8677154 7.673728E-07
v -3.4424536 -0.95927215 -4.9982566E-07
v -6.323319 0.28088257 7.642858E-07
v -5.8237925 -1.500197 -4.7495516E-07
v -9.112842 -0.6544037 8.3587616E-07
v -8.438533 -2.3768792 -3.8109596E-07
v -11.945774 -1.928916 9.583459E-07
v -11.092158 -3.5707288 -2.3256514E-07
v -14.653596 -3.537987 1.1075573E-06
v -13.595993 -5.058581 -4.3336474E-08
v -17.06423 -5.4844007 1.2567208E-06
v -15.764904 -6.8098245 1.7526912E-07
v -18.99539 -7.7814703 1.3718538E-06
v -17.42401 -8.78332 4.1911935E-07
v -20.168903 -10.300084 1.4783104E-06
v -18.494274 -11.080353 6.247486E-07
v 0.81307065 -0.119153745 8.379201E-07
v -0.6512817 0.49140045 1.4109226E-06
v -1.4422216 -1.405596 1.3886903E-06
v 0.051741943 -1.94513 8.601519E-07
v -2.078751 -3.4772978 1.3475709E-06
v -0.54442626 -3.8854723 9.0127196E-07
v -2.5645227 -5.630251 1.3144002E-06
v -1.0062915 -5.9324603 9.344422E-07
v -2.9200745 -7.816566 1.2874872E-06
v -1.3478564 -8.032803 9.613548E-07
v -3.1645923 -9.987853 1.2654601E-06
v -1.5844531 -10.133723 9.833816E-07
v -3.316505 -12.095188 1.2472781E-06
v -1.7321764 -12.182971 1.0015651E-06
v -3.393789 -14.08919 1.2321802E-06
v -1.8075916 -14.128741 1.0166624E-06
v -3.414154 -15.920108 1.219648E-06
v -1.827511 -15.919621 1.0291964E-06
v -1.8088158 -17.511877 1.0348743E-06
v -3.3952453 -17.530504 1.2139669E-06
v -0.17637451 0.6193512 1.0841769E-06
v 0.3381622 -0.63734895 2.6914196E-07
v 1.8451141 -0.02034851 2.2823805E-07
v 1.5878998 1.3417083 1.1234058E-06
v 3.2554302 -0.041960448 2.2502124E-07
v 3.504591 1.31234 1.1212617E-06
v 4.7291856 -0.5775583 2.7117602E-07
v 5.3421526 0.64452577 1.0655534E-06
v 6.2300487 -1.5634686 3.2220674E-07
v 7.0654516 -0.48750272 1.0002731E-06
v 7.695053 -2.8989794 3.6239018E-07
v 8.665987 -1.9465655 9.406378E-07
v 9.068884 -4.4655766 3.9020318E-07
v 10.1276045 -3.6132674 8.876662E-07
v 10.304903 -6.1407304 4.0920824E-07
v 11.425471 -5.37224 8.372912E-07
v 11.361079 -7.801128 4.2199807E-07
v 12.530156 -7.1088953 7.8641335E-07
v 13.398793 -8.688952 7.4758367E-07
v 12.208803 -9.343144 4.1551937E-07
vt 0.9975591 0.9973136
vt 0.9975591 0.0012092683
vt 0.8432256 0.0012092683
vt 0.8432256 0.9973136
vt 0.7064596 0.0012092683
vt 0.7064596 0.9973136
vt 0.57674193 0.0012092683
vt 0.57674193 0.9973136
vt 0.4531747 0.0012092683
vt 0.4531747 0.9973136
vt 0.34215963 0.0012092683
vt 0.34215963 0.9973136
vt 0.24878275 0.0012092683
vt 0.24878275 0.9973136
vt 0.17119706 0.0012092683
vt 0.17119706 0.9973136
vt 0.089666545 0.0012092683
vt 0.089666545 0.9973136
vt 0.008890331 0.9973136
vt 0.008890331 0.0012092683
vt 0.9975591 0.9973136
vt 0.9975591 0.0012092683
vt 0.91206706 0.0012092683
vt 0.91206706 0.9973136
vt 0.81779146 0.0012092683
vt 0.81779146 0.9973136
vt 0.7293526 0.0012092683
vt 0.7293526 0.9973136
vt 0.63203514 0.0012092683
vt 0.63203514 0.9973136
vt 0.5185497 0.0012092683
vt 0.5185497 0.9973136
vt 0.39273918 0.0012092683
vt 0.39273918 0.9973136
vt 0.26207966 0.0012092683
vt 0.26207966 0.9973136
vt 0.13426328 0.0012092683
vt 0.13426328 0.9973136
vt 0.008890331 0.0012092683
vt 0.008890331 0.9973136
vt 0.9975591 0.0012092683
vt 0.9975591 0.9973136
vt 0.8914502 0.9973136
vt 0.8914502 0.0012092683
vt 0.7819505 0.9973136
vt 0.7819505 0.0012092683
vt 0.66504234 0.9973136
vt 0.66504234 0.0012092683
vt 0.5465404 0.9973136
vt 0.5465404 0.0012092683
vt 0.42839456 0.9973136
vt 0.42839456 0.0012092683
vt 0.3128209 0.9973136
vt 0.3128209 0.0012092683
vt 0.2022146 0.9973136
vt 0.2022146 0.0012092683
vt 0.0990985 0.9973136
vt 0.0990985 0.0012092683
vt 0.008890331 0.0012092683
vt 0.008890331 0.9973136
vt 0.9975591 0.0012092683
vt 0.9975591 0.9973136
vt 0.87864375 0.9973136
vt 0.87864375 0.0012092683
vt 0.78611344 0.9973136
vt 0.78611344 0.0012092683
vt 0.6862694 0.9973136
vt 0.6862694 0.0012092683
vt 0.5756809 0.9973136
vt 0.5756809 0.0012092683
vt 0.45721996 0.9973136
vt 0.45721996 0.0012092683
vt 0.3359217 0.9973136
vt 0.3359217 0.0012092683
vt 0.21763945 0.9973136
vt 0.21763945 0.0012092683
vt 0.110798836 0.9973136
vt 0.110798836 0.0012092683
vt 0.008890331 0.0012092683
vt 0.008890331 0.9973136
vn -0 0 -1
vn -0 0 -1
vn -0 0 -1
vn -0 0 -1
vn -0 0 -1
vn -0 0 -1
vn -0 0 -1
vn -0 0 -1
vn -0 0 -1
vn -0 0 -1
vn -0 0 -1
vn -0 0 -1
vn -0 0 -1
vn -0 0 -1
vn -0 0 -1
vn -0 0 -1
vn -0 0 -1
vn -0 0 -1
vn -0 0 -1
vn -0 0 -1
vn 1.2927885E-07 0 -1
vn 1.2927885E-07 0 -1
vn -0 0 -1
vn -0 0 -1
vn -0 0 -1
vn -0 0 -1
vn -0 0 -1
vn -0 0 -1
vn -0 0 -1
vn -0 0 -1
vn -0 0 -1
vn -0 0 -1
vn -0 0 -1
vn -0 0 -1
vn -0 0 -1
vn -0 0 -1
vn -0 0 -1
vn -0 0 -1
vn -0 0 -1
vn -0 0 -1
vn -0 0 -1
vn -0 0 -1
vn -0 0 -1
vn -0 0 -1
vn -0 0 -1
vn -0 0 -1
vn -0 0 -1
vn -0 0 -1
vn -0 0 -1
vn -0 0 -1
vn -0 0 -1
vn -0 0 -1
vn -0 0 -1
vn -0 0 -1
vn -0 0 -1
vn -0 0 -1
vn -0 0 -1
vn -0 0 -1
vn -0 0 -1
vn -0 0 -1
vn -0 0 -1
vn -0 0 -1
vn -0 0 -1
vn -0 0 -1
vn -0 0 -1
vn -0 0 -1
vn -0 0 -1
vn -0 0 -1
vn -0 0 -1
vn -0 0 -1
vn -0 0 -1
vn -0 0 -1
vn -0 0 -1
vn -0 0 -1
vn -0 0 -1
vn -0 0 -1
vn -0 0 -1
vn -0 0 -1
vn -0 0 -1
vn -0 0 -1
g FX_Firework_03_0
f 3/3/3 2/2/2 1/1/1
f 4/4/4 3/3/3 1/1/1
f 5/5/5 3/3/3 4/4/4
f 6/6/6 5/5/5 4/4/4
f 7/7/7 5/5/5 6/6/6
f 8/8/8 7/7/7 6/6/6
f 9/9/9 7/7/7 8/8/8
f 10/10/10 9/9/9 8/8/8
f 11/11/11 9/9/9 10/10/10
f 12/12/12 11/11/11 10/10/10
f 13/13/13 11/11/11 12/12/12
f 14/14/14 13/13/13 12/12/12
f 15/15/15 13/13/13 14/14/14
f 16/16/16 15/15/15 14/14/14
f 17/17/17 15/15/15 16/16/16
f 18/18/18 17/17/17 16/16/16
f 18/18/18 19/19/19 17/17/17
f 19/19/19 20/20/20 17/17/17
f 23/23/23 22/22/22 21/21/21
f 24/24/24 23/23/23 21/21/21
f 25/25/25 23/23/23 24/24/24
f 26/26/26 25/25/25 24/24/24
f 27/27/27 25/25/25 26/26/26
f 28/28/28 27/27/27 26/26/26
f 29/29/29 27/27/27 28/28/28
f 30/30/30 29/29/29 28/28/28
f 31/31/31 29/29/29 30/30/30
f 32/32/32 31/31/31 30/30/30
f 33/33/33 31/31/31 32/32/32
f 34/34/34 33/33/33 32/32/32
f 35/35/35 33/33/33 34/34/34
f 36/36/36 35/35/35 34/34/34
f 37/37/37 35/35/35 36/36/36
f 38/38/38 37/37/37 36/36/36
f 37/37/37 38/38/38 39/39/39
f 38/38/38 40/40/40 39/39/39
f 43/43/43 42/42/42 41/41/41
f 44/44/44 43/43/43 41/41/41
f 45/45/45 43/43/43 44/44/44
f 46/46/46 45/45/45 44/44/44
f 47/47/47 45/45/45 46/46/46
f 48/48/48 47/47/47 46/46/46
f 49/49/49 47/47/47 48/48/48
f 50/50/50 49/49/49 48/48/48
f 51/51/51 49/49/49 50/50/50
f 52/52/52 51/51/51 50/50/50
f 53/53/53 51/51/51 52/52/52
f 54/54/54 53/53/53 52/52/52
f 55/55/55 53/53/53 54/54/54
f 56/56/56 55/55/55 54/54/54
f 57/57/57 55/55/55 56/56/56
f 58/58/58 57/57/57 56/56/56
f 58/58/58 59/59/59 57/57/57
f 59/59/59 60/60/60 57/57/57
f 63/63/63 62/62/62 61/61/61
f 64/64/64 63/63/63 61/61/61
f 65/65/65 63/63/63 64/64/64
f 66/66/66 65/65/65 64/64/64
f 67/67/67 65/65/65 66/66/66
f 68/68/68 67/67/67 66/66/66
f 69/69/69 67/67/67 68/68/68
f 70/70/70 69/69/69 68/68/68
f 71/71/71 69/69/69 70/70/70
f 72/72/72 71/71/71 70/70/70
f 73/73/73 71/71/71 72/72/72
f 74/74/74 73/73/73 72/72/72
f 75/75/75 73/73/73 74/74/74
f 76/76/76 75/75/75 74/74/74
f 77/77/77 75/75/75 76/76/76
f 78/78/78 77/77/77 76/76/76
f 78/78/78 79/79/79 77/77/77
f 79/79/79 80/80/80 77/77/77
