g FX_Firework_04
v -0.71703243 0.49106443 2.334432E-07
v 0.7170337 -0.49106506 -2.0533508E-07
v 2.6683154 2.3581214 -2.6337648E-07
v 1.3052588 3.4439373 2.4407163E-07
v 4.788427 4.6575503 -3.837297E-07
v 3.5998852 5.9326425 2.3838143E-07
v 7.04182 6.4597473 -5.2027855E-07
v 6.0653443 7.9044433 1.9454593E-07
v 9.358309 7.768133 -6.590264E-07
v 8.634774 9.355693 1.2285564E-07
v 11.667037 8.587677 -7.852657E-07
v 11.242002 10.281201 3.2894167E-08
v 13.897605 8.9263935 -8.795825E-07
v 13.820375 10.6727295 -7.0464445E-08
v 15.983195 8.79628 -9.306168E-07
v 16.29967 10.518058 -1.7428435E-07
v 17.866053 8.211221 -9.19329E-07
v 18.6006 9.803094 -2.7331944E-07
v 20.530277 8.584161 -3.1107513E-07
v 19.602024 7.1146483 -8.779301E-07
v -0.38726196 0.28496885 -1.058577E-06
v 0.9880798 0.3144464 -7.7277537E-07
v 0.9265088 3.1873095 -6.0929943E-07
v -0.4491748 3.1736536 -8.762699E-07
v 0.93061036 5.7942114 -5.303659E-07
v -0.44501707 5.814112 -7.6024503E-07
v 0.99507993 8.150496 -5.1540206E-07
v -0.37951416 8.208187 -7.066078E-07
v 1.1146935 10.264276 -5.523891E-07
v -0.2574707 10.364936 -7.0291117E-07
v 1.2841253 12.143508 -6.292811E-07
v -0.08358398 12.293571 -7.367258E-07
v 1.4978698 13.795933 -7.339239E-07
v 0.13760498 14.003537 -7.9574454E-07
v 1.7501501 15.228967 -8.5526466E-07
v 0.40185913 15.504587 -8.665524E-07
v 2.0346825 16.44961 -9.820632E-07
v 0.7054321 16.806902 -9.359167E-07
v 1.0369946 17.893497 -1.0089086E-06
v 2.3527598 17.492008 -1.0847929E-06
v -0.58900875 -0.61188966 -7.8097287E-07
v 0.94592285 0.2036505 -5.659967E-09
v -0.14187378 2.251007 1.04341886E-07
v -1.6235168 1.3351672 -7.494383E-07
v -1.5041882 4.1636157 2.2941141E-07
v -2.854198 3.0629637 -7.647638E-07
v -3.0668676 5.8440723 3.3256413E-07
v -4.2580395 4.5726123 -7.8872745E-07
v -4.787057 7.2463326 4.1602672E-07
v -5.7807345 5.8138795 -8.2232185E-07
v -6.625354 8.321051 4.7932616E-07
v -7.364546 6.739819 -8.638337E-07
v -8.544652 9.011995 5.1667143E-07
v -8.949423 7.3103757 -9.062417E-07
v -10.503484 9.251195 5.1355556E-07
v -10.479682 7.4972396 -9.337984E-07
v -12.439629 8.961266 4.4910243E-07
v -11.920403 7.2815 -9.243931E-07
v -14.14249 8.13675 3.5918316E-07
v -13.38501 6.5723495 -9.12665E-07
v 0.380968 -0.36728606 6.8758055E-07
v -0.38097045 0.3672836 1.8827908E-06
v -1.9420458 -1.2519543 1.8613038E-06
v -1.1604577 -1.9661478 6.9595393E-07
v -3.4791405 -3.0271776 1.8364793E-06
v -2.6606836 -3.6987894 7.323374E-07
v -4.969333 -4.9445963 1.8179362E-06
v -4.1164856 -5.571957 7.7640976E-07
v -6.399637 -7.0007815 1.7999728E-06
v -5.5147104 -7.582026 8.2316024E-07
v -7.757025 -9.192314 1.7766087E-06
v -6.8422556 -9.725377 8.678685E-07
v -9.028405 -11.515754 1.7422105E-06
v -8.086051 -11.998406 9.0545393E-07
v -10.200671 -13.967628 1.6910955E-06
v -9.233103 -14.397541 9.30898E-07
v -11.260659 -16.544432 1.6177445E-06
v -10.27042 -16.91924 9.390076E-07
v -12.190131 -19.228119 1.5383139E-06
v -11.190048 -19.574503 9.0292014E-07
vt 0.9975591 0.9973136
vt 0.9975591 0.0012092683
vt 0.86252916 0.0012092683
vt 0.86252916 0.9973136
vt 0.7313905 0.0012092683
vt 0.7313905 0.9973136
vt 0.60374963 0.0012092683
vt 0.60374963 0.9973136
vt 0.4808159 0.0012092683
vt 0.4808159 0.9973136
vt 0.36452514 0.0012092683
vt 0.36452514 0.9973136
vt 0.25868505 0.0012092683
vt 0.25868505 0.9973136
vt 0.16321725 0.0012092683
vt 0.16321725 0.9973136
vt 0.08201635 0.0012092683
vt 0.08201635 0.9973136
vt 0.008890331 0.9973136
vt 0.008890331 0.0012092683
vt 0.9975591 0.9973136
vt 0.9975591 0.0012092683
vt 0.8181366 0.0012092683
vt 0.8181366 0.9973136
vt 0.6858754 0.0012092683
vt 0.6858754 0.9973136
vt 0.57341015 0.0012092683
vt 0.57341015 0.9973136
vt 0.46949166 0.0012092683
vt 0.46949166 0.9973136
vt 0.36759818 0.0012092683
vt 0.36759818 0.9973136
vt 0.26666355 0.0012092683
vt 0.26666355 0.9973136
vt 0.16917789 0.0012092683
vt 0.16917789 0.9973136
vt 0.08374888 0.0012092683
vt 0.08374888 0.9973136
vt 0.008890331 0.9973136
vt 0.008890331 0.0012092683
vt 0.9975591 0.9973136
vt 0.9975591 0.0012092683
vt 0.87249684 0.0012092683
vt 0.87249684 0.9973136
vt 0.7500279 0.0012092683
vt 0.7500279 0.9973136
vt 0.6343653 0.0012092683
vt 0.6343653 0.9973136
vt 0.5260734 0.0012092683
vt 0.5260734 0.9973136
vt 0.4252438 0.0012092683
vt 0.4252438 0.9973136
vt 0.33073324 0.0012092683
vt 0.33073324 0.9973136
vt 0.23910421 0.0012092683
vt 0.23910421 0.9973136
vt 0.1339125 0.0012092683
vt 0.1339125 0.9973136
vt 0.008890331 0.0012092683
vt 0.008890331 0.9973136
vt 0.9975591 0.0012092683
vt 0.9975591 0.9973136
vt 0.9007014 0.9973136
vt 0.9007014 0.0012092683
vt 0.8027788 0.9973136
vt 0.8027788 0.0012092683
vt 0.69980776 0.9973136
vt 0.69980776 0.0012092683
vt 0.5934125 0.9973136
vt 0.5934125 0.0012092683
vt 0.48394555 0.9973136
vt 0.48394555 0.0012092683
vt 0.37167776 0.9973136
vt 0.37167776 0.0012092683
vt 0.25649166 0.9973136
vt 0.25649166 0.0012092683
vt 0.13764983 0.9973136
vt 0.13764983 0.0012092683
vt 0.008890331 0.9973136
vt 0.008890331 0.0012092683
vn -0 0 -1
vn -0 0 -1
vn -0 0 -1
vn -0 0 -1
vn -0 0 -1
vn -0 0 -1
vn -0 0 -1
vn -0 0 -1
vn -0 0 -1
vn -0 0 -1
vn -0 0 -1
vn -0 0 -1
vn -0 0 -1
vn -0 0 -1
vn -0 0 -1
vn -0 0 -1
vn -0 0 -1
vn -0 0 -1
vn -0 0 -1
vn -0 0 -1
vn -0 0 -1
vn -0 0 -1
vn -0 0 -1
vn -0 0 -1
vn -0 0 -1
vn -0 0 -1
vn -0 0 -1
vn -0 0 -1
vn -0 0 -1
vn -0 0 -1
vn -0 0 -1
vn -0 0 -1
vn -0 0 -1
vn -0 0 -1
vn -0 0 -1
vn -0 0 -1
vn -0 0 -1
vn -0 0 -1
vn -0 0 -1
vn -0 0 -1
vn -0 0 -1
vn -0 0 -1
vn -0 0 -1
vn -0 0 -1
vn -0 0 -1
vn -0 0 -1
vn -0 0 -1
vn -0 0 -1
vn -0 0 -1
vn -0 0 -1
vn -0 0 -1
vn -0 0 -1
vn -0 0 -1
vn -0 0 -1
vn -0 0 -1
vn -0 0 -1
vn -0 0 -1
vn -0 0 -1
vn -0 0 -1
vn -0 0 -1
vn -0 0 -1
vn -0 0 -1
vn -0 0 -1
vn -0 0 -1
vn -0 0 -1
vn -0 0 -1
vn -0 0 -1
vn -0 0 -1
vn -0 0 -1
vn -0 0 -1
vn -0 0 -1
vn -0 0 -1
vn -0 0 -1
vn -0 0 -1
vn -0 0 -1
vn -0 0 -1
vn -0 0 -1
vn -0 0 -1
vn -0 0 -1
vn -0 0 -1
g FX_Firework_04_0
f 3/3/3 2/2/2 1/1/1
f 4/4/4 3/3/3 1/1/1
f 5/5/5 3/3/3 4/4/4
f 6/6/6 5/5/5 4/4/4
f 7/7/7 5/5/5 6/6/6
f 8/8/8 7/7/7 6/6/6
f 9/9/9 7/7/7 8/8/8
f 10/10/10 9/9/9 8/8/8
f 11/11/11 9/9/9 10/10/10
f 12/12/12 11/11/11 10/10/10
f 13/13/13 11/11/11 12/12/12
f 14/14/14 13/13/13 12/12/12
f 15/15/15 13/13/13 14/14/14
f 16/16/16 15/15/15 14/14/14
f 17/17/17 15/15/15 16/16/16
f 18/18/18 17/17/17 16/16/16
f 18/18/18 19/19/19 17/17/17
f 19/19/19 20/20/20 17/17/17
f 23/23/23 22/22/22 21/21/21
f 24/24/24 23/23/23 21/21/21
f 25/25/25 23/23/23 24/24/24
f 26/26/26 25/25/25 24/24/24
f 27/27/27 25/25/25 26/26/26
f 28/28/28 27/27/27 26/26/26
f 29/29/29 27/27/27 28/28/28
f 30/30/30 29/29/29 28/28/28
f 31/31/31 29/29/29 30/30/30
f 32/32/32 31/31/31 30/30/30
f 33/33/33 31/31/31 32/32/32
f 34/34/34 33/33/33 32/32/32
f 35/35/35 33/33/33 34/34/34
f 36/36/36 35/35/35 34/34/34
f 37/37/37 35/35/35 36/36/36
f 38/38/38 37/37/37 36/36/36
f 38/38/38 39/39/39 37/37/37
f 39/39/39 40/40/40 37/37/37
f 43/43/43 42/42/42 41/41/41
f 44/44/44 43/43/43 41/41/41
f 45/45/45 43/43/43 44/44/44
f 46/46/46 45/45/45 44/44/44
f 47/47/47 45/45/45 46/46/46
f 48/48/48 47/47/47 46/46/46
f 49/49/49 47/47/47 48/48/48
f 50/50/50 49/49/49 48/48/48
f 51/51/51 49/49/49 50/50/50
f 52/52/52 51/51/51 50/50/50
f 53/53/53 51/51/51 52/52/52
f 54/54/54 53/53/53 52/52/52
f 55/55/55 53/53/53 54/54/54
f 56/56/56 55/55/55 54/54/54
f 57/57/57 55/55/55 56/56/56
f 58/58/58 57/57/57 56/56/56
f 57/57/57 58/58/58 59/59/59
f 58/58/58 60/60/60 59/59/59
f 63/63/63 62/62/62 61/61/61
f 64/64/64 63/63/63 61/61/61
f 65/65/65 63/63/63 64/64/64
f 66/66/66 65/65/65 64/64/64
f 67/67/67 65/65/65 66/66/66
f 68/68/68 67/67/67 66/66/66
f 69/69/69 67/67/67 68/68/68
f 70/70/70 69/69/69 68/68/68
f 71/71/71 69/69/69 70/70/70
f 72/72/72 71/71/71 70/70/70
f 73/73/73 71/71/71 72/72/72
f 74/74/74 73/73/73 72/72/72
f 75/75/75 73/73/73 74/74/74
f 76/76/76 75/75/75 74/74/74
f 77/77/77 75/75/75 76/76/76
f 78/78/78 77/77/77 76/76/76
f 77/77/77 78/78/78 79/79/79
f 78/78/78 80/80/80 79/79/79
