g FX_Line_7
v -14.9015 12.717137 -7.200907E-07
v -14.88826 12.828422 -7.23118E-07
v -13.527144 12.331116 -7.814376E-07
v -13.540996 12.220055 -7.783843E-07
v -12.060956 11.780954 -8.3351784E-07
v -12.076604 11.670568 -8.303998E-07
v -10.509767 11.168699 -8.7826334E-07
v -10.528288 11.059448 -8.750602E-07
v -8.89366 10.485099 -9.1457963E-07
v -8.916002 10.377464 -9.112882E-07
v -7.2326913 9.720888 -9.413737E-07
v -7.2597213 9.615411 -9.380039E-07
v -5.5469055 8.866784 -9.575532E-07
v -5.5794373 8.764094 -9.541275E-07
v -3.8563406 7.91349 -9.620255E-07
v -3.8951418 7.814334 -9.585794E-07
v -2.1810455 6.8516965 -9.536967E-07
v -2.2268224 6.756963 -9.5028116E-07
v -0.5410803 5.672091 -9.314723E-07
v -0.59445435 5.582821 -9.2815475E-07
v 1.043468 4.3653574 -8.942447E-07
v 0.9820178 4.282748 -8.9113564E-07
v 2.5524852 2.9221883 -8.4093983E-07
v 2.482672 2.8475761 -8.381254E-07
v 3.9658215 1.333302 -7.7045337E-07
v 3.887628 1.2681106 -7.6805617E-07
v 5.2632957 -0.41054228 -6.8169334E-07
v 5.1770287 -0.4648825 -6.798475E-07
v 6.4247108 -2.3185244 -5.7357204E-07
v 6.3310385 -2.3606992 -5.724148E-07
v 7.4298778 -4.39976 -4.4500788E-07
v 7.3298144 -4.4286995 -4.4466748E-07
v 8.257367 -6.659819 -2.9515564E-07
v 8.15475 -6.681787 -2.952781E-07
v -22.115011 -3.1165175 8.9624587E-07
v -22.111408 -3.0412722 8.9499605E-07
v -20.996037 -3.0882692 8.1734686E-07
v -21.000824 -3.163464 8.186794E-07
v -19.84333 -3.1618454 7.427581E-07
v -19.850676 -3.2368777 7.442571E-07
v -18.656687 -3.2675388 6.719275E-07
v -18.666952 -3.3423104 6.7360173E-07
v -17.439009 -3.410909 6.055176E-07
v -17.452532 -3.485297 6.0737017E-07
v -16.193193 -3.5975173 5.441903E-07
v -16.210293 -3.671371 5.4621984E-07
v -14.922147 -3.832925 4.886085E-07
v -14.943115 -3.9060616 4.908079E-07
v -13.628774 -4.1226892 4.394347E-07
v -13.653874 -4.194902 4.417918E-07
v -12.315979 -4.4723763 3.973309E-07
v -12.345442 -4.5434237 3.998286E-07
v -10.986672 -4.8875375 3.6295927E-07
v -11.020693 -4.957163 3.6557586E-07
v -9.6437645 -5.3737354 3.3698265E-07
v -9.682493 -5.4416537 3.3969076E-07
v -8.290171 -5.936515 3.2006227E-07
v -8.333714 -6.0024376 3.228315E-07
v -6.9288044 -6.581439 3.128601E-07
v -6.9772143 -6.645055 3.1565597E-07
v -5.562586 -7.314048 3.1603778E-07
v -5.615861 -7.37505 3.1882232E-07
v -4.194431 -8.139877 3.3025486E-07
v -4.2525144 -8.197977 3.329896E-07
v -2.8272557 -9.06447 3.5617214E-07
v -2.8900409 -9.119393 3.5881794E-07
v -1.4651123 -10.0925045 3.944211E-07
v -1.5301684 -10.145712 3.969955E-07
v -3.3448455 15.018214 0.2148611
v -3.324112 15.104594 0.22176827
v -1.8092462 14.21904 0.36763325
v -1.8367296 14.136607 0.36007616
v -0.28694335 13.234255 -1.478412E-06
v -0.3214447 13.1561775 -1.478412E-06
v 1.1901928 12.150514 -1.4688752E-06
v 1.1491504 12.077235 -1.4664911E-06
v 2.629541 10.968084 -1.4426492E-06
v 2.5820594 10.900099 -1.4426492E-06
v 4.0208097 9.687241 -1.4092706E-06
v 3.9669964 9.62508 -1.4092706E-06
v 5.353694 8.308258 -1.363971E-06
v 5.29369 8.2525015 -1.3663553E-06
v 6.6178904 6.83141 -1.3067506E-06
v 6.551883 6.7826695 -1.3067506E-06
v 7.8030787 5.256975 -1.2376092E-06
v 7.7313046 5.215892 -1.2376092E-06
v 8.898938 3.5852468 -1.1565469E-06
v 8.821722 3.5524676 -1.1613153E-06
v 9.895134 1.8165243 -1.0659478E-06
v 9.812884 1.7926797 -1.0707162E-06
v 10.78134 -0.04888031 -9.634279E-07
v 10.694556 -0.063183285 -9.658121E-07
v 11.546218 -2.0081003 -8.4898693E-07
v 11.457486 -2.017418 -8.513711E-07
vt 0.0045467615 0.99402237
vt 0.0045467615 0.0033023357
vt 0.04438573 0.0033023357
vt 0.04438609 0.99402237
vt 0.09609562 0.0033023357
vt 0.09609574 0.99402237
vt 0.15276945 0.0033023357
vt 0.15276974 0.99402237
vt 0.21344459 0.0033023357
vt 0.21344459 0.99402237
vt 0.27718002 0.0033023357
vt 0.27718002 0.99402237
vt 0.34301335 0.0033023357
vt 0.34301335 0.99402237
vt 0.40996146 0.0033023357
vt 0.40996152 0.99402237
vt 0.4770803 0.0033023357
vt 0.4770804 0.99402237
vt 0.5435467 0.0033023357
vt 0.5435468 0.99402237
vt 0.60875845 0.0033023357
vt 0.6087585 0.99402237
vt 0.67246425 0.0033023357
vt 0.6724644 0.99402237
vt 0.73492783 0.0033023357
vt 0.73492795 0.99402237
vt 0.7970805 0.0033023357
vt 0.7970805 0.99402237
vt 0.86055505 0.0033023357
vt 0.86055577 0.99402237
vt 0.92746156 0.0033023357
vt 0.92746025 0.99402237
vt 0.99800557 0.0033023357
vt 0.99800557 0.99402237
vt 0.0045467615 0.99402237
vt 0.0045467615 0.0033023357
vt 0.052063107 0.0033023357
vt 0.052063942 0.99402237
vt 0.10495317 0.0033023357
vt 0.10495317 0.99402237
vt 0.16114229 0.0033023357
vt 0.16114229 0.99402237
vt 0.22002035 0.0033023357
vt 0.22002035 0.99402237
vt 0.2809912 0.0033023357
vt 0.2809912 0.99402237
vt 0.34347034 0.0033023357
vt 0.34347034 0.99402237
vt 0.4069082 0.0033023357
vt 0.4069082 0.99402237
vt 0.47082865 0.0033023357
vt 0.4708287 0.99402237
vt 0.5348706 0.0033023357
vt 0.5348706 0.99402237
vt 0.5988177 0.0033023357
vt 0.5988178 0.99402237
vt 0.66264105 0.0033023357
vt 0.66264105 0.99402237
vt 0.7265607 0.0033023357
vt 0.7265607 0.99402237
vt 0.79111636 0.0033023357
vt 0.7911164 0.99402237
vt 0.85718715 0.0033023357
vt 0.85718757 0.99402237
vt 0.9258755 0.0033023357
vt 0.92587477 0.99402237
vt 0.99800557 0.0033023357
vt 0.99800557 0.99402237
vt 0.23382068 0.99402237
vt 0.23382086 0.0033023357
vt 0.29753208 0.0033023357
vt 0.29753208 0.99402237
vt 0.36273736 0.0033023357
vt 0.36273736 0.99402237
vt 0.4286164 0.0033023357
vt 0.4286164 0.99402237
vt 0.49444562 0.0033023357
vt 0.49444562 0.99402237
vt 0.55964416 0.0033023357
vt 0.55964416 0.99402237
vt 0.62380624 0.0033023357
vt 0.62380636 0.99402237
vt 0.68673974 0.0033023357
vt 0.6867399 0.99402237
vt 0.7485259 0.0033023357
vt 0.74852604 0.99402237
vt 0.8095814 0.0033023357
vt 0.8095814 0.99402237
vt 0.8706696 0.0033023357
vt 0.8706703 0.99402237
vt 0.9327828 0.0033023357
vt 0.93278176 0.99402237
vt 0.99800557 0.0033023357
vt 0.99800557 0.99402237
vn -0 0 1
vn -0 0 1
vn -0 0 1
vn -0 0 1
vn -0 0 1
vn -0 0 1
vn -0 0 1
vn -0 0 1
vn -0 0 1
vn -0 0 1
vn -0 0 1
vn -0 0 1
vn -0 0 1
vn -0 0 1
vn -0 0 1
vn -0 0 1
vn -0 0 1
vn -0 0 1
vn -0 0 1
vn -0 0 1
vn -0 0 1
vn -0 0 1
vn -0 0 1
vn -0 0 1
vn -0 0 1
vn -0 0 1
vn -0 0 1
vn -0 0 1
vn -0 0 1
vn -0 0 1
vn -0 0 1
vn -0 0 1
vn -0 0 1
vn -0 0 1
vn -0 0 1
vn -0 0 1
vn -0 0 1
vn -0 0 1
vn -0 0 1
vn -0 0 1
vn -0 0 1
vn -0 0 1
vn -0 0 1
vn -0 0 1
vn -0 0 1
vn -0 0 1
vn -0 0 1
vn -0 0 1
vn -0 0 1
vn -0 0 1
vn -0 0 1
vn -0 0 1
vn -0 0 1
vn -0 0 1
vn -0 0 1
vn -0 0 1
vn -0 0 1
vn -0 0 1
vn -0 0 1
vn -0 0 1
vn -0 0 1
vn -0 0 1
vn -0 0 1
vn -0 0 1
vn -0 0 1
vn -0 0 1
vn -0 0 1
vn -0 0 1
vn -0.12430588 -0.049407065 0.9910131
vn -0.1243059 -0.049407072 0.9910131
vn -0.0018354338 -0.07574353 0.9971257
vn 0.041081958 -0.08468956 0.99556005
vn 0.09236083 -0.061658192 0.9938147
vn 0.07284119 -0.04862728 0.99615735
vn -0 0 1
vn -0 0 1
vn -0 0 1
vn -0 0 1
vn -0 0 1
vn -0 0 1
vn -0 0 1
vn -0 0 1
vn -0 0 1
vn -0 0 1
vn -0 0 1
vn -0 0 1
vn -0 0 1
vn -0 0 1
vn -0 0 1
vn -0 0 1
vn -0 0 1
vn -0 0 1
vn -0 0 1
vn -0 0 1
g FX_Line_7_0
f 3/3/3 2/2/2 1/1/1
f 4/4/4 3/3/3 1/1/1
f 5/5/5 3/3/3 4/4/4
f 6/6/6 5/5/5 4/4/4
f 7/7/7 5/5/5 6/6/6
f 8/8/8 7/7/7 6/6/6
f 9/9/9 7/7/7 8/8/8
f 10/10/10 9/9/9 8/8/8
f 11/11/11 9/9/9 10/10/10
f 12/12/12 11/11/11 10/10/10
f 13/13/13 11/11/11 12/12/12
f 14/14/14 13/13/13 12/12/12
f 15/15/15 13/13/13 14/14/14
f 16/16/16 15/15/15 14/14/14
f 17/17/17 15/15/15 16/16/16
f 18/18/18 17/17/17 16/16/16
f 19/19/19 17/17/17 18/18/18
f 20/20/20 19/19/19 18/18/18
f 21/21/21 19/19/19 20/20/20
f 22/22/22 21/21/21 20/20/20
f 23/23/23 21/21/21 22/22/22
f 24/24/24 23/23/23 22/22/22
f 25/25/25 23/23/23 24/24/24
f 26/26/26 25/25/25 24/24/24
f 27/27/27 25/25/25 26/26/26
f 28/28/28 27/27/27 26/26/26
f 29/29/29 27/27/27 28/28/28
f 30/30/30 29/29/29 28/28/28
f 31/31/31 29/29/29 30/30/30
f 32/32/32 31/31/31 30/30/30
f 31/31/31 32/32/32 33/33/33
f 32/32/32 34/34/34 33/33/33
f 37/37/37 36/36/36 35/35/35
f 38/38/38 37/37/37 35/35/35
f 39/39/39 37/37/37 38/38/38
f 40/40/40 39/39/39 38/38/38
f 41/41/41 39/39/39 40/40/40
f 42/42/42 41/41/41 40/40/40
f 43/43/43 41/41/41 42/42/42
f 44/44/44 43/43/43 42/42/42
f 45/45/45 43/43/43 44/44/44
f 46/46/46 45/45/45 44/44/44
f 47/47/47 45/45/45 46/46/46
f 48/48/48 47/47/47 46/46/46
f 49/49/49 47/47/47 48/48/48
f 50/50/50 49/49/49 48/48/48
f 51/51/51 49/49/49 50/50/50
f 52/52/52 51/51/51 50/50/50
f 53/53/53 51/51/51 52/52/52
f 54/54/54 53/53/53 52/52/52
f 55/55/55 53/53/53 54/54/54
f 56/56/56 55/55/55 54/54/54
f 57/57/57 55/55/55 56/56/56
f 58/58/58 57/57/57 56/56/56
f 59/59/59 57/57/57 58/58/58
f 60/60/60 59/59/59 58/58/58
f 61/61/61 59/59/59 60/60/60
f 62/62/62 61/61/61 60/60/60
f 63/63/63 61/61/61 62/62/62
f 64/64/64 63/63/63 62/62/62
f 65/65/65 63/63/63 64/64/64
f 66/66/66 65/65/65 64/64/64
f 65/65/65 66/66/66 67/67/67
f 66/66/66 68/68/68 67/67/67
f 71/71/71 70/70/70 69/69/69
f 72/72/72 71/71/71 69/69/69
f 73/73/73 71/71/71 72/72/72
f 74/74/74 73/73/73 72/72/72
f 75/75/75 73/73/73 74/74/74
f 76/76/76 75/75/75 74/74/74
f 77/77/77 75/75/75 76/76/76
f 78/78/78 77/77/77 76/76/76
f 79/79/79 77/77/77 78/78/78
f 80/80/80 79/79/79 78/78/78
f 81/81/81 79/79/79 80/80/80
f 82/82/82 81/81/81 80/80/80
f 83/83/83 81/81/81 82/82/82
f 84/84/84 83/83/83 82/82/82
f 85/85/85 83/83/83 84/84/84
f 86/86/86 85/85/85 84/84/84
f 87/87/87 85/85/85 86/86/86
f 88/88/88 87/87/87 86/86/86
f 89/89/89 87/87/87 88/88/88
f 90/90/90 89/89/89 88/88/88
f 91/91/91 89/89/89 90/90/90
f 92/92/92 91/91/91 90/90/90
f 91/91/91 92/92/92 93/93/93
f 92/92/92 94/94/94 93/93/93
