g FX_Line_3
v -16.460375 10.2951565 -4.3179975E-07
v -16.492462 10.382769 -4.3114173E-07
v -14.948506 10.136981 -5.1957625E-07
v -14.920443 10.05001 -5.1999496E-07
v -13.363216 9.795473 -5.9674966E-07
v -13.343011 9.710196 -5.9678507E-07
v -11.74884 9.357257 -6.6241046E-07
v -11.736243 9.274043 -6.621357E-07
v -10.115543 8.821008 -7.164205E-07
v -10.110382 8.740235 -7.1589903E-07
v -8.473505 8.185393 -7.5864006E-07
v -8.475659 8.107452 -7.579295E-07
v -6.8329 7.4490714 -7.8892793E-07
v -6.8423095 7.3743863 -7.880822E-07
v -5.2039237 6.6107006 -8.071417E-07
v -5.220548 6.5397286 -8.06214E-07
v -3.5967724 5.6689343 -8.1313806E-07
v -3.6205893 5.6021776 -8.121821E-07
v -2.0216527 4.6224246 -8.0676585E-07
v -2.0526354 4.560429 -8.0585244E-07
v -0.48878235 3.4698253 -7.8789526E-07
v -0.52688295 3.4131818 -7.870688E-07
v 0.99161804 2.2097893 -7.563745E-07
v 0.94648373 2.1591318 -7.556972E-07
v 2.409314 0.8409741 -7.1205886E-07
v 2.357285 0.7969732 -7.115965E-07
v 3.7540643 -0.6379559 -6.54804E-07
v 3.6953545 -0.67460966 -6.5462547E-07
v 5.015615 -2.2283237 -5.84466E-07
v 4.950532 -2.2569437 -5.846422E-07
v 6.183719 -3.9314473 -5.009015E-07
v 6.1126623 -3.9513576 -5.015044E-07
v 7.246732 -5.746269 -4.040932E-07
v 7.17297 -5.76156 -4.049436E-07
v 2.376916 14.493724 -9.318761E-07
v 2.4302697 14.569554 -9.306772E-07
v 3.390294 13.484057 -9.1887875E-07
v 3.3365092 13.408718 -9.2008366E-07
v 4.4175396 12.302046 -8.9563645E-07
v 4.3624945 12.228154 -8.968687E-07
v 5.4899535 11.02495 -8.611266E-07
v 5.4329247 10.953428 -8.624213E-07
v 6.585476 9.654209 -8.1552946E-07
v 6.525858 9.585922 -8.1692866E-07
v 7.6820602 8.191216 -7.590223E-07
v 7.619344 8.127062 -7.6057853E-07
v 8.757648 6.6373596 -6.917849E-07
v 8.691427 6.578276 -6.935576E-07
v 9.79021 4.994005 -6.139958E-07
v 9.720155 4.941017 -6.160534E-07
v 10.757669 3.2625232 -5.2583385E-07
v 10.683587 3.2167423 -5.28254E-07
v 11.637954 1.4442686 -4.274766E-07
v 11.559794 1.4069107 -4.3034754E-07
v 12.408971 -0.45938018 -3.1909096E-07
v 12.326884 -0.4870361 -3.2253314E-07
v 13.048598 -2.4470303 -2.0087914E-07
v 12.962965 -2.4636726 -2.0497525E-07
v 13.534695 -4.5172424 -7.301412E-08
v 13.4461775 -4.5216107 -7.7867554E-08
v 13.845112 -6.668541 6.431841E-08
v 13.754667 -6.6595187 5.8610713E-08
v 13.9577265 -8.899371 2.1092598E-07
v 13.866566 -8.876124 2.0428448E-07
v 13.85044 -11.208138 3.6661413E-07
v 13.759954 -11.170207 3.5898296E-07
v 13.501759 -13.589523 5.3092987E-07
v 13.412347 -13.544247 5.2279097E-07
v -18.274498 -1.4456204 8.1579464E-07
v -18.310083 -1.4077652 8.205844E-07
v -17.0018 -1.4733347 7.297544E-07
v -16.969622 -1.5110196 7.252086E-07
v -15.650456 -1.6149136 6.4785985E-07
v -15.624978 -1.6518954 6.4372114E-07
v -14.266167 -1.8344308 5.752432E-07
v -14.24721 -1.8703787 5.7144706E-07
v -12.857278 -2.1339035 5.121279E-07
v -12.844736 -2.168489 5.0861996E-07
v -11.432151 -2.515361 4.5873998E-07
v -11.425956 -2.5482473 4.5547083E-07
v -9.999139 -2.9808383 4.1530646E-07
v -9.999283 -3.0116653 4.1223024E-07
v -8.566617 -3.5323703 3.8205533E-07
v -8.573104 -3.5607557 3.7912756E-07
v -7.142952 -4.172001 3.592153E-07
v -7.1558123 -4.197522 3.5639076E-07
v -5.7365313 -4.901769 3.4702194E-07
v -5.7557883 -4.923971 3.4424167E-07
v -4.35574 -5.7237206 3.4569328E-07
v -4.381409 -5.7421055 3.429197E-07
v -3.0089722 -6.6398973 3.554654E-07
v -3.0410416 -6.653929 3.5264583E-07
v -1.7046331 -7.6523385 3.765686E-07
v -1.743045 -7.661449 3.7364717E-07
v -0.45113218 -8.763083 4.092332E-07
v -0.49577025 -8.766676 4.0615E-07
v 0.7431091 -9.974157 4.536896E-07
v 0.6924359 -9.971634 4.503821E-07
v 1.8696716 -11.287582 5.101665E-07
v 1.813236 -11.278338 5.065707E-07
v 2.9187596 -12.703526 5.7880476E-07
v 2.8596551 -12.690675 5.750331E-07
vt 0.0045467615 0.99402237
vt 0.0045467615 0.0033023357
vt 0.06007111 0.0033023357
vt 0.06007266 0.99402237
vt 0.11427724 0.0033023357
vt 0.11427677 0.99402237
vt 0.17245728 0.0033023357
vt 0.17245728 0.99402237
vt 0.23382086 0.0033023357
vt 0.23382068 0.99402237
vt 0.29753208 0.0033023357
vt 0.29753208 0.99402237
vt 0.36273736 0.0033023357
vt 0.36273736 0.99402237
vt 0.4286164 0.0033023357
vt 0.4286164 0.99402237
vt 0.49444562 0.0033023357
vt 0.49444562 0.99402237
vt 0.55964416 0.0033023357
vt 0.55964416 0.99402237
vt 0.62380624 0.0033023357
vt 0.62380636 0.99402237
vt 0.68673974 0.0033023357
vt 0.6867399 0.99402237
vt 0.7485259 0.0033023357
vt 0.74852604 0.99402237
vt 0.8095814 0.0033023357
vt 0.8095814 0.99402237
vt 0.8706696 0.0033023357
vt 0.8706703 0.99402237
vt 0.9327828 0.0033023357
vt 0.93278176 0.99402237
vt 0.99800557 0.0033023357
vt 0.99800557 0.99402237
vt 0.0045467615 0.99402237
vt 0.0045467615 0.0033023357
vt 0.04438573 0.0033023357
vt 0.04438609 0.99402237
vt 0.09609562 0.0033023357
vt 0.09609574 0.99402237
vt 0.15276945 0.0033023357
vt 0.15276974 0.99402237
vt 0.21344459 0.0033023357
vt 0.21344459 0.99402237
vt 0.27718002 0.0033023357
vt 0.27718002 0.99402237
vt 0.34301335 0.0033023357
vt 0.34301335 0.99402237
vt 0.40996146 0.0033023357
vt 0.40996152 0.99402237
vt 0.4770803 0.0033023357
vt 0.4770804 0.99402237
vt 0.5435467 0.0033023357
vt 0.5435468 0.99402237
vt 0.60875845 0.0033023357
vt 0.6087585 0.99402237
vt 0.67246425 0.0033023357
vt 0.6724644 0.99402237
vt 0.73492783 0.0033023357
vt 0.73492795 0.99402237
vt 0.7970805 0.0033023357
vt 0.7970805 0.99402237
vt 0.86055505 0.0033023357
vt 0.86055577 0.99402237
vt 0.92746156 0.0033023357
vt 0.92746025 0.99402237
vt 0.99800557 0.0033023357
vt 0.99800557 0.99402237
vt 0.0045467615 0.99402237
vt 0.0045467615 0.0033023357
vt 0.06007111 0.0033023357
vt 0.06007266 0.99402237
vt 0.11427724 0.0033023357
vt 0.11427677 0.99402237
vt 0.17245728 0.0033023357
vt 0.17245728 0.99402237
vt 0.23382086 0.0033023357
vt 0.23382068 0.99402237
vt 0.29753208 0.0033023357
vt 0.29753208 0.99402237
vt 0.36273736 0.0033023357
vt 0.36273736 0.99402237
vt 0.4286164 0.0033023357
vt 0.4286164 0.99402237
vt 0.49444562 0.0033023357
vt 0.49444562 0.99402237
vt 0.55964416 0.0033023357
vt 0.55964416 0.99402237
vt 0.62380624 0.0033023357
vt 0.62380636 0.99402237
vt 0.68673974 0.0033023357
vt 0.6867399 0.99402237
vt 0.7485259 0.0033023357
vt 0.74852604 0.99402237
vt 0.8095814 0.0033023357
vt 0.8095814 0.99402237
vt 0.8706696 0.0033023357
vt 0.8706703 0.99402237
vt 0.9327828 0.0033023357
vt 0.93278176 0.99402237
vt 0.99800557 0.0033023357
vt 0.99800557 0.99402237
vn -0 0 1
vn -0 0 1
vn -0 0 1
vn -0 0 1
vn -0 0 1
vn -0 0 1
vn -0 0 1
vn -0 0 1
vn -0 0 1
vn -0 0 1
vn -0 0 1
vn -0 0 1
vn -0 0 1
vn -0 0 1
vn -0 0 1
vn -0 0 1
vn -0 0 1
vn -0 0 1
vn -0 0 1
vn -0 0 1
vn -0 0 1
vn -0 0 1
vn -0 0 1
vn -0 0 1
vn -0 0 1
vn -0 0 1
vn -0 0 1
vn -0 0 1
vn -0 0 1
vn -0 0 1
vn -0 0 1
vn -0 0 1
vn -0 0 1
vn -0 0 1
vn -0 0 1
vn -0 0 1
vn -0 0 1
vn -0 0 1
vn -0 0 1
vn -0 0 1
vn -0 0 1
vn -0 0 1
vn -0 0 1
vn -0 0 1
vn -0 0 1
vn -0 0 1
vn -0 0 1
vn -0 0 1
vn -0 0 1
vn -0 0 1
vn -0 0 1
vn -0 0 1
vn -0 0 1
vn -0 0 1
vn -0 0 1
vn -0 0 1
vn -0 0 1
vn -0 0 1
vn -0 0 1
vn -0 0 1
vn -0 0 1
vn -0 0 1
vn -0 0 1
vn -0 0 1
vn -0 0 1
vn -0 0 1
vn -0 0 1
vn -0 0 1
vn -0 0 1
vn -0 0 1
vn -0 0 1
vn -0 0 1
vn -0 0 1
vn -0 0 1
vn -0 0 1
vn -0 0 1
vn -0 0 1
vn -0 0 1
vn -0 0 1
vn -0 0 1
vn -0 0 1
vn -0 0 1
vn -0 0 1
vn -0 0 1
vn -0 0 1
vn -0 0 1
vn -0 0 1
vn -0 0 1
vn -0 0 1
vn -0 0 1
vn -0 0 1
vn -0 0 1
vn -0 0 1
vn -0 0 1
vn -0 0 1
vn -0 0 1
vn -0 0 1
vn -0 0 1
vn -0 0 1
vn -0 0 1
vn -0 0 1
vn -0 0 1
g FX_Line_3_0
f 3/3/3 2/2/2 1/1/1
f 4/4/4 3/3/3 1/1/1
f 5/5/5 3/3/3 4/4/4
f 6/6/6 5/5/5 4/4/4
f 7/7/7 5/5/5 6/6/6
f 8/8/8 7/7/7 6/6/6
f 9/9/9 7/7/7 8/8/8
f 10/10/10 9/9/9 8/8/8
f 11/11/11 9/9/9 10/10/10
f 12/12/12 11/11/11 10/10/10
f 13/13/13 11/11/11 12/12/12
f 14/14/14 13/13/13 12/12/12
f 15/15/15 13/13/13 14/14/14
f 16/16/16 15/15/15 14/14/14
f 17/17/17 15/15/15 16/16/16
f 18/18/18 17/17/17 16/16/16
f 19/19/19 17/17/17 18/18/18
f 20/20/20 19/19/19 18/18/18
f 21/21/21 19/19/19 20/20/20
f 22/22/22 21/21/21 20/20/20
f 23/23/23 21/21/21 22/22/22
f 24/24/24 23/23/23 22/22/22
f 25/25/25 23/23/23 24/24/24
f 26/26/26 25/25/25 24/24/24
f 27/27/27 25/25/25 26/26/26
f 28/28/28 27/27/27 26/26/26
f 29/29/29 27/27/27 28/28/28
f 30/30/30 29/29/29 28/28/28
f 31/31/31 29/29/29 30/30/30
f 32/32/32 31/31/31 30/30/30
f 31/31/31 32/32/32 33/33/33
f 32/32/32 34/34/34 33/33/33
f 37/37/37 36/36/36 35/35/35
f 38/38/38 37/37/37 35/35/35
f 39/39/39 37/37/37 38/38/38
f 40/40/40 39/39/39 38/38/38
f 41/41/41 39/39/39 40/40/40
f 42/42/42 41/41/41 40/40/40
f 43/43/43 41/41/41 42/42/42
f 44/44/44 43/43/43 42/42/42
f 45/45/45 43/43/43 44/44/44
f 46/46/46 45/45/45 44/44/44
f 47/47/47 45/45/45 46/46/46
f 48/48/48 47/47/47 46/46/46
f 49/49/49 47/47/47 48/48/48
f 50/50/50 49/49/49 48/48/48
f 51/51/51 49/49/49 50/50/50
f 52/52/52 51/51/51 50/50/50
f 53/53/53 51/51/51 52/52/52
f 54/54/54 53/53/53 52/52/52
f 55/55/55 53/53/53 54/54/54
f 56/56/56 55/55/55 54/54/54
f 57/57/57 55/55/55 56/56/56
f 58/58/58 57/57/57 56/56/56
f 59/59/59 57/57/57 58/58/58
f 60/60/60 59/59/59 58/58/58
f 61/61/61 59/59/59 60/60/60
f 62/62/62 61/61/61 60/60/60
f 63/63/63 61/61/61 62/62/62
f 64/64/64 63/63/63 62/62/62
f 65/65/65 63/63/63 64/64/64
f 66/66/66 65/65/65 64/64/64
f 65/65/65 66/66/66 67/67/67
f 66/66/66 68/68/68 67/67/67
f 71/71/71 70/70/70 69/69/69
f 72/72/72 71/71/71 69/69/69
f 73/73/73 71/71/71 72/72/72
f 74/74/74 73/73/73 72/72/72
f 75/75/75 73/73/73 74/74/74
f 76/76/76 75/75/75 74/74/74
f 77/77/77 75/75/75 76/76/76
f 78/78/78 77/77/77 76/76/76
f 79/79/79 77/77/77 78/78/78
f 80/80/80 79/79/79 78/78/78
f 81/81/81 79/79/79 80/80/80
f 82/82/82 81/81/81 80/80/80
f 83/83/83 81/81/81 82/82/82
f 84/84/84 83/83/83 82/82/82
f 85/85/85 83/83/83 84/84/84
f 86/86/86 85/85/85 84/84/84
f 87/87/87 85/85/85 86/86/86
f 88/88/88 87/87/87 86/86/86
f 89/89/89 87/87/87 88/88/88
f 90/90/90 89/89/89 88/88/88
f 91/91/91 89/89/89 90/90/90
f 92/92/92 91/91/91 90/90/90
f 93/93/93 91/91/91 92/92/92
f 94/94/94 93/93/93 92/92/92
f 95/95/95 93/93/93 94/94/94
f 96/96/96 95/95/95 94/94/94
f 97/97/97 95/95/95 96/96/96
f 98/98/98 97/97/97 96/96/96
f 99/99/99 97/97/97 98/98/98
f 100/100/100 99/99/99 98/98/98
f 99/99/99 100/100/100 101/101/101
f 100/100/100 102/102/102 101/101/101
