g sea1
v 5.872239 -5.632619 1.4249781E-06
v 4.2248263 -3.1468632 1.320738E-06
v 6.4961767 -5.5596094 1.4207516E-06
v 5.5914154 -5.6969013 1.4266703E-06
v 2.3659527 -2.3827863 1.320738E-06
v 0.8834155 -4.948716 1.320738E-06
v 5.9119534 -6.179472 1.4207516E-06
v 5.986233 -6.14505 1.4166482E-06
v 5.679362 -5.6770725 1.4243066E-06
v 6.3087907 -6.59663 1.4166482E-06
v 6.234511 -6.631052 1.4207516E-06
v 6.937645 -7.1293845 1.4186346E-06
v 6.863365 -7.1638074 1.4227379E-06
v 7.1557956 -7.377004 1.4135463E-06
v 7.081516 -7.411426 1.4176499E-06
v 7.185256 -7.890044 1.4362537E-06
v 7.110976 -7.9244666 1.4403571E-06
v 7.3557158 -8.2881 1.4144922E-06
v 4.4548316 -9.452325 1.4207516E-06
v 7.281436 -8.322522 1.4185957E-06
v 7.815225 -8.909527 1.4097459E-06
v 7.7409453 -8.943949 1.4138492E-06
v 7.9281206 -9.103062 1.4097459E-06
v 7.853841 -9.137484 1.4138492E-06
v 8.170038 -9.393363 1.4097459E-06
v 8.095758 -9.427785 1.4138492E-06
v 8.273165 -9.734215 1.4138492E-06
v 8.347445 -9.699793 1.4097459E-06
v 8.879665 -10.167501 1.4097459E-06
v 8.805386 -10.201923 1.4138492E-06
v 9.749831 -11.137199 1.4292133E-06
v 9.675551 -11.17162 1.4333166E-06
v 9.714815 -11.252808 1.4141558E-06
v 9.640535 -11.287229 1.4182592E-06
v 10.34076 -11.886575 1.4166482E-06
v 10.26648 -11.920996 1.4207516E-06
v 10.485911 -12.128493 1.4166482E-06
v 10.411632 -12.162915 1.4207516E-06
v 11.147154 -12.757481 1.4166482E-06
v 11.072874 -12.791902 1.4207516E-06
v 9.47265 -14.698225 1.4207516E-06
v 12.16321 -13.547747 1.4166482E-06
v 12.08893 -13.582168 1.4207516E-06
v 3.1421814 3.1828802 -5.106436E-07
v -0.21528076 4.534095 -4.3348263E-07
v -0.15063782 4.837044 -4.6959698E-07
v 3.2506518 1.0032294 -2.5080894E-07
v -0.25473267 4.2101483 -4.316392E-07
v 2.0190058 -0.6161578 -2.5080894E-07
v 0.2171527 -0.06875915 -2.5080894E-07
v -7.280726 7.4059734 -4.316392E-07
v -0.8514642 4.669793 -4.316392E-07
v -0.24370849 4.2856803 -4.4064348E-07
v -0.84044003 4.745325 -4.4064348E-07
v -1.4562597 5.3552275 -4.316392E-07
v -1.4452356 5.43076 -4.4064348E-07
v -1.6417303 5.5084414 -4.316392E-07
v -1.6307062 5.583974 -4.4064348E-07
v -2.1416943 5.6858487 -4.316392E-07
v -7.1920238 7.8252983 -4.316392E-07
v -2.7464898 5.960024 -4.316392E-07
v -2.13067 5.761381 -4.4064348E-07
v -2.4642518 5.879384 -4.316392E-07
v -2.4532275 5.9549165 -4.4064348E-07
v -2.7354655 6.035556 -4.4064348E-07
v -3.5770788 6.653526 -4.316392E-07
v -3.5660546 6.7290583 -4.4064348E-07
v -4.6737742 7.5566864 -4.316392E-07
v -4.6627502 7.6322184 -4.4064348E-07
v -4.818926 7.7582855 -4.316392E-07
v -4.8079014 7.8338175 -4.4064348E-07
v -5.2221227 8.008268 -4.316392E-07
v -5.2110987 8.0838 -4.4064348E-07
v -5.262441 8.105035 -4.316392E-07
v -5.6575756 8.355017 -4.316392E-07
v -7.119448 8.059152 -4.316392E-07
v -5.251417 8.180567 -4.4064348E-07
v -7.159768 8.188175 -4.316392E-07
v -7.111384 8.333327 -4.316392E-07
v -5.6465516 8.430549 -4.4064348E-07
v -7.0549364 8.42203 -4.316392E-07
v -5.9317493 8.621127 -4.316392E-07
v -5.920725 8.696659 -4.4064348E-07
v -6.900671 8.609142 -4.2924918E-07
v -6.3026905 8.943685 -4.316392E-07
v -6.291666 9.019217 -4.4064348E-07
v -6.9444284 8.966537 -4.2955668E-07
v -6.544609 9.24205 -4.316392E-07
v -6.533585 9.317582 -4.4064348E-07
v -6.7220154 9.274306 -4.316392E-07
v -6.927146 9.402122 -4.161145E-07
v -6.710991 9.349838 -4.4064348E-07
v -6.9161215 9.477654 -4.2511863E-07
vt 0.25968567 0.43750268
vt 0.13854654 0.49809393
vt 0.29339322 0.4995154
vt 0.24684659 0.4080742
vt 0.0004999999 0.39311406
vt 0.045870125 0.051881757
vt 0.29211393 0.39677855
vt 0.29211393 0.39677855
vt 0.24684659 0.4080742
vt 0.3316867 0.38912573
vt 0.3316867 0.38912573
vt 0.38751516 0.39796755
vt 0.38751516 0.39796755
vt 0.41046014 0.38890946
vt 0.41046014 0.38890946
vt 0.42712617 0.3641998
vt 0.42712617 0.3641998
vt 0.4686505 0.33884138
vt 0.3734721 0.0005000565
vt 0.4686505 0.33884138
vt 0.5280932 0.3301184
vt 0.5280932 0.3301184
vt 0.5436809 0.32456246
vt 0.5436809 0.32456246
vt 0.5709915 0.32274655
vt 0.5709915 0.32274655
vt 0.59559935 0.31382892
vt 0.59559935 0.31382892
vt 0.64731264 0.32369763
vt 0.64731264 0.32369763
vt 0.7295785 0.32927516
vt 0.7295785 0.32927516
vt 0.74404263 0.31400192
vt 0.74404263 0.31400192
vt 0.8089747 0.32223848
vt 0.8089747 0.32223848
vt 0.82867765 0.31565568
vt 0.82867765 0.31565568
vt 0.8952723 0.32403287
vt 0.8952723 0.32403287
vt 0.9019757 0.025722641
vt 0.9889723 0.3511962
vt 0.9889723 0.3511962
vt 0.15846987 0.625559
vt 0.27089396 0.43432596
vt 0.28676248 0.4697666
vt 0.022696966 0.4041111
vt 0.25586212 0.38821477
vt 0.00049999985 0.061076242
vt 0.1475496 -0.07142024
vt 0.8945847 0.00597982
vt 0.32169566 0.37958694
vt 0.25586212 0.38821477
vt 0.32169566 0.37958694
vt 0.40193483 0.3986502
vt 0.40193483 0.3986502
vt 0.42303377 0.3972796
vt 0.42303377 0.3972796
vt 0.46540675 0.36374724
vt 0.9148157 0.06901903
vt 0.52033114 0.33072802
vt 0.46540675 0.36374724
vt 0.49761176 0.35212836
vt 0.49761176 0.35212836
vt 0.52033114 0.33072802
vt 0.61527157 0.32552257
vt 0.61527157 0.32552257
vt 0.73985815 0.31706282
vt 0.73985815 0.31706282
vt 0.76139885 0.3263357
vt 0.76139885 0.3263357
vt 0.8021516 0.31283334
vt 0.8021516 0.31283334
vt 0.81064427 0.32057196
vt 0.8508897 0.30797216
vt 0.92464453 0.106763706
vt 0.81064427 0.32057196
vt 0.9351231 0.11858728
vt 0.94101393 0.14238882
vt 0.8508897 0.30797216
vt 0.9429228 0.15994506
vt 0.88451815 0.31096348
vt 0.88451815 0.31096348
vt 0.94386184 0.2072118
vt 0.9277089 0.3102649
vt 0.9277089 0.3102649
vt 0.9687457 0.2467265
vt 0.96129364 0.32095385
vt 0.96129364 0.32095385
vt 0.97443974 0.30516815
vt 1.0019919 0.31707352
vt 0.97443974 0.30516815
vt 1.0019919 0.31707352
vn -0 0 1
vn -0 0 1
vn -0 0 1
vn -0 0 1
vn -0 0 1
vn -0 0 1
vn -0 0 1
vn -0 0 1
vn -0 0 1
vn -0 0 1
vn -0 0 1
vn -0 0 1
vn -0 0 1
vn -0 0 1
vn -0 0 1
vn -0 0 1
vn -0 0 1
vn -0 0 1
vn -0 0 1
vn -0 0 1
vn -0 0 1
vn -0 0 1
vn -0 0 1
vn -0 0 1
vn -0 0 1
vn -0 0 1
vn -0 0 1
vn -0 0 1
vn -0 0 1
vn -0 0 1
vn 1.3447487E-07 -1.7097622E-07 1
vn -0 0 1
vn -0 0 1
vn -0 0 1
vn -0 0 1
vn -0 0 1
vn -0 0 1
vn -0 0 1
vn -0 0 1
vn -0 0 1
vn -0 0 1
vn -0 0 1
vn -0 0 1
vn -0 1.2281268E-07 1
vn -0 0 1
vn -0 1.05265784E-07 1
vn -0 0 1
vn -0 0 1
vn -0 0 1
vn -0 0 1
vn -0 0 1
vn -0 0 1
vn -0 1.0716352E-07 1
vn -0 1.0716352E-07 1
vn -0 0 1
vn 1.1592966E-07 1.0229092E-07 1
vn -0 0 1
vn -0 1.06384505E-07 1
vn -0 0 1
vn -0 0 1
vn -0 0 1
vn -0 1.1334126E-07 1
vn -0 0 1
vn -0 1.0961223E-07 1
vn -0 1.06261744E-07 1
vn -0 0 1
vn -0 1.0641989E-07 1
vn -0 0 1
vn 1.3766474E-07 0 1
vn -0 0 1
vn -0 1.09318805E-07 1
vn -0 0 1
vn 2.1188868E-07 0 1
vn -0 0 1
vn -0 0 1
vn -0 0 1
vn -0 1.0913407E-07 1
vn -0 0 1
vn -0 0 1
vn 1.01348384E-07 1.04419094E-07 1
vn -0 0 1
vn -0 0 1
vn -0 1.057854E-07 1
vn -0 0 1
vn -0 0 1
vn 1.2459792E-07 1.01025755E-07 1
vn -0 0 1
vn -0 0 1
vn -0 1.1612948E-07 1
vn -0 0 1
vn -0 0 1
vn 1.3746106E-07 0 1
vn 1.3746062E-07 0 1
g sea1_0
f 3/3/3 2/2/2 1/1/1
f 1/1/1 2/2/2 4/4/4
f 2/2/2 5/5/5 4/4/4
f 5/5/5 6/6/6 4/4/4
f 4/4/4 6/6/6 7/7/7
f 7/7/7 8/8/8 4/4/4
f 9/9/9 4/4/4 8/8/8
f 8/8/8 7/7/7 10/10/10
f 11/11/11 10/10/10 7/7/7
f 7/7/7 6/6/6 11/11/11
f 10/10/10 11/11/11 12/12/12
f 13/13/13 12/12/12 11/11/11
f 11/11/11 6/6/6 13/13/13
f 12/12/12 13/13/13 14/14/14
f 15/15/15 14/14/14 13/13/13
f 13/13/13 6/6/6 15/15/15
f 14/14/14 15/15/15 16/16/16
f 15/15/15 6/6/6 17/17/17
f 17/17/17 16/16/16 15/15/15
f 16/16/16 17/17/17 18/18/18
f 6/6/6 19/19/19 17/17/17
f 20/20/20 18/18/18 17/17/17
f 17/17/17 19/19/19 20/20/20
f 18/18/18 20/20/20 21/21/21
f 22/22/22 21/21/21 20/20/20
f 20/20/20 19/19/19 22/22/22
f 21/21/21 22/22/22 23/23/23
f 22/22/22 19/19/19 24/24/24
f 24/24/24 23/23/23 22/22/22
f 23/23/23 24/24/24 25/25/25
f 24/24/24 19/19/19 26/26/26
f 26/26/26 25/25/25 24/24/24
f 26/26/26 19/19/19 27/27/27
f 25/25/25 26/26/26 28/28/28
f 27/27/27 28/28/28 26/26/26
f 28/28/28 27/27/27 29/29/29
f 30/30/30 29/29/29 27/27/27
f 27/27/27 19/19/19 30/30/30
f 29/29/29 30/30/30 31/31/31
f 32/32/32 31/31/31 30/30/30
f 30/30/30 19/19/19 32/32/32
f 31/31/31 32/32/32 33/33/33
f 34/34/34 33/33/33 32/32/32
f 32/32/32 19/19/19 34/34/34
f 33/33/33 34/34/34 35/35/35
f 36/36/36 35/35/35 34/34/34
f 34/34/34 19/19/19 36/36/36
f 35/35/35 36/36/36 37/37/37
f 38/38/38 37/37/37 36/36/36
f 36/36/36 19/19/19 38/38/38
f 37/37/37 38/38/38 39/39/39
f 38/38/38 19/19/19 40/40/40
f 40/40/40 39/39/39 38/38/38
f 40/40/40 19/19/19 41/41/41
f 39/39/39 40/40/40 42/42/42
f 43/43/43 40/40/40 41/41/41
f 43/43/43 42/42/42 40/40/40
f 46/46/46 45/45/45 44/44/44
f 47/47/47 44/44/44 45/45/45
f 45/45/45 48/48/48 47/47/47
f 47/47/47 48/48/48 49/49/49
f 49/49/49 48/48/48 50/50/50
f 50/50/50 48/48/48 51/51/51
f 48/48/48 52/52/52 51/51/51
f 48/48/48 53/53/53 52/52/52
f 54/54/54 52/52/52 53/53/53
f 52/52/52 54/54/54 55/55/55
f 52/52/52 55/55/55 51/51/51
f 56/56/56 55/55/55 54/54/54
f 55/55/55 56/56/56 57/57/57
f 55/55/55 57/57/57 51/51/51
f 58/58/58 57/57/57 56/56/56
f 57/57/57 59/59/59 51/51/51
f 57/57/57 58/58/58 59/59/59
f 51/51/51 59/59/59 60/60/60
f 59/59/59 61/61/61 60/60/60
f 62/62/62 59/59/59 58/58/58
f 59/59/59 62/62/62 63/63/63
f 63/63/63 61/61/61 59/59/59
f 64/64/64 63/63/63 62/62/62
f 63/63/63 64/64/64 61/61/61
f 65/65/65 61/61/61 64/64/64
f 61/61/61 65/65/65 66/66/66
f 61/61/61 66/66/66 60/60/60
f 67/67/67 66/66/66 65/65/65
f 66/66/66 67/67/67 68/68/68
f 66/66/66 68/68/68 60/60/60
f 69/69/69 68/68/68 67/67/67
f 68/68/68 69/69/69 70/70/70
f 68/68/68 70/70/70 60/60/60
f 71/71/71 70/70/70 69/69/69
f 70/70/70 71/71/71 72/72/72
f 70/70/70 72/72/72 60/60/60
f 73/73/73 72/72/72 71/71/71
f 72/72/72 73/73/73 74/74/74
f 72/72/72 74/74/74 60/60/60
f 74/74/74 75/75/75 60/60/60
f 60/60/60 75/75/75 76/76/76
f 77/77/77 74/74/74 73/73/73
f 74/74/74 77/77/77 75/75/75
f 76/76/76 75/75/75 78/78/78
f 78/78/78 75/75/75 79/79/79
f 80/80/80 75/75/75 77/77/77
f 79/79/79 75/75/75 81/81/81
f 75/75/75 80/80/80 82/82/82
f 75/75/75 82/82/82 81/81/81
f 83/83/83 82/82/82 80/80/80
f 81/81/81 82/82/82 84/84/84
f 82/82/82 83/83/83 85/85/85
f 82/82/82 85/85/85 84/84/84
f 86/86/86 85/85/85 83/83/83
f 84/84/84 85/85/85 87/87/87
f 85/85/85 86/86/86 88/88/88
f 85/85/85 88/88/88 87/87/87
f 89/89/89 88/88/88 86/86/86
f 87/87/87 88/88/88 90/90/90
f 88/88/88 89/89/89 90/90/90
f 91/91/91 87/87/87 90/90/90
f 92/92/92 90/90/90 89/89/89
f 90/90/90 92/92/92 91/91/91
f 93/93/93 91/91/91 92/92/92
