g sea2
v 3.6528442 -13.237788 1.7035482E-06
v 2.8303223 -12.512033 1.7035482E-06
v 3.4593096 -12.689441 1.7035482E-06
v -4.4450803 -8.530498 1.6614954E-06
v 2.6206598 -12.270116 1.7035482E-06
v 1.8787774 -11.544361 1.7035482E-06
v 3.2301726 -16.989044 1.7950533E-06
v 5.6043167 -15.189261 1.7035482E-06
v 0.42726865 -9.738039 1.7035482E-06
v 0.76595396 -10.02834 1.7035482E-06
v 1.072384 -10.415409 1.7035482E-06
v 1.7174988 -11.141164 1.7035482E-06
v 1.8142663 -11.31857 1.7035482E-06
v 0.23373413 -9.254202 1.7035482E-06
v -3.5063171 -6.4887943 1.5699903E-06
v -2.232215 -6.0694695 1.5699903E-06
v 0.8949768 -9.334842 1.7035482E-06
v -18.942732 1.5875579 9.326248E-07
v -8.780874 -11.1545725 1.0443223E-06
v -20.39028 -2.1224992 1.0443223E-06
v -15.991328 -1.8154235 9.326248E-07
v -12.487683 -4.600601 9.547441E-07
v -14.652715 -2.8153522 9.326248E-07
v -15.426852 -2.1702368 9.326248E-07
v -10.532575 -5.9649386 9.4086874E-07
v -9.1853485 -6.766688 9.326248E-07
v -14.852902 -1.3471375 8.3450374E-07
v -15.417377 -0.9923242 8.3450374E-07
v -14.594855 -1.3148816 8.3450374E-07
v -16.50742 -1.1057965 9.326248E-07
v -15.933469 -0.28269714 8.3450374E-07
v -15.168806 -2.137981 9.326248E-07
v -14.078764 -1.9922527 8.3450374E-07
v -13.659441 -2.0245087 8.3450374E-07
v -16.588058 -0.5735773 9.326248E-07
v -16.014109 0.24952209 8.3450374E-07
v -16.862234 -0.34778625 9.326248E-07
v -16.288282 0.4753131 8.3450374E-07
v -16.910618 -0.07361267 9.326248E-07
v -16.336668 0.7494867 8.3450374E-07
v -18.368782 2.4106574 8.3450374E-07
v -14.233391 -2.8476079 9.326248E-07
v -13.304626 -2.2019145 8.3450374E-07
v -13.878576 -3.025014 9.326248E-07
v -13.014323 -2.5406005 8.3450374E-07
v -13.305451 -3.8632889 9.4603826E-07
v -13.588274 -3.3637 9.326248E-07
v -12.731502 -3.0401897 8.4791714E-07
v -12.292818 -3.4136908 8.27095E-07
v -12.866769 -4.2367897 9.2521606E-07
v -11.913733 -3.777502 8.56623E-07
v -11.775783 -3.8298175 8.560666E-07
v -12.349732 -4.652917 9.541877E-07
v -11.469879 -3.7613397 8.2429716E-07
v -12.043829 -4.584439 9.224182E-07
v -11.212021 -4.0156317 8.449974E-07
v -11.785972 -4.838731 9.431185E-07
v -11.002012 -4.3215766 8.4483906E-07
v -11.575963 -5.144676 9.429602E-07
v -10.74431 -4.540464 8.5372966E-07
v -11.31826 -5.363563 9.518507E-07
v -10.371019 -4.7286043 8.479619E-07
v -10.944969 -5.551704 9.46083E-07
v -9.958624 -5.1418395 8.427477E-07
v -9.046851 -5.5403924 8.3450374E-07
v -9.620802 -6.3634915 9.326248E-07
v -8.611399 -5.9435887 8.3450374E-07
v -7.9017725 -6.2661467 8.3450374E-07
v -8.475722 -7.0892463 9.326248E-07
v -7.0308666 -6.604832 8.3450374E-07
v -6.6693897 -7.9117723 9.326248E-07
v -7.604817 -7.4279313 9.326248E-07
v -6.5147753 -6.7177267 8.3450374E-07
v -7.0887256 -7.5408263 9.326248E-07
v -6.1852684 -7.282864 8.576531E-07
v -5.975891 -8.056923 9.326248E-07
v -3.5756066 -9.8526535 9.326248E-07
v -3.7352636 -11.494848 9.326248E-07
v -6.185554 -7.282785 9.326248E-07
vt 0.74981135 0.3786221
vt 0.6504775 0.3509074
vt 0.70339066 0.42725202
vt 0.06748215 0.002574781
vt 0.6216826 0.35215706
vt 0.5277441 0.33755225
vt 0.95567757 0.0005000512
vt 0.99950004 0.41084218
vt 0.32036692 0.36541253
vt 0.36074787 0.37807155
vt 0.4048775 0.3713524
vt 0.4923416 0.37022504
vt 0.5096452 0.36004433
vt 0.27788398 0.40461978
vt 0.0027014278 0.31370157
vt 0.060150735 0.48328114
vt 0.32704842 0.50034267
vt 1.1714354 0.4119183
vt 0.1886501 0.004308164
vt 1.0486321 0.0055980682
vt 0.9001621 0.31856504
vt 0.63780177 0.3131869
vt 0.80297685 0.32190487
vt 0.8623597 0.32559136
vt 0.5004293 0.32614258
vt 0.41235107 0.34670147
vt 0.8623597 0.32559136
vt 0.9001621 0.31856504
vt 0.8543278 0.34514734
vt 0.9530473 0.34451857
vt 0.9530473 0.34451857
vt 0.8543278 0.34514734
vt 0.80297685 0.32190487
vt 0.7858977 0.34656665
vt 0.9813513 0.38398704
vt 0.9813513 0.38398704
vt 1.002255 0.38506684
vt 1.002255 0.38506684
vt 1.0170896 0.40495232
vt 1.0170896 0.40495232
vt 1.1714354 0.4119183
vt 0.7858977 0.34656665
vt 0.76430595 0.35481772
vt 0.76430595 0.35481772
vt 0.7374347 0.34530208
vt 0.7031874 0.3217744
vt 0.7374347 0.34530208
vt 0.7031874 0.3217744
vt 0.66915953 0.31901863
vt 0.66915953 0.31901863
vt 0.63780177 0.3131869
vt 0.63019943 0.31779513
vt 0.63019943 0.31779513
vt 0.62211627 0.34351954
vt 0.62211627 0.34351954
vt 0.6004619 0.3389792
vt 0.6004619 0.3389792
vt 0.57812446 0.32697377
vt 0.57812446 0.32697377
vt 0.5581599 0.32539907
vt 0.5581599 0.32539907
vt 0.5353726 0.333954
vt 0.5353726 0.333954
vt 0.5004293 0.32614258
vt 0.44767165 0.35216394
vt 0.44767165 0.35216394
vt 0.41235107 0.34670147
vt 0.37070188 0.36591426
vt 0.37070188 0.36591426
vt 0.32230678 0.39429966
vt 0.26461557 0.41469678
vt 0.32230678 0.39429966
vt 0.29780474 0.41850063
vt 0.29780474 0.41850063
vt 0.26461557 0.41469678
vt 0.23200253 0.44776765
vt 0.057607803 0.45352563
vt -0.01458323 0.30507872
vt 0.27659634 0.4991465
vn -0 0 1
vn -0 0 1
vn -0 0 1
vn -0 0 1
vn -0 0 1
vn -0 0 1
vn -0 0 1
vn -0 0 1
vn -0 0 1
vn -0 0 1
vn -0 0 1
vn -0 0 1
vn -0 0 1
vn -0 0 1
vn -0 0 1
vn -0 0 1
vn -0 0 1
vn -0 0 1
vn -0 0 1
vn -0 0 1
vn 1.1138698E-07 0 1
vn -0 0 1
vn -0 1.04220035E-07 1
vn -0 0 1
vn -0 0 1
vn -0 0 1
vn -0 1.3059208E-07 1
vn -0 0 1
vn -0 0 1
vn -0 0 1
vn 1.4044127E-07 0 1
vn -0 0 1
vn -0 0 1
vn -0 0 1
vn -0 0 1
vn -0 0 1
vn -0 0 1
vn 1.3643019E-07 0 1
vn -0 0 1
vn -0 0 1
vn -0 0 1
vn -0 0 1
vn -0 0 1
vn -0 0 1
vn -0 0 1
vn -0 0 1
vn -0 0 1
vn -0 0 1
vn -0 0 1
vn 1.0330413E-06 1.1575746E-06 1
vn -0 0 1
vn -0 0 1
vn -0 0 1
vn -0 1.03804844E-07 1
vn -0 0 1
vn -0 1.03804844E-07 1
vn -2.5006747E-07 -1.7217029E-07 1
vn -0 0 1
vn 1.4160338E-07 2.0673089E-07 1
vn -0 0 1
vn -0 -1.3301528E-07 1
vn -0 0 1
vn -0 0 1
vn -0 0 1
vn -0 0 1
vn -0 0 1
vn -0 0 1
vn -0 0 1
vn -0 0 1
vn -0 1.0343225E-07 1
vn -0 0 1
vn -0 0 1
vn -0 0 1
vn -0 0 1
vn -0 1.02667784E-07 1
vn -0 0 1
vn -0 0 1
vn -0 0 1
vn -0 0 1
g sea2_0
f 3/3/3 2/2/2 1/1/1
f 2/2/2 4/4/4 1/1/1
f 5/5/5 4/4/4 2/2/2
f 6/6/6 4/4/4 5/5/5
f 4/4/4 7/7/7 1/1/1
f 7/7/7 8/8/8 1/1/1
f 9/9/9 4/4/4 6/6/6
f 10/10/10 9/9/9 6/6/6
f 11/11/11 10/10/10 6/6/6
f 12/12/12 11/11/11 6/6/6
f 13/13/13 12/12/12 6/6/6
f 14/14/14 4/4/4 9/9/9
f 15/15/15 4/4/4 14/14/14
f 16/16/16 15/15/15 14/14/14
f 17/17/17 16/16/16 14/14/14
f 20/20/20 19/19/19 18/18/18
f 18/18/18 19/19/19 21/21/21
f 19/19/19 22/22/22 21/21/21
f 21/21/21 22/22/22 23/23/23
f 24/24/24 21/21/21 23/23/23
f 25/25/25 22/22/22 19/19/19
f 26/26/26 25/25/25 19/19/19
f 24/24/24 27/27/27 21/21/21
f 28/28/28 21/21/21 27/27/27
f 27/27/27 24/24/24 29/29/29
f 21/21/21 28/28/28 30/30/30
f 30/30/30 18/18/18 21/21/21
f 31/31/31 30/30/30 28/28/28
f 32/32/32 29/29/29 24/24/24
f 32/32/32 24/24/24 23/23/23
f 29/29/29 32/32/32 33/33/33
f 23/23/23 33/33/33 32/32/32
f 33/33/33 23/23/23 34/34/34
f 30/30/30 31/31/31 35/35/35
f 36/36/36 35/35/35 31/31/31
f 35/35/35 37/37/37 30/30/30
f 35/35/35 36/36/36 37/37/37
f 37/37/37 18/18/18 30/30/30
f 38/38/38 37/37/37 36/36/36
f 37/37/37 38/38/38 39/39/39
f 39/39/39 18/18/18 37/37/37
f 40/40/40 39/39/39 38/38/38
f 39/39/39 40/40/40 18/18/18
f 41/41/41 18/18/18 40/40/40
f 42/42/42 34/34/34 23/23/23
f 34/34/34 42/42/42 43/43/43
f 44/44/44 43/43/43 42/42/42
f 42/42/42 23/23/23 44/44/44
f 43/43/43 44/44/44 45/45/45
f 23/23/23 46/46/46 44/44/44
f 22/22/22 46/46/46 23/23/23
f 47/47/47 45/45/45 44/44/44
f 44/44/44 46/46/46 47/47/47
f 45/45/45 47/47/47 48/48/48
f 46/46/46 48/48/48 47/47/47
f 48/48/48 46/46/46 49/49/49
f 50/50/50 49/49/49 46/46/46
f 50/50/50 46/46/46 22/22/22
f 49/49/49 50/50/50 51/51/51
f 22/22/22 51/51/51 50/50/50
f 51/51/51 22/22/22 52/52/52
f 53/53/53 52/52/52 22/22/22
f 52/52/52 53/53/53 54/54/54
f 53/53/53 22/22/22 25/25/25
f 55/55/55 54/54/54 53/53/53
f 54/54/54 55/55/55 56/56/56
f 57/57/57 56/56/56 55/55/55
f 56/56/56 57/57/57 58/58/58
f 57/57/57 55/55/55 59/59/59
f 59/59/59 58/58/58 57/57/57
f 55/55/55 53/53/53 59/59/59
f 58/58/58 59/59/59 60/60/60
f 59/59/59 53/53/53 61/61/61
f 61/61/61 60/60/60 59/59/59
f 61/61/61 53/53/53 25/25/25
f 60/60/60 61/61/61 62/62/62
f 63/63/63 62/62/62 61/61/61
f 63/63/63 61/61/61 25/25/25
f 62/62/62 63/63/63 64/64/64
f 25/25/25 64/64/64 63/63/63
f 64/64/64 25/25/25 65/65/65
f 66/66/66 65/65/65 25/25/25
f 65/65/65 66/66/66 67/67/67
f 66/66/66 25/25/25 26/26/26
f 26/26/26 67/67/67 66/66/66
f 67/67/67 26/26/26 68/68/68
f 69/69/69 68/68/68 26/26/26
f 68/68/68 69/69/69 70/70/70
f 69/69/69 26/26/26 71/71/71
f 71/71/71 26/26/26 19/19/19
f 72/72/72 70/70/70 69/69/69
f 72/72/72 69/69/69 71/71/71
f 70/70/70 72/72/72 73/73/73
f 74/74/74 73/73/73 72/72/72
f 74/74/74 72/72/72 71/71/71
f 73/73/73 74/74/74 75/75/75
f 71/71/71 75/75/75 74/74/74
f 76/76/76 75/75/75 71/71/71
f 76/76/76 71/71/71 19/19/19
f 77/77/77 76/76/76 19/19/19
f 78/78/78 77/77/77 19/19/19
f 79/79/79 76/76/76 77/77/77
