g sea3
v -12.330983 6.8196073 -1.780498E-07
v -10.498805 3.4792998 -4.3258274E-07
v -13.781382 6.2592716 -2.2181004E-07
v -11.373036 5.8160443 -1.780498E-07
v -11.247062 5.854367 -1.8483043E-07
v -12.177988 6.829623 -1.8483043E-07
v -10.737269 5.3889017 -1.8483043E-07
v -10.848447 5.3370695 -1.780498E-07
v -10.60428 5.278078 -1.8483043E-07
v -10.711599 5.223029 -1.780498E-07
v -10.415876 5.2115827 -1.8483043E-07
v -10.517727 5.154604 -1.780498E-07
v -9.895001 5.1340055 -1.8483043E-07
v -9.981733 5.0747747 -1.780498E-07
v -9.473868 4.9899344 -1.8483043E-07
v -9.548376 4.9265213 -1.780498E-07
v -8.762525 3.5702386 -3.9849678E-07
v -9.141394 5.0231814 -1.8483043E-07
v -7.415881 2.6914032 -2.8098046E-07
v -9.206252 4.9607344 -1.780498E-07
v -9.008405 4.945605 -1.8483043E-07
v -9.069403 4.880905 -1.780498E-07
v -8.842168 4.9566865 -1.8483043E-07
v -8.898341 4.8923087 -1.780498E-07
v -8.642683 4.7904496 -1.8483043E-07
v -8.693067 4.7212467 -1.780498E-07
v -8.321291 4.624212 -1.8483043E-07
v -8.362346 4.5501847 -1.780498E-07
v -8.033148 4.7682853 -1.8483043E-07
v -3.9160144 1.4460956 3.6659912E-08
v -8.06584 4.698439 -1.780498E-07
v -7.894778 5.0747747 -1.780498E-07
vt 0.65923315 0.33503735
vt 0.029240876 0.13131683
vt 0.6680599 0.116996594
vt 0.5235325 0.32984215
vt 0.5235325 0.32984215
vt 0.65923315 0.33503735
vt 0.4562005 0.3314382
vt 0.4562005 0.3314382
vt 0.43971434 0.3325407
vt 0.43971434 0.3325407
vt 0.42556763 0.3399619
vt 0.42556763 0.3399619
vt 0.3972678 0.36735752
vt 0.3972678 0.36735752
vt 0.36611 0.38424104
vt 0.36611 0.38424104
vt -0.034890674 0.31610185
vt 0.35646743 0.40708557
vt -0.0530923 0.368547
vt 0.35646743 0.40708557
vt 0.34336394 0.4103404
vt 0.34336394 0.4103404
vt 0.3379789 0.42140386
vt 0.3379789 0.42140386
vt 0.31324944 0.42305785
vt 0.31324944 0.42305785
vt 0.28374404 0.43229896
vt 0.28374404 0.43229896
vt 0.28711432 0.45955858
vt 0.06390629 0.49489737
vt 0.28711432 0.45955858
vt 0.31781244 0.4935795
vn -0 0 1
vn -0 -1.4900401E-07 1
vn -0 0 1
vn -1.8227493E-07 -1.7711976E-07 1
vn -0 0 1
vn -0 0 1
vn -0 0 1
vn -1.47667E-07 -1.6480169E-07 1
vn -0 0 1
vn -1.0951869E-07 -1.5933546E-07 1
vn -0 0 1
vn -0 -1.5239137E-07 1
vn -0 0 1
vn -0 -1.4768376E-07 1
vn -0 0 1
vn -0 -1.3876729E-07 1
vn -2.2354764E-07 -2.9206467E-07 1
vn -0 1.2116537E-07 1
vn -1.3769831E-07 -1.3529181E-07 1
vn -0 0 1
vn -0 0 1
vn -0 0 1
vn -0 1.1183098E-07 1
vn -0 0 1
vn -0 0 1
vn -0 -1.0162931E-07 1
vn -0 0 1
vn -0 0 1
vn -0 1.2673985E-07 1
vn -1.00775736E-07 0 1
vn -0 0 1
vn -0 0 1
g sea3_0
f 3/3/3 2/2/2 1/1/1
f 2/2/2 4/4/4 1/1/1
f 4/4/4 5/5/5 1/1/1
f 6/6/6 1/1/1 5/5/5
f 5/5/5 4/4/4 7/7/7
f 8/8/8 7/7/7 4/4/4
f 8/8/8 4/4/4 2/2/2
f 7/7/7 8/8/8 9/9/9
f 10/10/10 9/9/9 8/8/8
f 10/10/10 8/8/8 2/2/2
f 9/9/9 10/10/10 11/11/11
f 12/12/12 11/11/11 10/10/10
f 12/12/12 10/10/10 2/2/2
f 11/11/11 12/12/12 13/13/13
f 14/14/14 13/13/13 12/12/12
f 14/14/14 12/12/12 2/2/2
f 13/13/13 14/14/14 15/15/15
f 16/16/16 14/14/14 2/2/2
f 16/16/16 15/15/15 14/14/14
f 17/17/17 16/16/16 2/2/2
f 15/15/15 16/16/16 18/18/18
f 19/19/19 16/16/16 17/17/17
f 20/20/20 18/18/18 16/16/16
f 20/20/20 16/16/16 19/19/19
f 18/18/18 20/20/20 21/21/21
f 22/22/22 21/21/21 20/20/20
f 22/22/22 20/20/20 19/19/19
f 21/21/21 22/22/22 23/23/23
f 24/24/24 23/23/23 22/22/22
f 24/24/24 22/22/22 19/19/19
f 23/23/23 24/24/24 25/25/25
f 26/26/26 25/25/25 24/24/24
f 26/26/26 24/24/24 19/19/19
f 25/25/25 26/26/26 27/27/27
f 28/28/28 26/26/26 19/19/19
f 28/28/28 27/27/27 26/26/26
f 27/27/27 28/28/28 29/29/29
f 30/30/30 28/28/28 19/19/19
f 31/31/31 29/29/29 28/28/28
f 31/31/31 28/28/28 30/30/30
f 32/32/32 31/31/31 30/30/30
