g FX_Firework_031
v -18.715933 -4.7786083 2.814182E-06
v -21.583818 -8.87437 2.783656E-06
v -17.488058 -11.742253 2.2270704E-06
v -14.620173 -7.646492 2.2575964E-06
v 9.150796 14.686379 -2.3103864E-06
v 13.849269 16.396479 -3.901433E-06
v 12.139167 21.094946 -6.119661E-06
v 7.440699 19.384844 -4.528617E-06
v -4.9353323 -12.5835705 -2.6523398E-07
v -4.935332 -17.58357 -7.2747525E-07
v 0.064667866 -17.58357 -1.7275479E-06
v 0.0646725 -12.583572 -1.2653068E-06
v 8.213705 -5.9239554 -3.5202715E-06
v 10.713711 -10.2540865 -4.529757E-06
v 15.043829 -7.754085 -5.5720247E-06
v 12.54383 -3.4239573 -4.562539E-06
vt 0 0
vt 0 1
vt 1 1
vt 1 0
vt 0 0
vt 0 1
vt 1 1
vt 1 0
vt 0 0
vt 0 1
vt 1 1
vt 1 0
vt 0 0
vt 0 1
vt 1 1
vt 1 0
vn -0 0 -1
vn -0 0 -1
vn -0 0 -1
vn -0 0 -1
vn -1.4728285E-07 -5.257242E-07 -1
vn -1.4728285E-07 -5.257242E-07 -1
vn -1.4728285E-07 -5.257242E-07 -1
vn -1.4728285E-07 -5.257242E-07 -1
vn -2.0001444E-07 0 -1
vn -2.0001444E-07 0 -1
vn -2.0001444E-07 0 -1
vn -2.0001444E-07 0 -1
vn -2.814748E-07 0 -1
vn -2.8147483E-07 0 -1
vn -2.814748E-07 0 -1
vn -2.8147483E-07 0 -1
g FX_Firework_031_0
f 3/3/3 2/2/2 1/1/1
f 4/4/4 3/3/3 1/1/1
f 7/7/7 6/6/6 5/5/5
f 8/8/8 7/7/7 5/5/5
f 11/11/11 10/10/10 9/9/9
f 12/12/12 11/11/11 9/9/9
f 15/15/15 14/14/14 13/13/13
f 16/16/16 15/15/15 13/13/13
