g FX_Firework_041
v -9.145101 11.0629225 -2.7924714E-06
v -14.415223 10.601842 -3.6478225E-06
v -13.954145 5.3317266 -3.1243806E-06
v -8.684028 5.7928014 -2.2690288E-06
v 2.8907208 12.333523 -8.701819E-07
v 4.1848125 17.163155 -2.926404E-06
v -0.64481485 18.45725 -3.7935704E-06
v -1.9389175 13.627621 -1.7373475E-06
v -12.238685 -13.785027 9.769592E-07
v -13.948788 -18.48349 6.401733E-07
v -9.250326 -20.193592 1.6261411E-07
v -7.540221 -15.495129 4.994011E-07
v 14.779351 7.1102076 -7.97087E-06
v 19.93607 5.7284718 -1.0275604E-05
v 21.317806 10.885183 -1.1694328E-05
v 16.161089 12.266924 -9.389597E-06
vt 0 0
vt 0 1
vt 1 1
vt 1 0
vt 0 0
vt 0 1
vt 1 1
vt 1 0
vt 0 0
vt 0 1
vt 1 1
vt 1 0
vt 0 0
vt 0 1
vt 1 1
vt 1 0
vn 1.6969287E-07 0 -1
vn 1.6969287E-07 0 -1
vn 1.696929E-07 0 -1
vn 1.696929E-07 0 -1
vn -0 -4.421193E-07 -1
vn -0 -4.4211927E-07 -1
vn -0 -4.4211927E-07 -1
vn -0 -4.4211924E-07 -1
vn -0 0 -1
vn -0 0 -1
vn -0 0 -1
vn -0 0 -1
vn -4.857794E-07 -1.4495788E-07 -1
vn -4.8577937E-07 -1.4495787E-07 -1
vn -4.857794E-07 -1.4495791E-07 -1
vn -4.8577937E-07 -1.4495788E-07 -1
g FX_Firework_041_0
f 3/3/3 2/2/2 1/1/1
f 4/4/4 3/3/3 1/1/1
f 7/7/7 6/6/6 5/5/5
f 8/8/8 7/7/7 5/5/5
f 11/11/11 10/10/10 9/9/9
f 12/12/12 11/11/11 9/9/9
f 15/15/15 14/14/14 13/13/13
f 16/16/16 15/15/15 13/13/13
