g FX_Line_8
v -9.396602 13.718408 -1.1106335E-06
v -9.39346 13.789504 -1.1113888E-06
v -8.361271 13.364243 -1.1439457E-06
v -8.365508 13.293597 -1.143155E-06
v -7.3030744 12.901245 -1.1721115E-06
v -7.3096604 12.831627 -1.1712577E-06
v -6.2239575 12.396468 -1.1953673E-06
v -6.2332 12.328092 -1.1944558E-06
v -5.128546 11.845676 -1.2132089E-06
v -5.1407175 11.778773 -1.2122489E-06
v -4.021465 11.244635 -1.2251319E-06
v -4.036817 11.179459 -1.2241369E-06
v -2.9073448 10.589111 -1.230632E-06
v -2.926087 10.5259285 -1.2296193E-06
v -1.7908151 9.874874 -1.2292047E-06
v -1.8131225 9.8139715 -1.228196E-06
v -0.6765045 9.097686 -1.2203465E-06
v -0.70251554 9.039368 -1.2193663E-06
v 0.43095276 8.253318 -1.2035526E-06
v 0.401145 8.197895 -1.2026292E-06
v 1.5269214 7.3375463 -1.17832E-06
v 1.4932715 7.285334 -1.1774844E-06
v 2.606767 6.3461432 -1.1441448E-06
v 2.5692754 6.297457 -1.1434299E-06
v 3.6658502 5.27489 -1.1005242E-06
v 3.624572 5.230034 -1.0999648E-06
v 4.699535 4.1195726 -1.0469558E-06
v 4.654577 4.0788302 -1.0465867E-06
v 5.703187 2.8759782 -9.829373E-07
v 5.654702 2.8396077 -9.827928E-07
v 6.672174 1.5398998 -9.0796715E-07
v 6.620356 1.508124 -9.0808044E-07
v 7.601091 0.108327635 -8.216126E-07
v 7.5477233 0.0789389 -8.218776E-07
v -17.006817 9.597657 -0.13836318
v -17.02301 9.699237 -0.13216025
v -15.4865675 9.44374 0.0030201024
v -15.474374 9.342827 -0.0035350763
v -13.909336 9.0923 0.13939093
v -13.904961 8.993129 0.13215971
v -12.29079 8.647706 -5.0029973E-07
v -12.294349 8.550539 -4.9910767E-07
v -10.660257 8.103111 -5.5394395E-07
v -10.671239 8.008424 -5.5185774E-07
v -9.021491 7.4591064 -5.950711E-07
v -9.039773 7.36729 -5.92985E-07
v -7.3846717 6.714404 -6.2427745E-07
v -7.410192 6.6258826 -6.2189326E-07
v -5.7600045 5.867716 -6.415628E-07
v -5.7927203 5.7829413 -6.388806E-07
v -4.157692 4.917741 -6.469272E-07
v -4.197574 4.837221 -6.4364895E-07
v -2.587943 3.8631914 -6.391786E-07
v -2.6349695 3.787467 -6.3709246E-07
v -1.0609857 2.7027686 -6.195091E-07
v -1.1151062 2.6324327 -6.1682687E-07
v 0.41295043 1.4351802 -5.870245E-07
v 0.35183105 1.370864 -5.843423E-07
v 1.8236266 0.059132382 -5.42321E-07
v 1.7556444 0.0015075683 -5.399368E-07
v 3.1607983 -1.4266543 -4.839085E-07
v 3.0861707 -1.4768978 -4.8241833E-07
v 4.4141994 -3.0234554 -4.120849E-07
v 4.333242 -3.065627 -4.1148883E-07
v 5.573579 -4.7325277 -3.2863838E-07
v 5.486693 -4.7659664 -3.2804232E-07
v 6.6272974 -6.552766 -2.3058874E-07
v 6.5377293 -6.581565 -2.2969466E-07
vt 0.0045467615 0.99402237
vt 0.0045467615 0.0033023357
vt 0.052063107 0.0033023357
vt 0.052063942 0.99402237
vt 0.10495317 0.0033023357
vt 0.10495317 0.99402237
vt 0.16114229 0.0033023357
vt 0.16114229 0.99402237
vt 0.22002035 0.0033023357
vt 0.22002035 0.99402237
vt 0.2809912 0.0033023357
vt 0.2809912 0.99402237
vt 0.34347034 0.0033023357
vt 0.34347034 0.99402237
vt 0.4069082 0.0033023357
vt 0.4069082 0.99402237
vt 0.47082865 0.0033023357
vt 0.4708287 0.99402237
vt 0.5348706 0.0033023357
vt 0.5348706 0.99402237
vt 0.5988177 0.0033023357
vt 0.5988178 0.99402237
vt 0.66264105 0.0033023357
vt 0.66264105 0.99402237
vt 0.7265607 0.0033023357
vt 0.7265607 0.99402237
vt 0.79111636 0.0033023357
vt 0.7911164 0.99402237
vt 0.85718715 0.0033023357
vt 0.85718757 0.99402237
vt 0.9258755 0.0033023357
vt 0.92587477 0.99402237
vt 0.99800557 0.0033023357
vt 0.99800557 0.99402237
vt 0.0045467615 0.99402237
vt 0.0045467615 0.0033023357
vt 0.06007111 0.0033023357
vt 0.06007266 0.99402237
vt 0.11427724 0.0033023357
vt 0.11427677 0.99402237
vt 0.17245728 0.0033023357
vt 0.17245728 0.99402237
vt 0.23382086 0.0033023357
vt 0.23382068 0.99402237
vt 0.29753208 0.0033023357
vt 0.29753208 0.99402237
vt 0.36273736 0.0033023357
vt 0.36273736 0.99402237
vt 0.4286164 0.0033023357
vt 0.4286164 0.99402237
vt 0.49444562 0.0033023357
vt 0.49444562 0.99402237
vt 0.55964416 0.0033023357
vt 0.55964416 0.99402237
vt 0.62380624 0.0033023357
vt 0.62380636 0.99402237
vt 0.68673974 0.0033023357
vt 0.6867399 0.99402237
vt 0.7485259 0.0033023357
vt 0.74852604 0.99402237
vt 0.8095814 0.0033023357
vt 0.8095814 0.99402237
vt 0.8706696 0.0033023357
vt 0.8706703 0.99402237
vt 0.9327828 0.0033023357
vt 0.93278176 0.99402237
vt 0.99800557 0.0033023357
vt 0.99800557 0.99402237
vn -0 0 1
vn -0 0 1
vn -0 0 1
vn -0 0 1
vn -0 0 1
vn -0 0 1
vn -0 0 1
vn -0 0 1
vn -0 0 1
vn -0 0 1
vn -0 0 1
vn -0 0 1
vn -0 0 1
vn -0 0 1
vn -0 0 1
vn -0 0 1
vn -0 0 1
vn -0 0 1
vn -0 0 1
vn -0 0 1
vn -0 0 1
vn -0 0 1
vn -0 0 1
vn -0 0 1
vn -0 0 1
vn -0 0 1
vn -0 0 1
vn -0 0 1
vn -0 0 1
vn -0 0 1
vn -0 0 1
vn -0 0 1
vn -0 0 1
vn -0 0 1
vn -0.100007445 -0.0765244 0.99203956
vn -0.10000746 -0.0765244 0.99203956
vn -0.10115645 -0.07665539 0.99191296
vn -0.10171187 -0.07671867 0.9918513
vn -0.031054432 -0.060620565 0.99767774
vn 0.001245051 -0.053225916 0.99858165
vn 0.043113787 -0.021261701 0.9988439
vn 0.030965954 -0.01527095 0.9994037
vn -0 0 1
vn -0 0 1
vn -0 0 1
vn -0 0 1
vn -0 0 1
vn -0 0 1
vn -0 0 1
vn -0 0 1
vn -0 0 1
vn -0 0 1
vn -0 0 1
vn -0 0 1
vn -0 0 1
vn -0 0 1
vn -0 0 1
vn -0 0 1
vn -0 0 1
vn -0 0 1
vn -0 0 1
vn -0 0 1
vn -0 0 1
vn -0 0 1
vn -0 0 1
vn -0 0 1
vn -0 0 1
vn -0 0 1
g FX_Line_8_0
f 3/3/3 2/2/2 1/1/1
f 4/4/4 3/3/3 1/1/1
f 5/5/5 3/3/3 4/4/4
f 6/6/6 5/5/5 4/4/4
f 7/7/7 5/5/5 6/6/6
f 8/8/8 7/7/7 6/6/6
f 9/9/9 7/7/7 8/8/8
f 10/10/10 9/9/9 8/8/8
f 11/11/11 9/9/9 10/10/10
f 12/12/12 11/11/11 10/10/10
f 13/13/13 11/11/11 12/12/12
f 14/14/14 13/13/13 12/12/12
f 15/15/15 13/13/13 14/14/14
f 16/16/16 15/15/15 14/14/14
f 17/17/17 15/15/15 16/16/16
f 18/18/18 17/17/17 16/16/16
f 19/19/19 17/17/17 18/18/18
f 20/20/20 19/19/19 18/18/18
f 21/21/21 19/19/19 20/20/20
f 22/22/22 21/21/21 20/20/20
f 23/23/23 21/21/21 22/22/22
f 24/24/24 23/23/23 22/22/22
f 25/25/25 23/23/23 24/24/24
f 26/26/26 25/25/25 24/24/24
f 27/27/27 25/25/25 26/26/26
f 28/28/28 27/27/27 26/26/26
f 29/29/29 27/27/27 28/28/28
f 30/30/30 29/29/29 28/28/28
f 31/31/31 29/29/29 30/30/30
f 32/32/32 31/31/31 30/30/30
f 31/31/31 32/32/32 33/33/33
f 32/32/32 34/34/34 33/33/33
f 37/37/37 36/36/36 35/35/35
f 38/38/38 37/37/37 35/35/35
f 39/39/39 37/37/37 38/38/38
f 40/40/40 39/39/39 38/38/38
f 41/41/41 39/39/39 40/40/40
f 42/42/42 41/41/41 40/40/40
f 43/43/43 41/41/41 42/42/42
f 44/44/44 43/43/43 42/42/42
f 45/45/45 43/43/43 44/44/44
f 46/46/46 45/45/45 44/44/44
f 47/47/47 45/45/45 46/46/46
f 48/48/48 47/47/47 46/46/46
f 49/49/49 47/47/47 48/48/48
f 50/50/50 49/49/49 48/48/48
f 51/51/51 49/49/49 50/50/50
f 52/52/52 51/51/51 50/50/50
f 53/53/53 51/51/51 52/52/52
f 54/54/54 53/53/53 52/52/52
f 55/55/55 53/53/53 54/54/54
f 56/56/56 55/55/55 54/54/54
f 57/57/57 55/55/55 56/56/56
f 58/58/58 57/57/57 56/56/56
f 59/59/59 57/57/57 58/58/58
f 60/60/60 59/59/59 58/58/58
f 61/61/61 59/59/59 60/60/60
f 62/62/62 61/61/61 60/60/60
f 63/63/63 61/61/61 62/62/62
f 64/64/64 63/63/63 62/62/62
f 65/65/65 63/63/63 64/64/64
f 66/66/66 65/65/65 64/64/64
f 65/65/65 66/66/66 67/67/67
f 66/66/66 68/68/68 67/67/67
