g FX_Line_4
v -4.1468077 12.513568 -1.0209018E-06
v -4.121443 12.579579 -1.0206844E-06
v -3.1697545 11.980875 -1.0247559E-06
v -3.1965942 11.9157915 -1.0249654E-06
v -2.1938426 11.322742 -1.0216786E-06
v -2.223584 11.259617 -1.0218968E-06
v -1.2010351 10.605901 -1.011522E-06
v -1.2336541 10.544853 -1.0117692E-06
v -0.1979309 9.83061 -9.943586E-07
v -0.2334204 9.77178 -9.946543E-07
v 0.80887204 8.997125 -9.7026E-07
v 0.77050656 8.940676 -9.706239E-07
v 1.812777 8.1057 -9.392973E-07
v 1.7715155 8.051822 -9.3975E-07
v 2.8071778 7.156589 -9.015421E-07
v 2.7630005 7.1054955 -9.021048E-07
v 3.7854693 6.150049 -8.570652E-07
v 3.7383564 6.1019764 -8.577607E-07
v 4.741045 5.086335 -8.059377E-07
v 4.6909823 5.0415444 -8.067903E-07
v 5.667291 3.9657006 -7.4823066E-07
v 5.6142797 3.9244792 -7.4926623E-07
v 6.5575976 2.788402 -6.8401465E-07
v 6.5016513 2.7510598 -6.85261E-07
v 7.4053454 1.5546963 -6.1335703E-07
v 7.346506 1.521564 -6.14851E-07
v 8.203914 0.2648419 -5.3633573E-07
v 8.142253 0.23626739 -5.3810163E-07
v 8.946678 -1.0808982 -4.530186E-07
v 8.882307 -1.104559 -4.5508855E-07
v 9.627018 -2.4822633 -3.6347677E-07
v 9.5600815 -2.5006418 -3.6588406E-07
v 10.237698 -3.9375417 -2.6787674E-07
v 10.1696005 -3.9531562 -2.7046534E-07
v -17.32205 8.1138525 -1.7176808E-07
v -17.298468 8.261987 -1.7832481E-07
v -15.754513 8.0162 -2.6675937E-07
v -15.782118 7.8687057 -2.599633E-07
v -14.169222 7.674691 -3.439327E-07
v -14.204686 7.52889 -3.3675343E-07
v -12.554846 7.2364755 -4.0959347E-07
v -12.5979185 7.092739 -4.0210398E-07
v -10.921549 6.700227 -4.636036E-07
v -10.972056 6.558932 -4.558674E-07
v -9.2795105 6.064612 -5.0582315E-07
v -9.337334 5.9261484 -4.9789776E-07
v -7.638906 5.3282895 -5.36111E-07
v -7.7039843 5.1930823 -5.280505E-07
v -6.0099297 4.4899187 -5.543247E-07
v -6.082223 4.358425 -5.461823E-07
v -4.402778 3.5481524 -5.603212E-07
v -4.482264 3.4208734 -5.521504E-07
v -2.8276587 2.501643 -5.539489E-07
v -2.9143102 2.379125 -5.4582074E-07
v -1.2947881 1.3490433 -5.350783E-07
v -1.3885577 1.2318777 -5.270371E-07
v 0.18561217 0.08900726 -5.0355754E-07
v 0.08480896 -0.02217224 -4.956655E-07
v 1.6033081 -1.279808 -4.5924193E-07
v 1.4956104 -1.3843307 -4.5156483E-07
v 2.9480584 -2.758738 -4.0198708E-07
v 2.8336797 -2.8559134 -3.9459383E-07
v 4.2096095 -4.3491054 -3.316491E-07
v 4.088857 -4.438247 -3.2461054E-07
v 5.3777137 -6.052229 -2.4808455E-07
v 5.2509875 -6.132661 -2.414728E-07
v 6.4407263 -7.8670516 -1.5127628E-07
v 6.311295 -7.942865 -1.4491187E-07
vt 0.0045467615 0.99402237
vt 0.0045467615 0.0033023357
vt 0.05757332 0.0033023357
vt 0.05757439 0.99402237
vt 0.11439955 0.0033023357
vt 0.114399254 0.99402237
vt 0.1735956 0.0033023357
vt 0.1735956 0.99402237
vt 0.23469901 0.0033023357
vt 0.23469901 0.99402237
vt 0.29718512 0.0033023357
vt 0.29718512 0.99402237
vt 0.36047274 0.0033023357
vt 0.36047274 0.99402237
vt 0.42396897 0.0033023357
vt 0.42396897 0.99402237
vt 0.48713636 0.0033023357
vt 0.48713636 0.99402237
vt 0.5495616 0.0033023357
vt 0.5495617 0.99402237
vt 0.61103046 0.0033023357
vt 0.61103046 0.99402237
vt 0.6716273 0.0033023357
vt 0.6716273 0.99402237
vt 0.7318599 0.0033023357
vt 0.7318598 0.99402237
vt 0.79277086 0.0033023357
vt 0.7927706 0.99402237
vt 0.85593307 0.0033023357
vt 0.8559338 0.99402237
vt 0.9232026 0.0033023357
vt 0.9232017 0.99402237
vt 0.99800557 0.0033023357
vt 0.99800557 0.99402237
vt 0.0045467615 0.99402237
vt 0.0045467615 0.0033023357
vt 0.06007111 0.0033023357
vt 0.06007266 0.99402237
vt 0.11427724 0.0033023357
vt 0.11427677 0.99402237
vt 0.17245728 0.0033023357
vt 0.17245728 0.99402237
vt 0.23382086 0.0033023357
vt 0.23382068 0.99402237
vt 0.29753208 0.0033023357
vt 0.29753208 0.99402237
vt 0.36273736 0.0033023357
vt 0.36273736 0.99402237
vt 0.4286164 0.0033023357
vt 0.4286164 0.99402237
vt 0.49444562 0.0033023357
vt 0.49444562 0.99402237
vt 0.55964416 0.0033023357
vt 0.55964416 0.99402237
vt 0.62380624 0.0033023357
vt 0.62380636 0.99402237
vt 0.68673974 0.0033023357
vt 0.6867399 0.99402237
vt 0.7485259 0.0033023357
vt 0.74852604 0.99402237
vt 0.8095814 0.0033023357
vt 0.8095814 0.99402237
vt 0.8706696 0.0033023357
vt 0.8706703 0.99402237
vt 0.9327828 0.0033023357
vt 0.93278176 0.99402237
vt 0.99800557 0.0033023357
vt 0.99800557 0.99402237
vn -0 0 1
vn -0 0 1
vn -0 0 1
vn -0 0 1
vn -0 0 1
vn -0 0 1
vn -0 0 1
vn -0 0 1
vn -0 0 1
vn -0 0 1
vn -0 0 1
vn -0 0 1
vn -0 0 1
vn -0 0 1
vn -0 0 1
vn -0 0 1
vn -0 0 1
vn -0 0 1
vn -0 0 1
vn -0 0 1
vn -0 0 1
vn -0 0 1
vn -0 0 1
vn -0 0 1
vn -0 0 1
vn -0 0 1
vn -0 0 1
vn -0 0 1
vn -0 0 1
vn -0 0 1
vn -0 0 1
vn -0 0 1
vn -0 0 1
vn -0 0 1
vn -0 0 1
vn -0 0 1
vn -0 0 1
vn -0 0 1
vn -0 0 1
vn -0 0 1
vn -0 0 1
vn -0 0 1
vn -0 0 1
vn -0 0 1
vn -0 0 1
vn -0 0 1
vn -0 0 1
vn -0 0 1
vn -0 0 1
vn -0 0 1
vn -0 0 1
vn -0 0 1
vn -0 0 1
vn -0 0 1
vn -0 0 1
vn -0 0 1
vn -0 0 1
vn -0 0 1
vn -0 0 1
vn -0 0 1
vn -0 0 1
vn -0 0 1
vn -0 0 1
vn -0 0 1
vn -0 0 1
vn -0 0 1
vn -0 0 1
vn -0 0 1
g FX_Line_4_0
f 3/3/3 2/2/2 1/1/1
f 4/4/4 3/3/3 1/1/1
f 5/5/5 3/3/3 4/4/4
f 6/6/6 5/5/5 4/4/4
f 7/7/7 5/5/5 6/6/6
f 8/8/8 7/7/7 6/6/6
f 9/9/9 7/7/7 8/8/8
f 10/10/10 9/9/9 8/8/8
f 11/11/11 9/9/9 10/10/10
f 12/12/12 11/11/11 10/10/10
f 13/13/13 11/11/11 12/12/12
f 14/14/14 13/13/13 12/12/12
f 15/15/15 13/13/13 14/14/14
f 16/16/16 15/15/15 14/14/14
f 17/17/17 15/15/15 16/16/16
f 18/18/18 17/17/17 16/16/16
f 19/19/19 17/17/17 18/18/18
f 20/20/20 19/19/19 18/18/18
f 21/21/21 19/19/19 20/20/20
f 22/22/22 21/21/21 20/20/20
f 23/23/23 21/21/21 22/22/22
f 24/24/24 23/23/23 22/22/22
f 25/25/25 23/23/23 24/24/24
f 26/26/26 25/25/25 24/24/24
f 27/27/27 25/25/25 26/26/26
f 28/28/28 27/27/27 26/26/26
f 29/29/29 27/27/27 28/28/28
f 30/30/30 29/29/29 28/28/28
f 31/31/31 29/29/29 30/30/30
f 32/32/32 31/31/31 30/30/30
f 31/31/31 32/32/32 33/33/33
f 32/32/32 34/34/34 33/33/33
f 37/37/37 36/36/36 35/35/35
f 38/38/38 37/37/37 35/35/35
f 39/39/39 37/37/37 38/38/38
f 40/40/40 39/39/39 38/38/38
f 41/41/41 39/39/39 40/40/40
f 42/42/42 41/41/41 40/40/40
f 43/43/43 41/41/41 42/42/42
f 44/44/44 43/43/43 42/42/42
f 45/45/45 43/43/43 44/44/44
f 46/46/46 45/45/45 44/44/44
f 47/47/47 45/45/45 46/46/46
f 48/48/48 47/47/47 46/46/46
f 49/49/49 47/47/47 48/48/48
f 50/50/50 49/49/49 48/48/48
f 51/51/51 49/49/49 50/50/50
f 52/52/52 51/51/51 50/50/50
f 53/53/53 51/51/51 52/52/52
f 54/54/54 53/53/53 52/52/52
f 55/55/55 53/53/53 54/54/54
f 56/56/56 55/55/55 54/54/54
f 57/57/57 55/55/55 56/56/56
f 58/58/58 57/57/57 56/56/56
f 59/59/59 57/57/57 58/58/58
f 60/60/60 59/59/59 58/58/58
f 61/61/61 59/59/59 60/60/60
f 62/62/62 61/61/61 60/60/60
f 63/63/63 61/61/61 62/62/62
f 64/64/64 63/63/63 62/62/62
f 65/65/65 63/63/63 64/64/64
f 66/66/66 65/65/65 64/64/64
f 65/65/65 66/66/66 67/67/67
f 66/66/66 68/68/68 67/67/67
