g FX_Line_2
v 2.8589787 15.047215 -1.6087891E-06
v 2.9317334 15.129287 -1.6107979E-06
v 3.6723626 14.47274 -1.5886046E-06
v 3.5985394 14.391616 -1.5866262E-06
v 4.412131 13.781683 -1.5623509E-06
v 4.336189 13.702538 -1.5604476E-06
v 5.147556 13.056832 -1.5321077E-06
v 5.0694885 12.979781 -1.5302915E-06
v 5.8756776 12.298436 -1.4979292E-06
v 5.7954783 12.223606 -1.4962128E-06
v 6.593534 11.506753 -1.4598704E-06
v 6.5111985 11.4342785 -1.4582669E-06
v 7.298164 10.682031 -1.4179851E-06
v 7.213689 10.6120615 -1.4165086E-06
v 7.986605 9.824525 -1.372328E-06
v 7.8999925 9.757219 -1.3709928E-06
v 8.655894 8.934487 -1.3229533E-06
v 8.567151 8.870013 -1.3217749E-06
v 9.303065 8.01217 -1.2699154E-06
v 9.21221 7.950708 -1.2689098E-06
v 9.925154 7.0578284 -1.2132687E-06
v 9.832211 6.999564 -1.2124526E-06
v 10.519192 6.0717125 -1.1530674E-06
v 10.424203 6.016848 -1.1524584E-06
v 11.082212 5.0540805 -1.0893636E-06
v 10.9852295 5.0028186 -1.0889845E-06
v 11.611246 4.005189 -1.0222167E-06
v 11.512342 3.9577334 -1.0220813E-06
v 12.103324 2.9252908 -9.516787E-07
v 12.002589 2.8818562 -9.5180576E-07
v 12.555474 1.8146487 -8.7780455E-07
v 12.453018 1.7754403 -8.782126E-07
v 12.964323 0.6746439 -8.00725E-07
v 12.861085 0.6376187 -8.012804E-07
v -16.232513 4.7525544 1.9319122E-09
v -16.222998 4.8618174 -3.0198861E-09
v -15.084658 4.762683 -8.086146E-08
v -15.097218 4.653684 -7.5694516E-08
v -13.9120245 4.5943327 -1.5066522E-07
v -13.930512 4.486185 -1.4514528E-07
v -12.713546 4.356366 -2.1225277E-07
v -12.737697 4.2493434 -2.064415E-07
v -11.496068 4.0482364 -2.6555065E-07
v -11.525688 3.9425979 -2.5949961E-07
v -10.266439 3.6693866 -3.1048384E-07
v -10.301389 3.5653903 -3.0423755E-07
v -9.031521 3.2192602 -3.469758E-07
v -9.0717 3.1171694 -3.4057447E-07
v -7.798171 2.6972933 -3.7494962E-07
v -7.8435144 2.597388 -3.6843048E-07
v -6.573258 2.10292 -3.9432723E-07
v -6.6237226 2.0055003 -3.8772632E-07
v -5.3636518 1.4355725 -4.0502553E-07
v -5.4192114 1.3409632 -3.9838804E-07
v -4.176229 0.69468075 -4.0697464E-07
v -4.23686 0.6032358 -4.0032842E-07
v -3.0178697 -0.12032531 -4.0009064E-07
v -3.0835435 -0.20822234 -3.9347404E-07
v -1.8954607 -1.0100168 -3.8429414E-07
v -1.9661334 -1.0939513 -3.777474E-07
v -0.8158954 -1.9749631 -3.595052E-07
v -0.89149475 -2.0544937 -3.530713E-07
v 0.21392761 -3.0157259 -3.2564424E-07
v 0.13351868 -3.0903964 -3.1936804E-07
v 1.1871094 -4.132873 -2.8263145E-07
v 1.1020483 -4.202204 -2.765604E-07
v 2.095617 -5.3254857 -2.3045149E-07
v 2.0083709 -5.391948 -2.2450659E-07
v -8.181346 11.921302 -0.13836345
v -8.123329 12.059488 -0.13216053
v -6.689391 11.451411 0.003019863
v -6.751141 11.314808 -0.0035353105
v -5.2382593 10.740506 0.13939074
v -5.307203 10.607427 0.13215953
v -3.7687688 9.929364 -6.534837E-07
v -3.844957 9.800093 -6.481193E-07
v -2.3110354 9.018193 -6.6302044E-07
v -2.393858 8.89307 -6.5735804E-07
v -0.86856747 8.00845 -6.6063626E-07
v -0.9578161 7.887825 -6.5497386E-07
v 0.54843384 6.901261 -6.466292E-07
v 0.45291868 6.7855344 -6.4096673E-07
v 1.9297454 5.697765 -6.2159523E-07
v 1.8281121 5.5873656 -6.159328E-07
v 3.2651446 4.3990855 -5.8493833E-07
v 3.1575396 4.2945013 -5.7897785E-07
v 4.5444036 3.00636 -5.372546E-07
v 4.430976 2.9081109 -5.321882E-07
v 5.757275 1.5207211 -4.788421E-07
v 5.6382127 1.4293714 -4.7347766E-07
v 6.893512 -0.05669403 -4.0940267E-07
v 6.769054 -0.14055145 -4.0433628E-07
v 7.942855 -1.7247446 -3.2953244E-07
v 7.813292 -1.8004892 -3.250621E-07
v 8.895046 -3.4822774 -2.3893338E-07
v 8.760751 -3.5492916 -2.3505908E-07
v 9.739808 -5.3281283 -1.376055E-07
v 9.601248 -5.385815 -1.3462525E-07
v 10.466877 -7.2611203 -2.7038876E-08
v 10.324595 -7.308928 -2.465469E-08
v 11.065196 -9.277453 9.3660525E-08
v 10.921395 -9.320123 9.6044715E-08
vt 0.0045467615 0.99402237
vt 0.0045467615 0.0033023357
vt 0.06573045 0.0033023357
vt 0.0657323 0.99402237
vt 0.12957776 0.0033023357
vt 0.12957698 0.99402237
vt 0.19323277 0.0033023357
vt 0.19323277 0.99402237
vt 0.25671893 0.0033023357
vt 0.25671893 0.99402237
vt 0.31989598 0.0033023357
vt 0.31989598 0.99402237
vt 0.382491 0.0033023357
vt 0.382491 0.99402237
vt 0.44418275 0.0033023357
vt 0.44418275 0.99402237
vt 0.5046876 0.0033023357
vt 0.5046876 0.99402237
vt 0.56383824 0.0033023357
vt 0.5638385 0.99402237
vt 0.6216784 0.0033023357
vt 0.6216786 0.99402237
vt 0.67858815 0.0033023357
vt 0.67858833 0.99402237
vt 0.7354393 0.0033023357
vt 0.7354395 0.99402237
vt 0.7937263 0.0033023357
vt 0.79372597 0.99402237
vt 0.8555477 0.0033023357
vt 0.8555489 0.99402237
vt 0.92329127 0.0033023357
vt 0.92328966 0.99402237
vt 0.99800557 0.0033023357
vt 0.99800557 0.99402237
vt 0.0045467615 0.99402237
vt 0.0045467615 0.0033023357
vt 0.05005759 0.0033023357
vt 0.05005908 0.99402237
vt 0.10370618 0.0033023357
vt 0.103705585 0.99402237
vt 0.16157967 0.0033023357
vt 0.16157967 0.99402237
vt 0.22288269 0.0033023357
vt 0.22288287 0.99402237
vt 0.28680313 0.0033023357
vt 0.28680313 0.99402237
vt 0.35252833 0.0033023357
vt 0.35252833 0.99402237
vt 0.4192825 0.0033023357
vt 0.4192825 0.99402237
vt 0.48637527 0.0033023357
vt 0.48637527 0.99402237
vt 0.5532341 0.0033023357
vt 0.5532341 0.99402237
vt 0.61941564 0.0033023357
vt 0.61941576 0.99402237
vt 0.6846149 0.0033023357
vt 0.68461496 0.99402237
vt 0.7486887 0.0033023357
vt 0.7486886 0.99402237
vt 0.81169224 0.0033023357
vt 0.81169224 0.99402237
vt 0.8738966 0.0033023357
vt 0.8738972 0.99402237
vt 0.9357406 0.0033023357
vt 0.9357398 0.99402237
vt 0.99800557 0.0033023357
vt 0.99800557 0.99402237
vt 0.0045467615 0.99402237
vt 0.0045467615 0.0033023357
vt 0.06007111 0.0033023357
vt 0.06007266 0.99402237
vt 0.11427724 0.0033023357
vt 0.11427677 0.99402237
vt 0.17245728 0.0033023357
vt 0.17245728 0.99402237
vt 0.23382086 0.0033023357
vt 0.23382068 0.99402237
vt 0.29753208 0.0033023357
vt 0.29753208 0.99402237
vt 0.36273736 0.0033023357
vt 0.36273736 0.99402237
vt 0.4286164 0.0033023357
vt 0.4286164 0.99402237
vt 0.49444562 0.0033023357
vt 0.49444562 0.99402237
vt 0.55964416 0.0033023357
vt 0.55964416 0.99402237
vt 0.62380624 0.0033023357
vt 0.62380636 0.99402237
vt 0.68673974 0.0033023357
vt 0.6867399 0.99402237
vt 0.7485259 0.0033023357
vt 0.74852604 0.99402237
vt 0.8095814 0.0033023357
vt 0.8095814 0.99402237
vt 0.8706696 0.0033023357
vt 0.8706703 0.99402237
vt 0.9327828 0.0033023357
vt 0.93278176 0.99402237
vt 0.99800557 0.0033023357
vt 0.99800557 0.99402237
vn -0 0 1
vn -0 0 1
vn -0 0 1
vn -0 0 1
vn -0 0 1
vn -0 0 1
vn -0 0 1
vn -0 0 1
vn -0 0 1
vn -0 0 1
vn -0 0 1
vn -0 0 1
vn -0 0 1
vn -0 0 1
vn -0 0 1
vn -0 0 1
vn -0 0 1
vn -0 0 1
vn -0 0 1
vn -0 0 1
vn -0 0 1
vn -0 0 1
vn -0 0 1
vn -0 0 1
vn -0 0 1
vn -0 0 1
vn -0 0 1
vn -0 0 1
vn -0 0 1
vn -0 0 1
vn -0 0 1
vn -0 0 1
vn -0 0 1
vn -0 0 1
vn -0 0 1
vn -0 0 1
vn -0 0 1
vn -0 0 1
vn -0 0 1
vn -0 0 1
vn -0 0 1
vn -0 0 1
vn -0 0 1
vn -0 0 1
vn -0 0 1
vn -0 0 1
vn -0 0 1
vn -0 0 1
vn -0 0 1
vn -0 0 1
vn -0 0 1
vn -0 0 1
vn -0 0 1
vn -0 0 1
vn -0 0 1
vn -0 0 1
vn -0 0 1
vn -0 0 1
vn -0 0 1
vn -0 0 1
vn -0 0 1
vn -0 0 1
vn -0 0 1
vn -0 0 1
vn -0 0 1
vn -0 0 1
vn -0 0 1
vn -0 0 1
vn -0.09574063 -0.004486626 0.9953962
vn -0.09574063 -0.0044866265 0.9953962
vn -0.09574092 -0.0044870107 0.9953962
vn -0.09574093 -0.00448701 0.9953962
vn -0.018485699 -0.032394927 0.9993042
vn -0.018297747 -0.032462504 0.9993055
vn 0.02955086 -0.030083127 0.9991104
vn 0.029588116 -0.030121053 0.99910825
vn -0 0 1
vn -0 0 1
vn -0 0 1
vn -0 0 1
vn -0 0 1
vn -0 0 1
vn -0 0 1
vn -0 0 1
vn -0 0 1
vn -0 0 1
vn -0 0 1
vn -0 0 1
vn -0 0 1
vn -0 0 1
vn -0 0 1
vn -0 0 1
vn -0 0 1
vn -0 0 1
vn -0 0 1
vn -0 0 1
vn -0 0 1
vn -0 0 1
vn -0 0 1
vn -0 0 1
vn -0 0 1
vn -0 0 1
g FX_Line_2_0
f 3/3/3 2/2/2 1/1/1
f 4/4/4 3/3/3 1/1/1
f 5/5/5 3/3/3 4/4/4
f 6/6/6 5/5/5 4/4/4
f 7/7/7 5/5/5 6/6/6
f 8/8/8 7/7/7 6/6/6
f 9/9/9 7/7/7 8/8/8
f 10/10/10 9/9/9 8/8/8
f 11/11/11 9/9/9 10/10/10
f 12/12/12 11/11/11 10/10/10
f 13/13/13 11/11/11 12/12/12
f 14/14/14 13/13/13 12/12/12
f 15/15/15 13/13/13 14/14/14
f 16/16/16 15/15/15 14/14/14
f 17/17/17 15/15/15 16/16/16
f 18/18/18 17/17/17 16/16/16
f 19/19/19 17/17/17 18/18/18
f 20/20/20 19/19/19 18/18/18
f 21/21/21 19/19/19 20/20/20
f 22/22/22 21/21/21 20/20/20
f 23/23/23 21/21/21 22/22/22
f 24/24/24 23/23/23 22/22/22
f 25/25/25 23/23/23 24/24/24
f 26/26/26 25/25/25 24/24/24
f 27/27/27 25/25/25 26/26/26
f 28/28/28 27/27/27 26/26/26
f 29/29/29 27/27/27 28/28/28
f 30/30/30 29/29/29 28/28/28
f 31/31/31 29/29/29 30/30/30
f 32/32/32 31/31/31 30/30/30
f 31/31/31 32/32/32 33/33/33
f 32/32/32 34/34/34 33/33/33
f 37/37/37 36/36/36 35/35/35
f 38/38/38 37/37/37 35/35/35
f 39/39/39 37/37/37 38/38/38
f 40/40/40 39/39/39 38/38/38
f 41/41/41 39/39/39 40/40/40
f 42/42/42 41/41/41 40/40/40
f 43/43/43 41/41/41 42/42/42
f 44/44/44 43/43/43 42/42/42
f 45/45/45 43/43/43 44/44/44
f 46/46/46 45/45/45 44/44/44
f 47/47/47 45/45/45 46/46/46
f 48/48/48 47/47/47 46/46/46
f 49/49/49 47/47/47 48/48/48
f 50/50/50 49/49/49 48/48/48
f 51/51/51 49/49/49 50/50/50
f 52/52/52 51/51/51 50/50/50
f 53/53/53 51/51/51 52/52/52
f 54/54/54 53/53/53 52/52/52
f 55/55/55 53/53/53 54/54/54
f 56/56/56 55/55/55 54/54/54
f 57/57/57 55/55/55 56/56/56
f 58/58/58 57/57/57 56/56/56
f 59/59/59 57/57/57 58/58/58
f 60/60/60 59/59/59 58/58/58
f 61/61/61 59/59/59 60/60/60
f 62/62/62 61/61/61 60/60/60
f 63/63/63 61/61/61 62/62/62
f 64/64/64 63/63/63 62/62/62
f 65/65/65 63/63/63 64/64/64
f 66/66/66 65/65/65 64/64/64
f 65/65/65 66/66/66 67/67/67
f 66/66/66 68/68/68 67/67/67
f 71/71/71 70/70/70 69/69/69
f 72/72/72 71/71/71 69/69/69
f 73/73/73 71/71/71 72/72/72
f 74/74/74 73/73/73 72/72/72
f 75/75/75 73/73/73 74/74/74
f 76/76/76 75/75/75 74/74/74
f 77/77/77 75/75/75 76/76/76
f 78/78/78 77/77/77 76/76/76
f 79/79/79 77/77/77 78/78/78
f 80/80/80 79/79/79 78/78/78
f 81/81/81 79/79/79 80/80/80
f 82/82/82 81/81/81 80/80/80
f 83/83/83 81/81/81 82/82/82
f 84/84/84 83/83/83 82/82/82
f 85/85/85 83/83/83 84/84/84
f 86/86/86 85/85/85 84/84/84
f 87/87/87 85/85/85 86/86/86
f 88/88/88 87/87/87 86/86/86
f 89/89/89 87/87/87 88/88/88
f 90/90/90 89/89/89 88/88/88
f 91/91/91 89/89/89 90/90/90
f 92/92/92 91/91/91 90/90/90
f 93/93/93 91/91/91 92/92/92
f 94/94/94 93/93/93 92/92/92
f 95/95/95 93/93/93 94/94/94
f 96/96/96 95/95/95 94/94/94
f 97/97/97 95/95/95 96/96/96
f 98/98/98 97/97/97 96/96/96
f 99/99/99 97/97/97 98/98/98
f 100/100/100 99/99/99 98/98/98
f 99/99/99 100/100/100 101/101/101
f 100/100/100 102/102/102 101/101/101
