g FX_water_wave_1
v 5.1116242 1.6784668E-06 0.18788834
v 0.496239 -1.2207031E-06 4.4695935
v 5.1838837 1.6784668E-06 0.26836655
v 0.2590393 -1.2969971E-06 4.5541234
v 5.0393634 1.6784668E-06 0.10741043
v 0.080849305 -1.373291E-06 4.579642
v 4.8948417 1.6784668E-06 -0.053546295
v -0.20521942 -1.4495849E-06 4.560371
v 4.6057987 1.6784668E-06 -0.37545913
v -0.7011224 -1.5258788E-06 4.4455924
v 4.027713 1.6784668E-06 -1.0192847
v -1.5580169 -1.6021728E-06 4.076797
v 3.449627 1.6784668E-06 -1.6631107
v -2.3273463 -1.6784668E-06 3.6167479
v 2.871541 1.6784668E-06 -2.306936
v -3.0707412 -1.7547607E-06 3.1277165
v 2.293456 1.6784668E-06 -2.9507604
v -3.789953 -1.7547607E-06 2.6120903
v 1.7153692 1.6784668E-06 -3.5945873
v -4.485175 -1.8310546E-06 2.0707035
v 1.1372833 1.6784668E-06 -4.238413
v -5.1565275 -1.8310546E-06 1.5043125
v 0.55919737 1.6784668E-06 -4.882238
v -5.819663 -1.9073486E-06 0.9292079
v -0.01888855 1.6784668E-06 -5.526064
v -6.463339 -1.9073486E-06 0.33478683
v -0.5969742 1.6784668E-06 -6.16989
v -7.0897827 -1.9073486E-06 -0.2760872
v -1.1750599 1.6784668E-06 -6.813715
v -7.698472 -1.9073486E-06 -0.90329504
v -1.7531458 1.6784668E-06 -7.4575415
v -8.291813 -1.9073486E-06 -1.5437943
v -2.3312316 1.6784668E-06 -8.101366
v -8.87221 -1.9073486E-06 -2.1945426
v -2.9093173 1.6784668E-06 -8.745193
v -9.442067 -1.9073486E-06 -2.8524976
v -3.4874032 1.6784668E-06 -9.389018
v -10.00379 -1.9073486E-06 -3.5146148
v -4.0654893 1.6784668E-06 -10.032843
v -10.55978 -1.9073486E-06 -4.1778526
v -11.059153 -1.9073486E-06 -4.79175
v -4.608375 1.6784668E-06 -10.61715
v -11.558528 -1.8310546E-06 -5.4056463
v -5.1512604 1.6784668E-06 -11.20146
v -12.057898 -1.8310546E-06 -6.019544
v -5.694146 1.7547607E-06 -11.785767
v -12.557273 -1.8310546E-06 -6.6334405
v -6.237031 1.7547607E-06 -12.370073
v -10.559753 6.866455E-07 -4.177811
v -10.873733 6.866455E-07 -4.5637975
v -15.122348 -1.6021728E-06 -0.7270912
v -10.32142 6.866455E-07 -3.893504
v -14.54195 -1.6021728E-06 -0.07634277
v -10.003762 6.866455E-07 -3.5145738
v -9.761733 6.866455E-07 -3.2292871
v -13.948608 -1.6021728E-06 0.56415635
v -9.44204 6.866455E-07 -2.852456
v -9.196908 6.866455E-07 -2.5694268
v -13.339919 -1.6021728E-06 1.1913639
v -8.872184 6.866455E-07 -2.1945016
v -8.624328 6.866455E-07 -1.9166026
v -12.713476 -1.6021728E-06 1.802238
v -8.291787 6.866455E-07 -1.5437531
v -8.041369 6.866455E-07 -1.2734332
v -12.069799 -1.6021728E-06 2.3966587
v -7.6984453 6.866455E-07 -0.9032541
v -7.4454727 6.866455E-07 -0.6425859
v -11.418611 -1.5258788E-06 2.9906397
v -7.0897555 6.866455E-07 -0.27604628
v -6.833859 6.866455E-07 -0.02651001
v -10.747258 -1.5258788E-06 3.55703
v -6.463312 6.866455E-07 0.33482772
v -6.2054086 6.866455E-07 0.5729954
v -10.077571 -1.4495849E-06 4.1208844
v -5.819636 6.866455E-07 0.9292485
v -5.5593543 6.866455E-07 1.1549785
v -9.358359 -1.4495849E-06 4.6365104
v -5.156501 7.629394E-07 1.5043534
v -4.898626 7.629394E-07 1.7219114
v -8.6149645 -1.373291E-06 5.1255417
v -4.4851484 7.629394E-07 2.0707445
v -4.2238965 7.629394E-07 2.274188
v -7.8456354 -1.2969971E-06 5.585591
v -3.789926 8.392334E-07 2.6121325
v -3.5259807 8.392334E-07 2.8013628
v -6.988741 -1.2207031E-06 5.954386
v -6.492838 -1.1444091E-06 6.0691643
v -3.170584 8.392334E-07 3.0561583
v -3.0707147 8.392334E-07 3.127758
v -2.990805 8.392334E-07 3.1803246
v -6.2067685 -1.0681152E-06 6.0884356
v -5.9527507 -9.918213E-07 6.0475106
v -2.86874 8.392334E-07 3.260434
v -5.6901994 -9.155273E-07 5.9680023
v -2.7543504 8.392334E-07 3.3370733
vt 1.0000554 0.9937439
vt 0.5050527 0.9999444
vt 1.0000554 0.99994427
vt 0.5050527 0.99374396
vt 1.0000554 0.9875435
vt 0.5050527 0.9875436
vt 1.0000554 0.9751428
vt 0.5050527 0.97514284
vt 1.0000554 0.95034134
vt 0.5050527 0.9503414
vt 1.0000554 0.9007384
vt 0.5050527 0.9007385
vt 1.0000554 0.85113543
vt 0.5050527 0.8511355
vt 1.0000554 0.8015325
vt 0.5050527 0.80153257
vt 1.0000553 0.7519296
vt 0.5050527 0.75192964
vt 1.0000553 0.7023266
vt 0.5050527 0.70232666
vt 1.0000553 0.65272367
vt 0.5050527 0.6527237
vt 1.0000553 0.60312074
vt 0.5050527 0.6031208
vt 1.0000553 0.5535178
vt 0.5050527 0.5535179
vt 1.0000553 0.5039149
vt 0.5050527 0.50391495
vt 1.0000553 0.4543119
vt 0.5050527 0.454312
vt 1.0000553 0.40470898
vt 0.5050527 0.40470907
vt 1.0000553 0.35510606
vt 0.5050526 0.35510615
vt 1.0000553 0.3055031
vt 0.5050526 0.3055032
vt 1.0000553 0.25590014
vt 0.5050526 0.25590023
vt 1.0000553 0.20629722
vt 0.5050526 0.2062973
vt 0.5050526 0.1547148
vt 1.0000553 0.15471472
vt 0.5050526 0.10423943
vt 1.0000553 0.10423935
vt 0.5050526 0.053210482
vt 1.0000553 0.053210407
vt 0.5050526 5.5358803E-05
vt 1.0000553 5.5283308E-05
vt 0.496526 0.2231106
vt 0.496526 0.18731613
vt 0.0062132906 0.18731621
vt 0.496526 0.24981613
vt 0.0062132906 0.24981622
vt 0.496526 0.28539318
vt 0.496526 0.31231612
vt 0.0062132906 0.31231624
vt 0.496526 0.34787023
vt 0.496526 0.37481612
vt 0.0062132906 0.37481624
vt 0.49652606 0.41051173
vt 0.49652606 0.43731612
vt 0.0062133195 0.43731624
vt 0.49652606 0.4732859
vt 0.49652606 0.49981612
vt 0.0062133195 0.49981618
vt 0.49652606 0.5361634
vt 0.49652606 0.5623161
vt 0.0062133195 0.5623162
vt 0.49652606 0.59910375
vt 0.49652606 0.6248161
vt 0.0062133195 0.6248162
vt 0.49652606 0.6620853
vt 0.49652606 0.6873161
vt 0.0062133195 0.6873162
vt 0.49652606 0.7251018
vt 0.49652606 0.7498161
vt 0.0062133195 0.7498162
vt 0.49652606 0.78812164
vt 0.49652606 0.8123161
vt 0.0062133195 0.8123162
vt 0.49652606 0.8511743
vt 0.49652606 0.8748161
vt 0.0062133195 0.8748162
vt 0.49652606 0.9142301
vt 0.49652606 0.9373161
vt 0.0062133195 0.9373162
vt 0.0062133195 0.9685662
vt 0.49652606 0.96856606
vt 0.49652606 0.9773904
vt 0.49652606 0.9841911
vt 0.0062133195 0.9841912
vt 0.0062133195 0.9920037
vt 0.49652606 0.9920036
vt 0.0062133195 0.99981624
vt 0.49652606 0.9998161
vn 3.032247E-07 -1 -3.4679542E-07
vn 2.4107658E-07 -1 -4.1724195E-07
vn 2.4107658E-07 -1 -4.1724195E-07
vn 3.488063E-07 -1 -2.9512762E-07
vn 3.4041898E-07 -1 -3.036292E-07
vn 3.2564114E-07 -1 -3.1978277E-07
vn 3.0359496E-07 -1 -3.4013632E-07
vn 2.980873E-07 -1 -3.4444125E-07
vn 2.9076682E-07 -1 -3.4246307E-07
vn 2.904706E-07 -1 -3.400486E-07
vn 2.9804212E-07 -1 -3.1991965E-07
vn 2.9992898E-07 -1 -3.1630663E-07
vn 3.0814456E-07 -1 -2.994623E-07
vn 3.084888E-07 -1 -2.9861644E-07
vn 2.9611292E-07 -1 -3.051819E-07
vn 2.9413843E-07 -1 -3.0668548E-07
vn 2.9862574E-07 -1 -2.947018E-07
vn 3.0051189E-07 -1 -2.9228093E-07
vn 3.019444E-07 -1 -2.862848E-07
vn 3.0078036E-07 -1 -2.8740376E-07
vn 3.0463465E-07 -1 -2.807823E-07
vn 3.0577087E-07 -1 -2.7947567E-07
vn 3.07228E-07 -1 -2.7701824E-07
vn 3.0645785E-07 -1 -2.7785651E-07
vn 2.9536386E-07 -1 -2.8746695E-07
vn 2.9539493E-07 -1 -2.8732703E-07
vn 2.9721738E-07 -1 -2.8139533E-07
vn 2.9724774E-07 -1 -2.813193E-07
vn 2.9954515E-07 -1 -2.7642875E-07
vn 2.995591E-07 -1 -2.7640382E-07
vn 3.0194278E-07 -1 -2.727846E-07
vn 3.0194192E-07 -1 -2.7278568E-07
vn 3.0429902E-07 -1 -2.7031302E-07
vn 3.04287E-07 -1 -2.7032306E-07
vn 3.0649733E-07 -1 -2.6888497E-07
vn 3.0647894E-07 -1 -2.6889322E-07
vn 3.0841431E-07 -1 -2.683849E-07
vn 3.0839482E-07 -1 -2.683856E-07
vn 3.0928567E-07 -1 -2.6835266E-07
vn 3.092857E-07 -1 -2.683527E-07
vn 2.767205E-07 -1 -3.0437891E-07
vn 2.7672047E-07 -1 -3.0437891E-07
vn 2.7672047E-07 -1 -3.0437891E-07
vn 2.7672047E-07 -1 -3.0437891E-07
vn 3.1607328E-07 -1 -2.7493692E-07
vn 3.1607328E-07 -1 -2.7493692E-07
vn 3.1607328E-07 -1 -2.7493692E-07
vn 3.1607328E-07 -1 -2.7493692E-07
vn 3.0461263E-07 -1 -2.6118644E-07
vn 3.0461263E-07 -1 -2.6118644E-07
vn 3.0461266E-07 -1 -2.6118644E-07
vn 3.03593E-07 -1 -2.6419514E-07
vn 3.0356966E-07 -1 -2.6426395E-07
vn 3.0252332E-07 -1 -2.6735134E-07
vn 3.0171344E-07 -1 -2.7076578E-07
vn 3.017083E-07 -1 -2.707874E-07
vn 3.0086923E-07 -1 -2.7432486E-07
vn 2.9980515E-07 -1 -2.788056E-07
vn 2.998218E-07 -1 -2.7873543E-07
vn 2.98709E-07 -1 -2.8342131E-07
vn 2.97644E-07 -1 -2.8864844E-07
vn 2.9768802E-07 -1 -2.884324E-07
vn 2.965658E-07 -1 -2.9394047E-07
vn 3.08946E-07 -1 -2.7925057E-07
vn 3.0817895E-07 -1 -2.801607E-07
vn 3.2119584E-07 -1 -2.6471525E-07
vn 3.0107682E-07 -1 -2.855675E-07
vn 3.0284878E-07 -1 -2.8373094E-07
vn 2.8170388E-07 -1 -3.0564644E-07
vn 2.943428E-07 -1 -2.9026344E-07
vn 2.929009E-07 -1 -2.9201843E-07
vn 3.0610335E-07 -1 -2.7594967E-07
vn 2.8206156E-07 -1 -3.0122777E-07
vn 2.8578032E-07 -1 -2.973178E-07
vn 2.6044506E-07 -1 -3.2395593E-07
vn 2.9129026E-07 -1 -2.9927895E-07
vn 2.8498457E-07 -1 -3.0432366E-07
vn 3.1794238E-07 -1 -2.7795656E-07
vn 2.9643982E-07 -1 -3.0145694E-07
vn 3.015153E-07 -1 -2.9590984E-07
vn 2.7818902E-07 -1 -3.2140343E-07
vn 2.8321094E-07 -1 -3.2474586E-07
vn 2.816469E-07 -1 -3.237048E-07
vn 2.8725984E-07 -1 -3.2744066E-07
vn 2.6801217E-07 -1 -3.5556275E-07
vn 2.7618853E-07 -1 -3.4361653E-07
vn 2.5869485E-07 -1 -3.7124698E-07
vn 2.6464704E-07 -1 -3.648387E-07
vn 2.7328772E-07 -1 -3.5553586E-07
vn 2.558233E-07 -1 -3.7402407E-07
vn 2.6735225E-07 -1 -3.6181925E-07
vn 2.3674896E-07 -1 -3.951762E-07
vn 2.176048E-07 -1 -4.182795E-07
vn 1.9904847E-07 -1 -4.4067346E-07
vn 1.9904849E-07 -1 -4.4067346E-07
g FX_water_wave_1_0
f 3/3/3 2/2/2 1/1/1
f 2/2/2 4/4/4 1/1/1
f 1/1/1 4/4/4 5/5/5
f 4/4/4 6/6/6 5/5/5
f 5/5/5 6/6/6 7/7/7
f 6/6/6 8/8/8 7/7/7
f 7/7/7 8/8/8 9/9/9
f 8/8/8 10/10/10 9/9/9
f 9/9/9 10/10/10 11/11/11
f 10/10/10 12/12/12 11/11/11
f 11/11/11 12/12/12 13/13/13
f 12/12/12 14/14/14 13/13/13
f 13/13/13 14/14/14 15/15/15
f 14/14/14 16/16/16 15/15/15
f 15/15/15 16/16/16 17/17/17
f 16/16/16 18/18/18 17/17/17
f 17/17/17 18/18/18 19/19/19
f 18/18/18 20/20/20 19/19/19
f 19/19/19 20/20/20 21/21/21
f 20/20/20 22/22/22 21/21/21
f 21/21/21 22/22/22 23/23/23
f 22/22/22 24/24/24 23/23/23
f 23/23/23 24/24/24 25/25/25
f 24/24/24 26/26/26 25/25/25
f 25/25/25 26/26/26 27/27/27
f 26/26/26 28/28/28 27/27/27
f 27/27/27 28/28/28 29/29/29
f 28/28/28 30/30/30 29/29/29
f 29/29/29 30/30/30 31/31/31
f 30/30/30 32/32/32 31/31/31
f 31/31/31 32/32/32 33/33/33
f 32/32/32 34/34/34 33/33/33
f 33/33/33 34/34/34 35/35/35
f 34/34/34 36/36/36 35/35/35
f 35/35/35 36/36/36 37/37/37
f 36/36/36 38/38/38 37/37/37
f 37/37/37 38/38/38 39/39/39
f 38/38/38 40/40/40 39/39/39
f 40/40/40 41/41/41 39/39/39
f 41/41/41 42/42/42 39/39/39
f 42/42/42 41/41/41 43/43/43
f 44/44/44 42/42/42 43/43/43
f 44/44/44 43/43/43 45/45/45
f 46/46/46 44/44/44 45/45/45
f 46/46/46 45/45/45 47/47/47
f 48/48/48 46/46/46 47/47/47
f 51/51/51 50/50/50 49/49/49
f 49/49/49 52/52/52 51/51/51
f 52/52/52 53/53/53 51/51/51
f 53/53/53 52/52/52 54/54/54
f 54/54/54 55/55/55 53/53/53
f 55/55/55 56/56/56 53/53/53
f 56/56/56 55/55/55 57/57/57
f 57/57/57 58/58/58 56/56/56
f 58/58/58 59/59/59 56/56/56
f 59/59/59 58/58/58 60/60/60
f 60/60/60 61/61/61 59/59/59
f 61/61/61 62/62/62 59/59/59
f 62/62/62 61/61/61 63/63/63
f 63/63/63 64/64/64 62/62/62
f 64/64/64 65/65/65 62/62/62
f 65/65/65 64/64/64 66/66/66
f 66/66/66 67/67/67 65/65/65
f 67/67/67 68/68/68 65/65/65
f 68/68/68 67/67/67 69/69/69
f 69/69/69 70/70/70 68/68/68
f 70/70/70 71/71/71 68/68/68
f 71/71/71 70/70/70 72/72/72
f 72/72/72 73/73/73 71/71/71
f 73/73/73 74/74/74 71/71/71
f 74/74/74 73/73/73 75/75/75
f 75/75/75 76/76/76 74/74/74
f 76/76/76 77/77/77 74/74/74
f 77/77/77 76/76/76 78/78/78
f 78/78/78 79/79/79 77/77/77
f 79/79/79 80/80/80 77/77/77
f 80/80/80 79/79/79 81/81/81
f 81/81/81 82/82/82 80/80/80
f 82/82/82 83/83/83 80/80/80
f 83/83/83 82/82/82 84/84/84
f 84/84/84 85/85/85 83/83/83
f 85/85/85 86/86/86 83/83/83
f 86/86/86 85/85/85 87/87/87
f 85/85/85 88/88/88 87/87/87
f 87/87/87 88/88/88 89/89/89
f 89/89/89 90/90/90 87/87/87
f 90/90/90 91/91/91 87/87/87
f 91/91/91 90/90/90 92/92/92
f 90/90/90 93/93/93 92/92/92
f 92/92/92 93/93/93 94/94/94
f 93/93/93 95/95/95 94/94/94
