g halo_trail
v -0.42404848 -1.2507133 -1.583021E-08
v -0.192412 -1.1697109 -1.13291E-08
v -0.22716665 -1.3336837 -1.5830064E-08
v -0.36471558 -1.0970982 -1.1329184E-08
v -0.6016462 -1.1391648 -1.5830373E-08
v -0.15765736 -1.0057378 -6.8281363E-09
v -0.5198695 -0.9996466 -1.1329275E-08
v -0.7559609 -1.0030054 -1.5830546E-08
v -0.30538267 -0.9434831 -6.8281585E-09
v -0.122902706 -0.8417648 -2.3271725E-09
v -0.6544374 -0.880911 -1.1329373E-08
v -0.8837594 -0.8467304 -1.58307E-08
v -0.24604976 -0.78986794 -2.3271334E-09
v -0.08814806 -0.6777919 2.1737923E-09
v -0.18671685 -0.63625276 2.1738924E-09
v -0.43809286 -0.8601284 -6.8281762E-09
v -0.35631624 -0.7206102 -2.3270783E-09
v -0.27453965 -0.581092 2.1740196E-09
v -0.76567 -0.7448932 -1.1329451E-08
v -0.98263645 -0.675218 -1.5830892E-08
v -0.5529139 -0.75881666 -6.8282002E-09
v -0.4513904 -0.6367223 -2.3270266E-09
v -0.3498668 -0.514628 2.174147E-09
v -0.8515577 -0.5959122 -1.1329556E-08
v -1.0510428 -0.49360538 -1.5831091E-08
v -0.6475806 -0.64305604 -6.8282024E-09
v -0.52949125 -0.54121876 -2.3269526E-09
v -0.4114019 -0.4393815 2.1742972E-09
v -0.9108537 -0.4384869 -1.1329665E-08
v -1.0883137 -0.30712363 -1.5831315E-08
v -0.72047883 -0.51660645 -6.82822E-09
v -0.5894 -0.43730074 -2.3268838E-09
v -0.4583212 -0.35799503 2.1744517E-09
v -0.94309074 -0.2771928 -1.1329788E-08
v -1.0946575 -0.12095405 -1.5831544E-08
v -0.77066463 -0.3833684 -6.828239E-09
v -0.6304756 -0.32824993 -2.3268116E-09
v -0.49028656 -0.27313143 2.1746154E-09
v -0.94856536 -0.11653566 -1.1329912E-08
v -1.0711215 0.059916895 -1.583181E-08
v -0.7978678 -0.247262 -6.82826E-09
v -0.6526448 -0.2173312 -2.326734E-09
v -0.50742185 -0.18740037 2.1747928E-09
v -0.9283033 0.039175548 -1.133006E-08
v -1.0195316 0.23083162 -1.583209E-08
v -0.8024733 -0.11211726 -6.8282797E-09
v -0.65638113 -0.10769886 -2.326648E-09
v -0.5102891 -0.10328046 2.1749837E-09
v -0.88400203 0.18594337 -1.1330212E-08
v -0.94242346 0.38756156 -1.5832399E-08
v -0.78548515 0.018434204 -6.8283077E-09
v -0.642667 -0.002307143 -2.3265563E-09
v -0.49984884 -0.02304849 2.1751951E-09
v -0.81796294 0.3201745 -1.1330383E-08
v -0.84294677 0.5264284 -1.5832738E-08
v -0.74847245 0.14105514 -6.8283326E-09
v -0.6129429 0.09616688 -2.3264535E-09
v -0.47741333 0.05127863 2.175425E-09
v -0.7330033 0.43877602 -1.1330567E-08
v -0.7247532 0.6443897 -1.5833116E-08
v -0.6935025 0.25278735 -6.8283637E-09
v -0.569042 0.18540023 -2.3263453E-09
v -0.44458157 0.11801313 2.1756728E-09
v -0.6323548 0.53922683 -1.1330774E-08
v -0.5918813 0.7390953 -1.583352E-08
v -0.6230598 0.35112366 -6.828395E-09
v -0.51311636 0.26347128 -2.3262237E-09
v -0.40317294 0.17581889 2.1759479E-09
v -0.53995645 0.43406394 -6.828432E-09
v -0.44755802 0.32890105 -2.3260904E-09
v -0.3551596 0.22373816 2.1762525E-09
v -0.5195583 0.6196236 -1.1330995E-08
v -0.44723532 0.5001519 -6.8284702E-09
v -0.37491232 0.3806802 -2.3259452E-09
v -0.30258936 0.2612085 2.17658E-09
v -0.39835396 0.67871374 -1.1331252E-08
v -0.44863686 0.8089305 -1.5833985E-08
v -0.34807104 0.548497 -6.82852E-09
v -0.29778814 0.41828024 -2.325789E-09
v -0.24750526 0.28806347 2.1769437E-09
v -0.19189325 0.30450797 2.177353E-09
v -0.21877986 0.44164288 -2.3256022E-09
v -0.13758573 0.31110334 2.1778033E-09
v -0.2725531 0.71591264 -1.1331512E-08
v -0.2994397 0.85304755 -1.5834466E-08
v -0.24566646 0.57877773 -6.8285573E-09
v -0.1403726 0.45116487 -2.3254076E-09
v -0.08623042 0.30871812 2.178317E-09
v -0.14594631 0.73128796 -1.1331829E-08
v -0.14873317 0.87134945 -1.583504E-08
v -0.14315945 0.5912264 -6.8286186E-09
v -0.06487748 0.4476587 -2.325172E-09
v -0.03922699 0.29848602 2.178872E-09
v -0.02217161 0.72553986 -1.133215E-08
v -0.0008186722 0.86448044 -1.5835639E-08
v -0.043524545 0.5865993 -6.828661E-09
v 0.0056400727 0.43230835 -2.3249365E-09
v 0.0023149203 0.281748 2.179513E-09
v 0.095374174 0.6999529 -1.1332552E-08
v 0.14024122 0.8337752 -1.5836358E-08
v 0.050507125 0.56613064 -6.8287442E-09
v 0.06941971 0.4066109 -2.3246503E-09
v 0.037606478 0.2599877 2.1802362E-09
v 0.2036293 0.65633667 -1.1332976E-08
v 0.2707341 0.7811996 -1.583714E-08
v 0.1365245 0.53147376 -6.8288135E-09
v 0.12505104 0.37230954 -2.3243285E-09
v 0.06619342 0.23476425 2.1810547E-09
v 0.2999401 0.59695315 -1.1333458E-08
v 0.38738462 0.70927495 -1.5838022E-08
v 0.21249557 0.48463133 -6.8288926E-09
v 0.17150486 0.33132106 -2.3239692E-09
v 0.08795484 0.2076496 2.1819893E-09
v 0.38212776 0.5244346 -1.1334017E-08
v 0.4874392 0.62099147 -1.583904E-08
v 0.27681628 0.42787787 -6.828993E-09
v 0.2081493 0.28566146 -2.3235573E-09
v 0.10310528 0.180151 2.1830715E-09
v 0.44853815 0.44168517 -1.13346506E-08
v 0.5687326 0.51969707 -1.5840197E-08
v 0.32834372 0.36367333 -6.829104E-09
v 0.23475783 0.23736492 -2.3230768E-09
v 0.49806288 0.35179275 -1.1335372E-08
v 0.6297154 0.40900669 -1.584152E-08
v 0.36641037 0.29457885 -6.8292243E-09
v 0.53015804 0.25792208 -1.1336206E-08
v 0.66948956 0.2926768 -1.5843048E-08
v 0.68780476 0.1744945 -1.5844837E-08
v 0.2514951 0.18841268 -2.322524E-09
v 0.11216356 0.15365797 2.1843174E-09
v 0.3908266 0.22316739 -6.8293655E-09
v 0.54483503 0.16321652 -1.13371845E-08
v 0.6850395 0.05820449 -1.5846933E-08
v 0.2588956 0.1406605 -2.3218805E-09
v 0.1159259 0.12938249 2.1857716E-09
v 0.40186533 0.1519385 -6.8295325E-09
v 0.54263586 0.0707234 -1.1338333E-08
v 0.66217864 -0.052630696 -1.584941E-08
v 0.25782847 0.0957612 -2.3211324E-09
v 0.11542478 0.108280115 2.1874678E-09
v 0.40023217 0.0832423 -6.829733E-09
v 0.5246012 -0.016713187 -1.13396865E-08
v 0.62075984 -0.1546939 -1.5852363E-08
v 0.24944647 0.05512182 -2.3202413E-09
v 0.11186908 0.09103933 2.1894806E-09
v 0.38702384 0.01920432 -6.829964E-09
v 0.49221686 -0.09651419 -1.1341303E-08
v 0.5628172 -0.24499187 -1.5855903E-08
v 0.23513083 0.019845257 -2.3191844E-09
v 0.106587805 0.078024976 2.1918742E-09
v 0.36367384 -0.038334463 -6.8302435E-09
v 0.44735324 -0.16642974 -1.134324E-08
v 0.49313933 -0.31886455 -1.610344E-08
v 0.21642531 -0.009305511 -2.3179143E-09
v 0.10096136 0.069256596 2.1947482E-09
v 0.33188927 -0.08786762 -6.8305765E-09
v 0.39346957 -0.22346605 -1.147867E-08
v 0.41762206 -0.3741811 -1.6587027E-08
v 0.1941301 -0.03266905 -2.2291293E-09
v 0.09446033 0.062729456 2.3956408E-09
v 0.29379982 -0.12806755 -6.8538997E-09
v 0.33467856 -0.26618987 -1.17432455E-08
v 0.3397706 -0.41069987 -1.5757704E-08
v 0.27379838 -0.29438183 -1.1289515E-08
v 0.25173512 -0.15819867 -6.899464E-09
v 0.20782615 -0.17806375 -6.8213266E-09
v 0.16879165 -0.05020745 -2.0556832E-09
v 0.08584819 0.057783764 2.788098E-09
v 0.14185394 -0.06174568 -2.353137E-09
v 0.075881734 0.05457237 2.1150526E-09
vt 0.96689695 1.0009484
vt 0.9970969 0.7508364
vt 0.9970969 1.0009484
vt 0.96689695 0.7508364
vt 0.93669707 1.0009484
vt 0.9970969 0.5007243
vt 0.93669707 0.7508364
vt 0.9064971 1.0009484
vt 0.96689695 0.5007243
vt 0.9970969 0.25061226
vt 0.9064971 0.7508364
vt 0.87629724 1.0009484
vt 0.96689695 0.25061226
vt 0.9970969 0.0005002022
vt 0.96689695 0.0005002022
vt 0.93669707 0.5007243
vt 0.93669707 0.25061226
vt 0.93669707 0.0005002022
vt 0.87629724 0.7508364
vt 0.84609735 1.0009484
vt 0.9064971 0.5007243
vt 0.9064971 0.25061226
vt 0.9064971 0.0005002022
vt 0.84609735 0.7508364
vt 0.8158974 1.0009484
vt 0.87629724 0.5007243
vt 0.87629724 0.25061226
vt 0.87629724 0.0005002022
vt 0.8158974 0.7508364
vt 0.7856975 1.0009484
vt 0.84609735 0.5007243
vt 0.84609735 0.25061226
vt 0.84609735 0.0005002022
vt 0.7856975 0.7508364
vt 0.7554976 1.0009484
vt 0.8158974 0.5007243
vt 0.8158974 0.25061226
vt 0.8158974 0.0005002022
vt 0.7554976 0.7508364
vt 0.7252977 1.0009484
vt 0.7856975 0.5007243
vt 0.7856975 0.25061226
vt 0.7856975 0.0005002022
vt 0.7252977 0.7508364
vt 0.69509774 1.0009484
vt 0.7554976 0.5007243
vt 0.7554976 0.25061226
vt 0.7554976 0.0005002022
vt 0.69509774 0.7508364
vt 0.66489786 1.0009484
vt 0.7252977 0.5007243
vt 0.7252977 0.25061226
vt 0.7252977 0.0005002022
vt 0.66489786 0.7508364
vt 0.6346979 1.0009484
vt 0.69509774 0.5007243
vt 0.69509774 0.25061226
vt 0.69509774 0.0005002022
vt 0.6346979 0.7508364
vt 0.604498 1.0009484
vt 0.66489786 0.5007243
vt 0.66489786 0.25061226
vt 0.66489786 0.0005002022
vt 0.604498 0.7508364
vt 0.57429814 1.0009484
vt 0.6346979 0.5007243
vt 0.6346979 0.25061226
vt 0.6346979 0.0005002022
vt 0.604498 0.5007243
vt 0.604498 0.25061226
vt 0.604498 0.0005002022
vt 0.57429814 0.7508364
vt 0.57429814 0.5007243
vt 0.57429814 0.25061226
vt 0.57429814 0.0005002022
vt 0.5440982 0.7508364
vt 0.5440982 1.0009484
vt 0.5440982 0.5007243
vt 0.5440982 0.25061226
vt 0.5440982 0.0005002022
vt 0.5138983 0.0005002022
vt 0.5138983 0.25061226
vt 0.48369843 0.0005002022
vt 0.5138983 0.7508364
vt 0.5138983 1.0009484
vt 0.5138983 0.5007243
vt 0.48369843 0.25061226
vt 0.4534985 0.0005002022
vt 0.48369843 0.7508364
vt 0.48369843 1.0009484
vt 0.48369843 0.5007243
vt 0.4534985 0.25061226
vt 0.4232986 0.0005002022
vt 0.4534985 0.7508364
vt 0.4534985 1.0009484
vt 0.4534985 0.5007243
vt 0.4232986 0.25061226
vt 0.39309868 0.0005002022
vt 0.4232986 0.7508364
vt 0.4232986 1.0009484
vt 0.4232986 0.5007243
vt 0.39309868 0.25061226
vt 0.36289877 0.0005002022
vt 0.39309868 0.7508364
vt 0.39309868 1.0009484
vt 0.39309868 0.5007243
vt 0.36289877 0.25061226
vt 0.33269885 0.0005002022
vt 0.36289877 0.7508364
vt 0.36289877 1.0009484
vt 0.36289877 0.5007243
vt 0.33269885 0.25061226
vt 0.30249894 0.0005002022
vt 0.33269885 0.7508364
vt 0.33269885 1.0009484
vt 0.33269885 0.5007243
vt 0.30249894 0.25061226
vt 0.27229908 0.0005002022
vt 0.30249894 0.7508364
vt 0.30249894 1.0009484
vt 0.30249894 0.5007243
vt 0.27229908 0.25061226
vt 0.27229908 0.7508364
vt 0.27229908 1.0009484
vt 0.27229908 0.5007243
vt 0.24209918 0.7508364
vt 0.24209918 1.0009484
vt 0.21189928 1.0009484
vt 0.24209918 0.25061226
vt 0.24209918 0.0005002022
vt 0.24209918 0.5007243
vt 0.21189928 0.7508364
vt 0.18169938 1.0009484
vt 0.21189928 0.25061226
vt 0.21189928 0.0005002022
vt 0.21189928 0.5007243
vt 0.18169938 0.7508364
vt 0.1514995 1.0009484
vt 0.18169938 0.25061226
vt 0.18169938 0.0005002022
vt 0.18169938 0.5007243
vt 0.1514995 0.7508364
vt 0.12129959 1.0009484
vt 0.1514995 0.25061226
vt 0.1514995 0.0005002022
vt 0.1514995 0.5007243
vt 0.12129959 0.7508364
vt 0.091099694 1.0009484
vt 0.12129959 0.25061226
vt 0.12129959 0.0005002022
vt 0.12129959 0.5007243
vt 0.091099694 0.7508364
vt 0.060899794 1.0009484
vt 0.091099694 0.25061226
vt 0.091099694 0.0005002022
vt 0.091099694 0.5007243
vt 0.060899794 0.7508364
vt 0.030699896 1.0009484
vt 0.060899794 0.25061226
vt 0.060899794 0.0005002022
vt 0.060899794 0.5007243
vt 0.030699896 0.7508364
vt 0.0005000019 1.0009484
vt 0.0005000019 0.7508364
vt 0.030699896 0.5007243
vt 0.0005000019 0.5007243
vt 0.030699896 0.25061226
vt 0.030699896 0.0005002022
vt 0.0005000019 0.25061226
vt 0.0005000019 0.0005002022
vn -0 0 1
vn -0 0 1
vn -0 0 1
vn -0 0 1
vn -0 0 1
vn -0 0 1
vn -0 0 1
vn -0 0 1
vn -0 0 1
vn -0 0 1
vn -0 0 1
vn -0 0 1
vn -0 0 1
vn -0 0 1
vn -0 0 1
vn -0 0 1
vn -0 0 1
vn -0 0 1
vn -0 0 1
vn -0 0 1
vn -0 0 1
vn -0 0 1
vn -0 0 1
vn -0 0 1
vn -0 0 1
vn -0 0 1
vn -0 0 1
vn -0 0 1
vn -0 0 1
vn -0 0 1
vn -0 0 1
vn -0 0 1
vn -0 0 1
vn -0 0 1
vn -0 0 1
vn -0 0 1
vn -0 0 1
vn -0 0 1
vn -0 0 1
vn -0 0 1
vn -0 0 1
vn -0 0 1
vn -0 0 1
vn -0 0 1
vn -0 0 1
vn -0 0 1
vn -0 0 1
vn -0 0 1
vn -0 0 1
vn -0 0 1
vn -0 0 1
vn -0 0 1
vn -0 0 1
vn -0 0 1
vn -0 0 1
vn -0 0 1
vn -0 0 1
vn -0 0 1
vn -0 0 1
vn -0 0 1
vn -0 0 1
vn -0 0 1
vn -0 0 1
vn -0 0 1
vn -0 0 1
vn -0 0 1
vn -0 0 1
vn -0 0 1
vn -0 0 1
vn -0 0 1
vn -0 0 1
vn -0 0 1
vn -0 0 1
vn -0 0 1
vn -0 0 1
vn -0 0 1
vn -0 0 1
vn -0 0 1
vn -0 0 1
vn -0 0 1
vn -0 0 1
vn -0 0 1
vn -0 0 1
vn -0 0 1
vn -0 0 1
vn -0 0 1
vn -0 0 1
vn -0 0 1
vn -0 0 1
vn -0 0 1
vn -0 0 1
vn -0 0 1
vn -0 0 1
vn -0 0 1
vn -0 0 1
vn -0 0 1
vn -0 0 1
vn -0 0 1
vn -0 0 1
vn -0 0 1
vn -0 0 1
vn -0 0 1
vn -0 0 1
vn -0 0 1
vn -0 0 1
vn -0 0 1
vn -0 0 1
vn -0 0 1
vn -0 0 1
vn -0 0 1
vn -0 0 1
vn -0 0 1
vn -0 0 1
vn -0 0 1
vn -0 0 1
vn -0 0 1
vn -0 0 1
vn -0 0 1
vn -0 0 1
vn -0 0 1
vn -0 0 1
vn -0 0 1
vn -0 0 1
vn -0 0 1
vn -0 0 1
vn -0 0 1
vn -0 0 1
vn -0 0 1
vn -0 0 1
vn -0 0 1
vn -0 0 1
vn -0 0 1
vn -0 0 1
vn -0 0 1
vn -0 0 1
vn -0 0 1
vn -0 0 1
vn -0 0 1
vn -0 0 1
vn -0 0 1
vn -0 0 1
vn -0 0 1
vn -0 0 1
vn -0 0 1
vn -0 0 1
vn -0 0 1
vn -0 0 1
vn -0 0 1
vn -0 0 1
vn -0 0 1
vn -0 0 1
vn -0 0 1
vn -0 0 1
vn -0 0 1
vn -0 0 1
vn -0 0 1
vn -0 0 1
vn -0 0 1
vn -0 0 1
vn -0 0 1
vn -0 0 1
vn -0 0 1
vn -0 0 1
vn -0 0 1
vn -0 0 1
vn -0 0 1
vn -0 0 1
vn -0 0 1
vn -0 0 1
vn -0 0 1
g halo_trail_0
f 3/3/3 2/2/2 1/1/1
f 2/2/2 4/4/4 1/1/1
f 1/1/1 4/4/4 5/5/5
f 4/4/4 2/2/2 6/6/6
f 4/4/4 7/7/7 5/5/5
f 5/5/5 7/7/7 8/8/8
f 9/9/9 4/4/4 6/6/6
f 7/7/7 4/4/4 9/9/9
f 9/9/9 6/6/6 10/10/10
f 7/7/7 11/11/11 8/8/8
f 8/8/8 11/11/11 12/12/12
f 13/13/13 9/9/9 10/10/10
f 13/13/13 10/10/10 14/14/14
f 15/15/15 13/13/13 14/14/14
f 16/16/16 7/7/7 9/9/9
f 16/16/16 9/9/9 13/13/13
f 11/11/11 7/7/7 16/16/16
f 17/17/17 13/13/13 15/15/15
f 17/17/17 16/16/16 13/13/13
f 18/18/18 17/17/17 15/15/15
f 11/11/11 19/19/19 12/12/12
f 12/12/12 19/19/19 20/20/20
f 21/21/21 11/11/11 16/16/16
f 21/21/21 16/16/16 17/17/17
f 19/19/19 11/11/11 21/21/21
f 22/22/22 17/17/17 18/18/18
f 22/22/22 21/21/21 17/17/17
f 23/23/23 22/22/22 18/18/18
f 19/19/19 24/24/24 20/20/20
f 20/20/20 24/24/24 25/25/25
f 26/26/26 19/19/19 21/21/21
f 26/26/26 21/21/21 22/22/22
f 24/24/24 19/19/19 26/26/26
f 27/27/27 22/22/22 23/23/23
f 27/27/27 26/26/26 22/22/22
f 28/28/28 27/27/27 23/23/23
f 24/24/24 29/29/29 25/25/25
f 25/25/25 29/29/29 30/30/30
f 31/31/31 24/24/24 26/26/26
f 31/31/31 26/26/26 27/27/27
f 29/29/29 24/24/24 31/31/31
f 32/32/32 27/27/27 28/28/28
f 32/32/32 31/31/31 27/27/27
f 33/33/33 32/32/32 28/28/28
f 29/29/29 34/34/34 30/30/30
f 30/30/30 34/34/34 35/35/35
f 36/36/36 29/29/29 31/31/31
f 36/36/36 31/31/31 32/32/32
f 34/34/34 29/29/29 36/36/36
f 37/37/37 32/32/32 33/33/33
f 37/37/37 36/36/36 32/32/32
f 38/38/38 37/37/37 33/33/33
f 34/34/34 39/39/39 35/35/35
f 35/35/35 39/39/39 40/40/40
f 41/41/41 34/34/34 36/36/36
f 41/41/41 36/36/36 37/37/37
f 39/39/39 34/34/34 41/41/41
f 42/42/42 37/37/37 38/38/38
f 42/42/42 41/41/41 37/37/37
f 43/43/43 42/42/42 38/38/38
f 39/39/39 44/44/44 40/40/40
f 40/40/40 44/44/44 45/45/45
f 46/46/46 39/39/39 41/41/41
f 46/46/46 41/41/41 42/42/42
f 44/44/44 39/39/39 46/46/46
f 47/47/47 42/42/42 43/43/43
f 47/47/47 46/46/46 42/42/42
f 48/48/48 47/47/47 43/43/43
f 44/44/44 49/49/49 45/45/45
f 45/45/45 49/49/49 50/50/50
f 51/51/51 44/44/44 46/46/46
f 51/51/51 46/46/46 47/47/47
f 49/49/49 44/44/44 51/51/51
f 52/52/52 47/47/47 48/48/48
f 52/52/52 51/51/51 47/47/47
f 53/53/53 52/52/52 48/48/48
f 49/49/49 54/54/54 50/50/50
f 50/50/50 54/54/54 55/55/55
f 56/56/56 49/49/49 51/51/51
f 56/56/56 51/51/51 52/52/52
f 54/54/54 49/49/49 56/56/56
f 57/57/57 52/52/52 53/53/53
f 57/57/57 56/56/56 52/52/52
f 58/58/58 57/57/57 53/53/53
f 54/54/54 59/59/59 55/55/55
f 55/55/55 59/59/59 60/60/60
f 61/61/61 54/54/54 56/56/56
f 61/61/61 56/56/56 57/57/57
f 59/59/59 54/54/54 61/61/61
f 62/62/62 57/57/57 58/58/58
f 62/62/62 61/61/61 57/57/57
f 63/63/63 62/62/62 58/58/58
f 59/59/59 64/64/64 60/60/60
f 60/60/60 64/64/64 65/65/65
f 66/66/66 59/59/59 61/61/61
f 66/66/66 61/61/61 62/62/62
f 64/64/64 59/59/59 66/66/66
f 67/67/67 62/62/62 63/63/63
f 67/67/67 66/66/66 62/62/62
f 68/68/68 67/67/67 63/63/63
f 69/69/69 64/64/64 66/66/66
f 69/69/69 66/66/66 67/67/67
f 70/70/70 67/67/67 68/68/68
f 70/70/70 69/69/69 67/67/67
f 71/71/71 70/70/70 68/68/68
f 64/64/64 72/72/72 65/65/65
f 72/72/72 64/64/64 69/69/69
f 73/73/73 69/69/69 70/70/70
f 73/73/73 72/72/72 69/69/69
f 74/74/74 70/70/70 71/71/71
f 74/74/74 73/73/73 70/70/70
f 75/75/75 74/74/74 71/71/71
f 72/72/72 76/76/76 65/65/65
f 76/76/76 72/72/72 73/73/73
f 76/76/76 77/77/77 65/65/65
f 78/78/78 73/73/73 74/74/74
f 78/78/78 76/76/76 73/73/73
f 79/79/79 74/74/74 75/75/75
f 79/79/79 78/78/78 74/74/74
f 80/80/80 79/79/79 75/75/75
f 80/80/80 81/81/81 79/79/79
f 81/81/81 82/82/82 79/79/79
f 79/79/79 82/82/82 78/78/78
f 81/81/81 83/83/83 82/82/82
f 76/76/76 84/84/84 77/77/77
f 84/84/84 85/85/85 77/77/77
f 78/78/78 86/86/86 76/76/76
f 82/82/82 86/86/86 78/78/78
f 86/86/86 84/84/84 76/76/76
f 83/83/83 87/87/87 82/82/82
f 82/82/82 87/87/87 86/86/86
f 83/83/83 88/88/88 87/87/87
f 84/84/84 89/89/89 85/85/85
f 89/89/89 90/90/90 85/85/85
f 86/86/86 91/91/91 84/84/84
f 87/87/87 91/91/91 86/86/86
f 91/91/91 89/89/89 84/84/84
f 88/88/88 92/92/92 87/87/87
f 87/87/87 92/92/92 91/91/91
f 88/88/88 93/93/93 92/92/92
f 89/89/89 94/94/94 90/90/90
f 94/94/94 95/95/95 90/90/90
f 91/91/91 96/96/96 89/89/89
f 92/92/92 96/96/96 91/91/91
f 96/96/96 94/94/94 89/89/89
f 93/93/93 97/97/97 92/92/92
f 92/92/92 97/97/97 96/96/96
f 93/93/93 98/98/98 97/97/97
f 94/94/94 99/99/99 95/95/95
f 99/99/99 100/100/100 95/95/95
f 96/96/96 101/101/101 94/94/94
f 97/97/97 101/101/101 96/96/96
f 101/101/101 99/99/99 94/94/94
f 98/98/98 102/102/102 97/97/97
f 97/97/97 102/102/102 101/101/101
f 98/98/98 103/103/103 102/102/102
f 99/99/99 104/104/104 100/100/100
f 104/104/104 105/105/105 100/100/100
f 101/101/101 106/106/106 99/99/99
f 102/102/102 106/106/106 101/101/101
f 106/106/106 104/104/104 99/99/99
f 103/103/103 107/107/107 102/102/102
f 102/102/102 107/107/107 106/106/106
f 103/103/103 108/108/108 107/107/107
f 104/104/104 109/109/109 105/105/105
f 109/109/109 110/110/110 105/105/105
f 106/106/106 111/111/111 104/104/104
f 107/107/107 111/111/111 106/106/106
f 111/111/111 109/109/109 104/104/104
f 108/108/108 112/112/112 107/107/107
f 107/107/107 112/112/112 111/111/111
f 108/108/108 113/113/113 112/112/112
f 109/109/109 114/114/114 110/110/110
f 114/114/114 115/115/115 110/110/110
f 111/111/111 116/116/116 109/109/109
f 112/112/112 116/116/116 111/111/111
f 116/116/116 114/114/114 109/109/109
f 113/113/113 117/117/117 112/112/112
f 112/112/112 117/117/117 116/116/116
f 113/113/113 118/118/118 117/117/117
f 114/114/114 119/119/119 115/115/115
f 119/119/119 120/120/120 115/115/115
f 116/116/116 121/121/121 114/114/114
f 117/117/117 121/121/121 116/116/116
f 121/121/121 119/119/119 114/114/114
f 118/118/118 122/122/122 117/117/117
f 117/117/117 122/122/122 121/121/121
f 119/119/119 123/123/123 120/120/120
f 123/123/123 124/124/124 120/120/120
f 121/121/121 125/125/125 119/119/119
f 125/125/125 123/123/123 119/119/119
f 122/122/122 125/125/125 121/121/121
f 123/123/123 126/126/126 124/124/124
f 126/126/126 123/123/123 125/125/125
f 126/126/126 127/127/127 124/124/124
f 127/127/127 126/126/126 128/128/128
f 129/129/129 122/122/122 118/118/118
f 130/130/130 129/129/129 118/118/118
f 131/131/131 125/125/125 122/122/122
f 131/131/131 126/126/126 125/125/125
f 129/129/129 131/131/131 122/122/122
f 126/126/126 132/132/132 128/128/128
f 132/132/132 126/126/126 131/131/131
f 128/128/128 132/132/132 133/133/133
f 134/134/134 129/129/129 130/130/130
f 135/135/135 134/134/134 130/130/130
f 136/136/136 131/131/131 129/129/129
f 136/136/136 132/132/132 131/131/131
f 134/134/134 136/136/136 129/129/129
f 132/132/132 137/137/137 133/133/133
f 137/137/137 132/132/132 136/136/136
f 133/133/133 137/137/137 138/138/138
f 139/139/139 134/134/134 135/135/135
f 140/140/140 139/139/139 135/135/135
f 141/141/141 136/136/136 134/134/134
f 141/141/141 137/137/137 136/136/136
f 139/139/139 141/141/141 134/134/134
f 137/137/137 142/142/142 138/138/138
f 142/142/142 137/137/137 141/141/141
f 138/138/138 142/142/142 143/143/143
f 144/144/144 139/139/139 140/140/140
f 145/145/145 144/144/144 140/140/140
f 146/146/146 141/141/141 139/139/139
f 146/146/146 142/142/142 141/141/141
f 144/144/144 146/146/146 139/139/139
f 142/142/142 147/147/147 143/143/143
f 147/147/147 142/142/142 146/146/146
f 143/143/143 147/147/147 148/148/148
f 149/149/149 144/144/144 145/145/145
f 150/150/150 149/149/149 145/145/145
f 151/151/151 146/146/146 144/144/144
f 151/151/151 147/147/147 146/146/146
f 149/149/149 151/151/151 144/144/144
f 147/147/147 152/152/152 148/148/148
f 152/152/152 147/147/147 151/151/151
f 148/148/148 152/152/152 153/153/153
f 154/154/154 149/149/149 150/150/150
f 155/155/155 154/154/154 150/150/150
f 156/156/156 151/151/151 149/149/149
f 156/156/156 152/152/152 151/151/151
f 154/154/154 156/156/156 149/149/149
f 152/152/152 157/157/157 153/153/153
f 157/157/157 152/152/152 156/156/156
f 153/153/153 157/157/157 158/158/158
f 159/159/159 154/154/154 155/155/155
f 160/160/160 159/159/159 155/155/155
f 161/161/161 156/156/156 154/154/154
f 161/161/161 157/157/157 156/156/156
f 159/159/159 161/161/161 154/154/154
f 157/157/157 162/162/162 158/158/158
f 162/162/162 157/157/157 161/161/161
f 158/158/158 162/162/162 163/163/163
f 162/162/162 164/164/164 163/163/163
f 165/165/165 162/162/162 161/161/161
f 164/164/164 162/162/162 165/165/165
f 165/165/165 161/161/161 159/159/159
f 166/166/166 164/164/164 165/165/165
f 167/167/167 159/159/159 160/160/160
f 167/167/167 165/165/165 159/159/159
f 166/166/166 165/165/165 167/167/167
f 168/168/168 167/167/167 160/160/160
f 169/169/169 166/166/166 167/167/167
f 169/169/169 167/167/167 168/168/168
f 170/170/170 169/169/169 168/168/168
